<svg version="1.1" id="Layer_1" xmlns="http://www.w3.org/2000/svg" xmlns:xlink="http://www.w3.org/1999/xlink" x="0px" y="0px"
	 width="100%" viewBox="0 0 173 205" enable-background="new 0 0 173 205" xml:space="preserve">
<path fill="#FCFCFC" opacity="1.000000" stroke="none" 
	d="
M1.000000,61.000000 
	C1.000000,40.666672 1.000000,20.833344 1.000000,1.000011 
	C58.666645,1.000007 116.333290,1.000007 173.999954,1.000004 
	C173.999969,69.333298 173.999969,137.666595 173.999985,205.999908 
	C116.333382,205.999939 58.666763,205.999939 1.000073,205.999969 
	C1.000000,157.833328 1.000000,109.666664 1.000000,61.000000 
M140.593842,107.987000 
	C141.119003,107.784500 141.644165,107.582008 143.003738,107.351570 
	C144.666779,107.198441 146.329819,107.045311 148.666840,107.025452 
	C149.118393,106.971596 149.569962,106.917740 150.522369,106.955750 
	C150.655319,106.850212 150.788254,106.744667 151.536835,106.398346 
	C152.420975,104.962204 153.305099,103.526062 154.189240,102.089912 
	C152.139709,101.965828 150.090195,101.841751 147.481934,101.606552 
	C147.315643,101.698257 147.149353,101.789955 146.135147,101.745262 
	C144.424408,101.882065 142.713669,102.018867 140.354553,101.989777 
	C139.847015,101.658768 139.339478,101.327759 138.981033,100.125587 
	C138.673248,97.813774 139.304245,96.469154 142.019119,96.551155 
	C143.591125,96.598625 145.180801,96.060837 146.780884,95.814056 
	C146.780884,95.814056 146.964447,95.969307 147.767792,96.177109 
	C153.577301,95.578499 155.550995,91.494209 152.637238,86.002876 
	C152.637238,86.002876 152.682465,85.983635 153.645508,84.984657 
	C153.610062,84.523491 153.574615,84.062317 153.631180,83.430283 
	C153.631180,83.430283 153.632660,83.053329 153.866928,82.429054 
	C153.723450,81.569756 153.579956,80.710464 153.589020,79.286682 
	C153.540024,78.903282 153.491028,78.519890 153.761002,77.629639 
	C153.636093,77.074905 153.511185,76.520180 153.499512,75.038956 
	C153.405731,70.389984 153.497787,65.725891 153.121643,61.099876 
	C152.981964,59.381756 151.744995,57.752857 150.390488,55.624149 
	C147.828598,54.963581 145.297867,54.118084 142.698441,53.680412 
	C137.046112,52.728710 131.156342,50.486767 125.672035,55.958359 
	C121.069054,57.461094 117.898438,63.771484 110.949127,60.129753 
	C108.566048,59.682114 106.182976,59.234474 103.680962,58.764492 
	C107.881859,52.298122 112.258224,46.677868 112.337242,38.488464 
	C112.531517,36.985981 112.725792,35.483501 113.185562,33.236813 
	C113.767281,24.367088 112.929787,15.815364 107.325653,7.819251 
	C106.938408,7.491911 106.551163,7.164571 105.825363,6.185902 
	C100.991669,5.223427 96.159462,4.253424 91.323891,3.300485 
	C85.938431,2.239182 81.787491,4.381340 78.906914,8.721169 
	C77.007553,11.582720 75.187225,14.729141 74.360657,18.007488 
	C73.465591,21.557516 71.703766,21.665981 69.437531,20.397945 
	C70.517387,19.849665 71.597244,19.301382 72.677109,18.753101 
	C72.520828,18.306971 72.364555,17.860838 72.208282,17.414705 
	C70.805962,17.609921 69.403648,17.805136 68.027847,17.208931 
	C64.307640,16.563589 60.587425,15.918250 56.867214,15.272910 
	C56.904133,16.037643 56.941051,16.802376 56.606789,17.610077 
	C56.258957,17.740932 55.911125,17.871788 55.761829,17.040520 
	C54.492607,17.680470 53.223385,18.320419 51.999245,19.000542 
	C51.999245,19.000542 51.959274,18.955959 51.169865,19.043673 
	C50.761597,20.353218 50.353333,21.662762 49.999249,22.999630 
	C49.999249,22.999630 49.958263,22.954897 49.298367,22.340891 
	C48.685658,23.546152 48.072948,24.751411 47.192238,25.991341 
	C47.029762,26.102158 46.947929,26.255867 46.499012,27.130022 
	C45.478806,32.783443 43.803680,38.414627 43.610752,44.096142 
	C43.389381,50.615284 43.190739,57.486427 47.988178,63.009277 
	C47.988178,63.009277 47.963650,63.046669 47.590076,63.701904 
	C49.045368,65.147102 50.500664,66.592308 51.992699,68.010071 
	C51.992699,68.010071 51.977772,68.053429 51.547710,68.498749 
	C51.040966,69.068138 50.534222,69.637527 49.309650,70.350731 
	C48.556267,70.725739 47.802879,71.100746 47.049496,71.475746 
	C47.138767,71.738121 47.228035,72.000488 47.317303,72.262856 
	C48.686287,71.899139 50.055271,71.535423 52.149239,71.140129 
	C54.286652,69.746658 56.424068,68.353188 58.460823,66.943504 
	C58.460823,66.943504 58.424786,67.038872 59.452072,67.856979 
	C59.826832,67.217903 60.201588,66.578835 60.625484,66.030907 
	C60.625484,66.030907 60.633968,66.035629 60.795448,67.004807 
	C68.449120,64.377266 76.102791,61.749729 84.311737,58.931561 
	C84.311737,63.007652 84.311737,66.526726 84.311737,70.050011 
	C86.593452,68.126762 88.426186,66.121445 90.679085,64.876419 
	C91.813095,64.249733 93.709885,65.003342 94.531044,65.136314 
	C93.049332,66.815804 91.567619,68.495293 90.069016,70.959740 
	C85.160042,81.117851 88.357635,88.840866 99.206879,93.029510 
	C100.777824,93.636017 102.349213,94.241371 103.195564,95.009995 
	C95.120430,98.702583 90.289291,92.362656 84.260986,89.114555 
	C84.260986,96.486374 84.260986,104.011398 84.260986,112.263420 
	C72.369858,114.284775 60.591488,116.286972 47.985268,118.331032 
	C45.022133,119.588913 45.151798,117.633156 45.156952,115.671402 
	C45.182652,105.892868 45.174221,96.114250 46.062794,86.149727 
	C48.618942,86.117043 51.350571,85.499092 53.686878,86.199600 
	C56.616405,87.077980 58.861862,87.185387 60.166676,84.223679 
	C61.460735,81.286354 62.592224,78.184677 58.677246,75.983307 
	C57.953636,75.576416 57.695675,74.341415 57.008419,73.102028 
	C55.886707,74.047058 53.123085,75.294243 53.077263,76.634354 
	C52.975323,79.615967 51.198357,80.023964 49.273064,80.945396 
	C47.728283,81.684715 46.370274,82.814285 44.295254,83.910896 
	C43.864853,83.950974 43.434448,83.991043 42.480095,83.362160 
	C38.691795,84.419304 35.090824,87.899437 30.832344,83.754349 
	C29.912630,86.341164 29.138451,88.518639 28.118547,91.387238 
	C30.153574,91.505356 32.162304,92.100159 33.865303,91.617104 
	C37.007217,90.725899 39.969719,89.202202 43.726749,88.430687 
	C43.818829,97.696335 44.114815,106.966515 43.908642,116.225525 
	C43.818630,120.267647 45.058979,121.759819 49.912071,121.056175 
	C54.804558,121.035744 59.700920,120.909393 64.586113,121.088219 
	C65.513908,121.122177 66.397453,122.364845 66.463219,123.054848 
	C66.697083,123.492332 66.930939,123.929825 67.164803,124.367310 
	C67.393265,124.239525 67.621727,124.111740 67.850189,123.983955 
	C67.616608,123.666786 67.383026,123.349617 66.938004,122.060555 
	C72.270462,119.978737 74.454506,120.575974 74.831978,125.736290 
	C75.170219,130.360260 73.636963,135.121109 72.228058,139.958252 
	C71.566139,140.068558 70.904221,140.178864 70.242294,140.289169 
	C70.220100,140.568497 70.197906,140.847824 70.175720,141.127151 
	C71.118507,141.347641 72.061302,141.568130 73.930695,141.913101 
	C80.090569,142.110077 86.250443,142.307068 92.410316,142.504044 
	C92.395317,143.145981 92.380310,143.787918 92.365303,144.429855 
	C83.755959,144.429855 75.139259,144.236893 66.542374,144.564362 
	C64.368958,144.647125 61.329132,145.823181 60.311714,147.488922 
	C58.145287,151.035873 53.333160,154.383926 57.438171,159.690002 
	C57.817677,160.180557 56.503063,162.025940 55.916164,163.213104 
	C49.921780,175.338470 43.915199,187.457840 37.912025,199.578873 
	C38.346825,199.906647 38.781620,200.234421 39.216415,200.562180 
	C40.239094,199.320145 41.536804,198.216232 42.240948,196.814209 
	C47.886486,185.573486 53.357464,174.244675 59.064701,163.035904 
	C59.798946,161.593887 61.581177,160.685486 62.877937,159.529877 
	C63.228680,159.873093 63.579418,160.216309 63.930157,160.559525 
	C62.913563,162.963165 61.896969,165.366791 60.324409,168.229156 
	C59.856655,169.810089 59.388905,171.391037 58.300907,173.238342 
	C57.676514,174.421295 57.052124,175.604248 55.997925,177.309998 
	C53.700485,182.242935 51.403046,187.175873 49.105606,192.108810 
	C49.885918,192.727310 50.666233,193.345810 51.446545,193.964310 
	C52.381832,191.928696 53.317116,189.893082 54.252399,187.857468 
	C54.687206,188.256088 55.122017,188.654709 55.556828,189.053329 
	C54.052334,192.252258 52.547836,195.451187 50.975471,198.794418 
	C54.936409,201.387955 57.182617,199.471802 58.856468,196.200760 
	C64.922867,184.345764 70.939270,172.465195 77.455902,159.647476 
	C77.756310,161.498459 77.878159,162.249237 77.552094,163.374695 
	C77.398903,163.916946 77.245705,164.459198 76.740463,165.646896 
	C74.637878,176.898743 72.535294,188.150604 70.369110,199.742813 
	C77.520409,199.742813 83.570656,199.742813 89.861633,199.742813 
	C90.806396,186.909378 91.693832,174.374542 92.745102,161.853439 
	C92.803680,161.155777 94.216560,160.571838 95.790070,160.105988 
	C96.860809,160.019791 97.931549,159.933609 99.706833,160.039856 
	C100.895767,160.844208 102.257149,161.479431 103.242203,162.483749 
	C106.556404,165.862823 108.709641,169.740723 110.616646,174.269791 
	C114.063599,182.456177 119.333412,189.884552 123.981964,197.544556 
	C124.634651,198.620087 126.018341,199.807007 127.165604,199.921616 
	C130.394913,200.244125 133.677414,200.034225 137.152969,200.034225 
	C136.962463,199.076065 136.986465,198.552887 136.764038,198.174606 
	C133.400894,192.454681 129.999008,186.757538 126.619286,181.047333 
	C123.152802,175.190552 120.477333,168.628159 116.020607,163.662613 
	C111.685265,158.832291 115.503700,150.278519 107.745979,147.588318 
	C107.370804,147.458221 107.271347,146.398926 107.129013,145.753479 
	C106.254036,141.785599 104.538269,138.693253 100.934753,138.950790 
	C100.934753,134.078064 100.934753,129.539673 101.045486,124.448883 
	C100.029480,124.019302 99.013481,123.589729 97.341049,122.848969 
	C96.240379,122.498360 95.139702,122.147751 94.102623,121.465019 
	C94.199020,121.245262 94.202301,121.024109 94.900803,120.547714 
	C96.267883,120.412880 97.634972,120.278038 99.360001,120.394455 
	C99.903946,120.253387 100.447899,120.112320 101.873215,120.094696 
	C104.998428,119.750824 108.117462,119.327835 111.250427,119.083183 
	C115.136795,118.779686 117.542458,117.343239 116.760681,112.890060 
	C116.603806,111.996429 116.900208,111.023224 117.011734,109.828278 
	C124.190125,109.150192 131.096680,108.497787 138.667160,107.978218 
	C139.113159,107.928825 139.559158,107.879433 140.593842,107.987000 
M75.697296,97.784866 
	C75.765152,98.857430 75.833008,99.929993 75.660538,101.491203 
	C75.108803,101.958656 74.557068,102.426109 73.162415,102.836288 
	C68.656540,103.756058 64.123634,104.564285 59.657059,105.646286 
	C57.654678,106.131348 53.217731,105.242119 56.435413,109.881363 
	C55.959904,109.987778 55.484390,110.094193 54.601772,110.110710 
	C54.367176,110.381073 54.132584,110.651436 53.897984,110.921799 
	C54.263050,110.938782 54.628117,110.955772 55.720810,111.164925 
	C56.911068,110.938400 58.101326,110.711876 59.352985,110.348602 
	C59.352985,110.348602 59.489189,110.286011 60.145382,110.797226 
	C62.521347,110.422050 64.897316,110.046875 67.894096,109.741997 
	C68.257965,109.559563 68.621841,109.377129 69.751122,109.276955 
	C71.253250,109.065262 72.755379,108.853577 75.104706,108.630989 
	C80.793518,108.309570 78.962769,104.194275 79.123489,100.210228 
	C79.071342,99.140671 79.019196,98.071106 79.139618,96.156670 
	C79.083572,94.437355 79.027527,92.718040 79.129227,90.073097 
	C78.938484,83.078804 78.747742,76.084503 78.517319,69.011017 
	C78.517319,69.011017 78.394188,68.683762 79.018257,68.383408 
	C78.683540,67.948380 78.348824,67.513344 77.345825,66.873741 
	C72.927643,67.945267 68.509460,69.016792 64.091278,70.088318 
	C64.205643,70.541199 64.320007,70.994080 64.434364,71.446960 
	C67.140022,70.891586 69.827095,70.168175 72.560730,69.865799 
	C73.614014,69.749306 74.773178,70.590004 75.697792,71.916107 
	C75.759071,78.279465 75.820358,84.642822 75.668564,91.637199 
	C75.739235,93.422684 75.809906,95.208176 75.697296,97.784866 
M35.825092,150.642609 
	C38.826401,154.430847 41.419468,152.139816 44.724777,149.968948 
	C53.228222,147.191376 56.525108,138.629578 62.989456,133.231049 
	C59.225815,133.853073 53.723404,134.555023 52.966324,136.833649 
	C51.751804,140.489029 48.898361,140.448898 46.969471,141.478745 
	C46.916195,140.574478 46.862919,139.670212 46.809647,138.765945 
	C46.368771,138.923813 45.927898,139.081680 45.487026,139.239548 
	C45.994923,140.222458 46.502819,141.205353 46.565701,142.783417 
	C45.069996,143.617020 43.574291,144.450638 42.028214,144.552521 
	C41.959515,143.644745 41.890816,142.736984 41.812302,141.699493 
	C39.591866,142.930649 37.565788,143.888123 35.722752,145.119568 
	C33.602589,146.536148 32.740932,148.244553 35.825092,150.642609 
M69.147308,125.252899 
	C68.683899,125.468819 68.220490,125.684731 67.076759,126.234764 
	C66.255013,129.017776 65.433266,131.800781 64.635864,134.501328 
	C69.595688,137.109009 72.196678,135.810486 72.065071,130.730789 
	C72.023354,129.120850 70.311119,127.554192 69.147308,125.252899 
M66.908051,89.731911 
	C65.262848,90.145447 63.617649,90.558983 61.972450,90.972527 
	C62.182854,91.697845 62.393257,92.423164 62.603657,93.148491 
	C65.428719,92.301994 69.714195,92.268723 70.742645,90.421799 
	C72.356766,87.523079 71.974365,83.399620 71.952263,79.797806 
	C71.947830,79.074646 69.775360,78.364792 69.635780,78.279587 
	C68.885048,82.224251 68.216118,85.739067 66.908051,89.731911 
M46.533428,197.217316 
	C46.949959,197.590485 47.366489,197.963638 47.783028,198.336792 
	C48.047604,197.633286 48.312180,196.929779 48.576752,196.226257 
	C48.011436,196.327591 47.446121,196.428909 46.533428,197.217316 
M49.567619,195.295395 
	C49.839169,194.455032 50.110718,193.614685 50.382263,192.774323 
	C49.894844,192.669662 49.407421,192.565018 48.919998,192.460358 
	C48.795937,193.530273 48.671871,194.600174 49.567619,195.295395 
M46.525772,73.506729 
	C46.525772,73.506729 46.487259,73.506950 46.525772,73.506729 
z"/>
<path fill="#141414" opacity="1.000000" stroke="none" 
	d="
M67.301414,123.049820 
	C66.397453,122.364845 65.513908,121.122177 64.586113,121.088219 
	C59.700920,120.909393 54.804558,121.035744 49.437881,120.535828 
	C48.913498,119.440041 48.863308,118.864594 48.813122,118.289154 
	C60.591488,116.286972 72.369858,114.284775 84.260986,112.263420 
	C84.260986,104.011398 84.260986,96.486374 84.260986,89.114555 
	C90.289291,92.362656 95.120430,98.702583 103.723389,95.184769 
	C104.977470,94.941193 105.743286,94.577850 106.420204,94.090919 
	C107.319382,93.444092 108.149223,92.700882 109.255875,91.998718 
	C109.502899,91.998344 109.996948,91.997864 110.182816,92.264038 
	C111.583344,93.356415 112.797997,94.182625 114.120041,95.226997 
	C114.425995,95.716698 114.685066,95.905022 115.001106,96.342468 
	C114.665581,98.427269 114.333588,100.179726 113.620453,102.083160 
	C110.528168,102.579651 107.817032,102.925148 104.954926,102.942390 
	C102.779030,99.570251 101.299248,101.957550 99.474182,103.406723 
	C96.169014,104.617882 93.086861,105.549042 90.004707,106.480209 
	C90.942680,107.764221 91.819771,108.215096 92.657570,108.151138 
	C96.873405,107.829338 101.090538,107.466141 105.285713,106.944504 
	C113.590889,105.911819 121.880478,104.754288 130.179794,103.673683 
	C132.396332,103.385063 134.069855,102.757431 133.287643,99.883636 
	C134.028656,99.519180 134.514328,99.259590 135.180969,99.259491 
	C136.518600,100.011566 137.675262,100.504158 138.831940,100.996750 
	C139.339478,101.327759 139.847015,101.658768 140.637848,102.404236 
	C140.614304,103.879227 140.307465,104.939766 140.000305,106.000153 
	C140.000000,106.000000 140.000610,106.000305 139.692703,106.035751 
	C138.924286,106.662590 138.463760,107.253990 138.003250,107.845383 
	C131.096680,108.497787 124.190125,109.150192 117.011734,109.828278 
	C116.900208,111.023224 116.603806,111.996429 116.760681,112.890060 
	C117.542458,117.343239 115.136795,118.779686 111.250427,119.083183 
	C108.117462,119.327835 104.998428,119.750824 101.390854,119.731102 
	C100.479401,119.080505 100.050301,118.793503 99.621201,118.506500 
	C99.414818,119.052063 99.208435,119.597633 99.002052,120.143204 
	C97.634972,120.278038 96.267883,120.412880 94.152618,120.483574 
	C92.332664,120.411995 91.260887,120.404556 89.945374,120.290337 
	C89.758110,120.483826 89.814590,120.784081 90.137863,121.336105 
	C91.616112,121.657623 92.827568,121.727386 94.039024,121.797150 
	C95.139702,122.147751 96.240379,122.498360 97.731750,123.330185 
	C99.059891,124.208023 99.997322,124.604652 100.934753,125.001274 
	C100.934753,129.539673 100.934753,134.078064 100.934753,138.950790 
	C104.538269,138.693253 106.254036,141.785599 107.129013,145.753479 
	C107.271347,146.398926 107.370804,147.458221 107.745979,147.588318 
	C115.503700,150.278519 111.685265,158.832291 116.020607,163.662613 
	C120.477333,168.628159 123.152802,175.190552 126.619286,181.047333 
	C129.999008,186.757538 133.400894,192.454681 136.764038,198.174606 
	C136.986465,198.552887 136.962463,199.076065 137.152969,200.034225 
	C133.677414,200.034225 130.394913,200.244125 127.165604,199.921616 
	C126.018341,199.807007 124.634651,198.620087 123.981964,197.544556 
	C119.333412,189.884552 114.063599,182.456177 110.616646,174.269791 
	C108.709641,169.740723 106.556404,165.862823 103.242203,162.483749 
	C102.257149,161.479431 100.895767,160.844208 99.282181,159.610687 
	C97.180885,157.432907 95.824738,157.325562 94.999077,159.934967 
	C94.216560,160.571838 92.803680,161.155777 92.745102,161.853439 
	C91.693832,174.374542 90.806396,186.909378 89.861633,199.742813 
	C83.570656,199.742813 77.520409,199.742813 70.369110,199.742813 
	C72.535294,188.150604 74.637878,176.898743 77.201302,165.287445 
	C77.774757,164.285324 77.887383,163.642670 78.000008,163.000000 
	C77.878159,162.249237 77.756310,161.498459 77.455902,159.647476 
	C70.939270,172.465195 64.922867,184.345764 58.856468,196.200760 
	C57.182617,199.471802 54.936409,201.387955 50.975471,198.794418 
	C52.547836,195.451187 54.052334,192.252258 55.556828,189.053329 
	C55.122017,188.654709 54.687206,188.256088 54.252399,187.857468 
	C53.317116,189.893082 52.381832,191.928696 51.446545,193.964310 
	C50.666233,193.345810 49.885918,192.727310 49.105606,192.108810 
	C51.403046,187.175873 53.700485,182.242935 56.636307,177.116974 
	C57.845783,176.953293 58.416870,176.982635 58.992786,177.326920 
	C59.155472,178.213364 59.313332,178.784866 59.471191,179.356354 
	C59.838703,179.125046 60.206219,178.893738 60.573738,178.662430 
	C60.053349,178.104401 59.532963,177.546371 59.147308,176.694366 
	C59.866085,175.283875 60.450130,174.167389 61.373634,173.041183 
	C62.165066,173.004883 62.617031,172.978287 63.334850,172.858063 
	C64.065468,172.189804 64.530235,171.615158 65.046394,170.700928 
	C67.063644,167.572678 69.029495,164.783997 71.358826,161.998611 
	C72.491211,161.302902 73.260132,160.603912 74.465195,159.955688 
	C78.027786,159.071869 81.154243,158.137268 85.259453,156.910080 
	C82.386139,154.282883 81.571869,149.467590 78.059555,153.617203 
	C76.257111,155.746704 74.644852,155.958282 72.422531,156.034164 
	C69.424416,156.136551 66.430817,156.371368 63.435280,156.549347 
	C63.477802,156.949493 63.520329,157.349625 63.562855,157.749756 
	C66.365334,157.943420 69.167816,158.137085 71.910255,158.644196 
	C71.568283,159.973267 71.286346,160.988892 70.709488,162.022644 
	C67.659660,161.490952 66.295189,162.834244 65.261948,165.290176 
	C64.560684,166.957062 63.863411,169.682175 60.880375,167.770416 
	C61.896969,165.366791 62.913563,162.963165 63.930157,160.559525 
	C63.579418,160.216309 63.228680,159.873093 62.877937,159.529877 
	C61.581177,160.685486 59.798946,161.593887 59.064701,163.035904 
	C53.357464,174.244675 47.886486,185.573486 42.240948,196.814209 
	C41.536804,198.216232 40.239094,199.320145 39.216415,200.562180 
	C38.781620,200.234421 38.346825,199.906647 37.912025,199.578873 
	C43.915199,187.457840 49.921780,175.338470 55.916164,163.213104 
	C56.503063,162.025940 57.817677,160.180557 57.438171,159.690002 
	C53.333160,154.383926 58.145287,151.035873 60.311714,147.488922 
	C61.329132,145.823181 64.368958,144.647125 66.542374,144.564362 
	C75.139259,144.236893 83.755959,144.429855 92.365303,144.429855 
	C92.380310,143.787918 92.395317,143.145981 92.410316,142.504044 
	C86.250443,142.307068 80.090569,142.110077 73.461395,141.522797 
	C72.971199,140.695526 72.950294,140.258545 72.929382,139.821579 
	C73.636963,135.121109 75.170219,130.360260 74.831978,125.736290 
	C74.454506,120.575974 72.270462,119.978737 67.081154,122.556305 
	C67.224304,123.052063 67.301414,123.049820 67.301414,123.049820 
M102.429596,151.067963 
	C102.109192,151.373093 101.788788,151.678238 101.468391,151.983383 
	C101.677017,152.164139 101.885635,152.344910 102.094269,152.525665 
	C102.397812,152.018616 102.701347,151.511566 103.570084,150.931015 
	C103.890442,150.626282 104.210800,150.321533 104.531166,150.016800 
	C104.322731,149.836136 104.114288,149.655457 103.905846,149.474792 
	C103.602386,149.981567 103.298927,150.488342 102.429596,151.067963 
M80.142220,138.519882 
	C84.719376,137.917404 89.296532,137.314926 93.873695,136.712448 
	C89.836891,135.452133 85.729774,135.084503 81.645485,135.257095 
	C80.882156,135.289352 80.210320,137.486679 80.142220,138.519882 
M80.567406,130.635513 
	C80.834129,130.124100 81.100853,129.612671 81.367577,129.101257 
	C80.835785,128.880447 80.304001,128.659622 79.772209,128.438797 
	C79.863434,129.081390 79.954651,129.723984 80.567406,130.635513 
M87.197083,102.269493 
	C86.737869,102.319260 86.278664,102.369026 85.819450,102.418793 
	C86.011238,102.799271 86.203026,103.179756 86.394814,103.560226 
	C86.791672,103.262245 87.188530,102.964256 87.197083,102.269493 
M97.800201,115.397133 
	C97.795998,115.787811 97.791794,116.178497 97.787590,116.569176 
	C97.949692,116.570839 98.252708,116.583359 98.253532,116.572594 
	C98.283493,116.183769 98.285294,115.792770 97.800201,115.397133 
M82.800034,170.397385 
	C82.795738,170.788071 82.791443,171.178772 82.787140,171.569458 
	C82.949272,171.570969 83.252304,171.583405 83.253151,171.572403 
	C83.283302,171.183655 83.285110,170.792725 82.800034,170.397385 
M56.527466,184.724533 
	C56.904621,184.738907 57.281776,184.753281 57.658932,184.767654 
	C57.663780,184.375137 57.668629,183.982635 57.673477,183.590118 
	C57.326771,183.690338 56.980068,183.790558 56.527466,184.724533 
M55.447128,187.528091 
	C55.901005,187.101089 56.375877,186.692337 56.782776,186.224472 
	C56.835011,186.164429 56.533955,185.797119 56.396553,185.572144 
	C55.961571,185.907455 55.526588,186.242767 55.447128,187.528091 
M89.482697,185.585312 
	C89.482697,185.585312 89.419304,185.477646 89.482697,185.585312 
M97.586784,156.517273 
	C97.586784,156.517273 97.477692,156.582077 97.586784,156.517273 
M82.414345,148.483368 
	C82.414345,148.483368 82.523155,148.419144 82.414345,148.483368 
M96.484070,140.583725 
	C96.484070,140.583725 96.421135,140.476593 96.484070,140.583725 
M94.482925,140.584839 
	C94.482925,140.584839 94.419846,140.477432 94.482925,140.584839 
z"/>
<path fill="#171717" opacity="1.000000" stroke="none" 
	d="
M95.261749,65.132782 
	C93.709885,65.003342 91.813095,64.249733 90.679085,64.876419 
	C88.426186,66.121445 86.593452,68.126762 84.311737,70.050011 
	C84.311737,66.526726 84.311737,63.007652 84.311737,58.931561 
	C76.102791,61.749729 68.449120,64.377266 60.977089,66.138321 
	C63.689423,61.916374 61.394032,59.728992 59.390480,57.330498 
	C58.694908,56.497818 58.024628,54.982124 58.320072,54.109108 
	C59.165401,51.611183 60.511921,49.282864 62.027985,46.883797 
	C62.953777,46.198219 63.512939,45.516682 64.466782,44.877716 
	C65.583199,46.589294 66.304932,48.258305 67.042915,50.239731 
	C67.474953,50.889263 67.890747,51.226379 68.306541,51.563492 
	C68.529900,51.021194 68.753258,50.478897 68.940781,49.500687 
	C69.470154,39.996777 69.925766,30.940586 65.701805,22.524483 
	C67.012749,21.854607 67.997643,21.351334 68.982544,20.848059 
	C71.703766,21.665981 73.465591,21.557516 74.360657,18.007488 
	C75.187225,14.729141 77.007553,11.582720 78.906914,8.721169 
	C81.787491,4.381340 85.938431,2.239182 91.323891,3.300485 
	C96.159462,4.253424 100.991669,5.223427 105.763885,6.746911 
	C105.548935,7.465177 105.395462,7.622435 104.912186,7.586210 
	C101.854324,6.942458 99.126274,6.492188 96.398224,6.041917 
	C97.094902,7.254887 97.982750,8.073399 98.990906,8.267708 
	C103.602318,9.156507 105.964119,12.272445 106.968544,16.456022 
	C108.198631,21.579487 109.064789,26.790329 109.833771,32.125198 
	C109.386322,32.841068 109.193390,33.395134 108.795265,34.171036 
	C108.382156,36.250416 108.174240,38.107956 107.615532,39.976158 
	C106.484077,40.631901 105.703423,41.276981 104.612030,41.981697 
	C103.883980,42.699356 103.466675,43.357380 103.049370,44.015408 
	C103.369812,44.168232 103.690247,44.321056 104.010689,44.473885 
	C104.375229,43.686317 104.739769,42.898754 105.417198,42.075195 
	C106.498413,41.374302 107.266739,40.709408 108.362137,40.031219 
	C109.708229,39.698071 110.727234,39.378216 111.746239,39.058357 
	C112.258224,46.677868 107.881859,52.298122 103.680962,58.764492 
	C106.182976,59.234474 108.566048,59.682114 111.457092,60.457268 
	C112.694092,61.833115 113.423134,62.881447 113.916016,64.038292 
	C113.447334,64.399628 113.214806,64.652451 112.837387,65.235527 
	C109.734840,67.483551 106.777168,69.401337 103.362244,71.230270 
	C102.310432,71.941101 101.715889,72.740784 100.953766,73.624756 
	C100.786186,73.709061 100.469002,73.508705 100.141998,73.317139 
	C98.265594,72.419456 96.716209,71.713341 95.178596,70.678116 
	C96.042526,69.209663 96.894684,68.070305 97.597633,67.130440 
	C97.181458,66.774529 96.221603,65.953651 95.261749,65.132782 
M77.318878,16.061983 
	C77.055412,16.850363 76.790985,17.638422 76.528633,18.427174 
	C72.861725,29.451771 72.807274,40.375805 77.771759,51.031128 
	C78.642403,52.899784 80.051880,55.261814 81.754471,55.864216 
	C87.790657,57.999924 92.995811,55.032295 95.625336,48.470558 
	C100.446159,36.440636 101.000427,24.367304 96.105637,12.153227 
	C93.104576,4.664649 86.347145,3.278996 81.273064,9.441669 
	C79.818092,11.208797 78.877998,13.399862 77.318878,16.061983 
M66.503372,54.915897 
	C66.594254,54.715401 66.713890,54.520546 66.755104,54.310314 
	C66.764999,54.259838 66.515099,54.091919 66.383400,54.090416 
	C64.956322,54.074097 63.528988,54.080223 62.101723,54.080223 
	C62.112244,54.381584 62.122761,54.682949 62.133282,54.984310 
	C63.369450,54.984310 64.605621,54.984310 66.503372,54.915897 
M64.660049,56.106670 
	C64.433220,57.076294 64.206390,58.045918 63.979557,59.015541 
	C64.395798,59.044479 64.812042,59.073418 65.228279,59.102356 
	C65.228279,58.158710 65.228279,57.215065 64.660049,56.106670 
M74.564774,51.468758 
	C74.703506,50.701149 74.842232,49.933540 74.980965,49.165932 
	C74.670250,49.154793 74.359528,49.143658 74.048813,49.132523 
	C74.099083,49.759827 74.149345,50.387131 74.564774,51.468758 
M66.264526,59.816063 
	C66.377647,59.972347 66.490768,60.128632 66.603889,60.284920 
	C66.581184,60.067528 66.558487,59.850140 66.264526,59.816063 
z"/>
<path fill="#F1F1F1" opacity="1.000000" stroke="none" 
	d="
M67.026665,49.927311 
	C66.304932,48.258305 65.583199,46.589294 64.439758,44.670647 
	C64.018044,44.421005 63.839439,44.043472 63.991772,43.669327 
	C66.041283,38.320347 63.684319,32.944874 59.412857,32.245285 
	C60.648239,36.143414 61.899696,40.092278 63.000668,44.340401 
	C62.453907,45.389053 62.057629,46.138451 61.661354,46.887844 
	C60.511921,49.282864 59.165401,51.611183 58.320072,54.109108 
	C58.024628,54.982124 58.694908,56.497818 59.390480,57.330498 
	C61.394032,59.728992 63.689423,61.916374 60.896351,65.653732 
	C60.633968,66.035629 60.625484,66.030907 60.162056,66.003311 
	C59.274010,66.330101 58.849396,66.684486 58.424786,67.038872 
	C58.424786,67.038872 58.460823,66.943504 58.065514,66.922134 
	C55.772728,67.284988 53.875252,67.669212 51.977772,68.053429 
	C51.977772,68.053429 51.992699,68.010071 52.355820,67.783554 
	C51.133846,66.053581 49.548748,64.550125 47.963650,63.046669 
	C47.963650,63.046669 47.988178,63.009277 48.427734,62.825188 
	C44.916332,51.224182 44.507587,39.769100 48.355362,28.220282 
	C48.485161,27.830694 47.442760,27.050560 46.946743,26.452467 
	C46.947929,26.255867 47.029762,26.102158 47.666786,26.346825 
	C48.746979,25.453171 49.352619,24.204033 49.958263,22.954897 
	C49.958263,22.954897 49.999249,22.999630 50.394020,23.099503 
	C51.178947,21.784904 51.569111,20.370432 51.959274,18.955959 
	C51.959274,18.955959 51.999245,19.000542 52.193985,19.429146 
	C53.446911,19.239380 54.505100,18.621010 55.563290,18.002642 
	C55.911125,17.871788 56.258957,17.740932 57.145760,17.461868 
	C61.123596,17.542557 64.562462,17.771454 68.001328,18.000351 
	C69.403648,17.805136 70.805962,17.609921 72.208282,17.414705 
	C72.364555,17.860838 72.520828,18.306971 72.677109,18.753101 
	C71.597244,19.301382 70.517387,19.849665 69.210037,20.623001 
	C67.997643,21.351334 67.012749,21.854607 65.701805,22.524483 
	C69.925766,30.940586 69.470154,39.996777 68.644997,49.746529 
	C67.932259,50.261288 67.479462,50.094299 67.026665,49.927311 
M57.235767,41.789955 
	C56.770836,44.538292 56.305904,47.286629 55.623795,51.318752 
	C57.163898,49.958485 59.106255,49.034328 59.111317,48.099670 
	C59.131809,44.316444 58.611351,40.522072 58.072788,36.763008 
	C58.037872,36.519291 56.170818,36.538071 54.867119,36.405327 
	C55.853943,38.467823 56.451370,39.716476 57.235767,41.789955 
z"/>
<path fill="#161616" opacity="1.000000" stroke="none" 
	d="
M153.442047,78.136490 
	C153.491028,78.519890 153.540024,78.903282 153.234741,79.511871 
	C149.026428,81.109741 146.091385,83.259583 145.850693,88.140343 
	C139.772705,93.911354 134.666504,94.699661 129.858276,90.436279 
	C129.886978,80.415894 129.787888,70.852806 129.844269,61.290642 
	C129.860336,58.565098 129.041077,56.667747 126.320633,55.855957 
	C131.156342,50.486767 137.046112,52.728710 142.698441,53.680412 
	C145.297867,54.118084 147.828598,54.963581 150.693604,56.225929 
	C150.995544,57.572186 150.994354,58.316662 150.672699,59.219429 
	C146.551956,61.538811 141.597412,61.839085 138.377625,66.063187 
	C142.304077,65.529495 145.435593,65.103859 148.720398,64.657379 
	C149.630966,68.940628 150.450455,72.795341 151.294037,76.947754 
	C152.026123,77.542465 152.734070,77.839478 153.442047,78.136490 
M144.172760,67.752808 
	C144.118225,67.587784 144.063690,67.422752 144.009155,67.257729 
	C143.955734,67.423988 143.902328,67.590240 144.172760,67.752808 
M132.412155,90.483337 
	C132.412155,90.483337 132.521484,90.418549 132.412155,90.483337 
M137.586838,73.518250 
	C137.586838,73.518250 137.478012,73.583191 137.586838,73.518250 
z"/>
<path fill="#101010" opacity="1.000000" stroke="none" 
	d="
M129.789520,90.893929 
	C134.666504,94.699661 139.772705,93.911354 146.136307,88.029526 
	C148.011627,86.382263 149.422974,85.147362 151.517059,83.891403 
	C152.646255,83.780609 153.092697,83.690880 153.539154,83.601151 
	C153.574615,84.062317 153.610062,84.523491 153.032883,85.245041 
	C152.296249,85.475563 152.172226,85.445702 152.048218,85.415840 
	C152.251816,85.629021 152.455414,85.842201 152.659012,86.055382 
	C155.550995,91.494209 153.577301,95.578499 147.581207,95.734192 
	C147.015778,94.990822 146.636932,94.690369 146.258102,94.389915 
	C146.121414,94.594856 145.828537,94.928032 145.874008,94.983429 
	C146.124527,95.288582 146.457703,95.525864 146.762527,95.786430 
	C145.180801,96.060837 143.591125,96.598625 142.019119,96.551155 
	C139.304245,96.469154 138.673248,97.813774 138.906494,100.561172 
	C137.675262,100.504158 136.518600,100.011566 135.134216,98.929108 
	C134.227280,97.910393 133.548050,97.481529 132.515747,97.003456 
	C129.344131,95.853127 126.525566,94.752007 123.777168,93.230057 
	C124.565033,90.539581 125.282730,88.269943 126.204163,85.877968 
	C126.391388,85.408585 126.374886,85.061531 126.358383,84.714485 
	C126.238716,85.142784 126.119057,85.571091 125.656082,86.031769 
	C123.539658,88.010178 121.766548,89.956200 119.608498,91.897423 
	C118.469376,91.869057 117.715187,91.845482 116.920891,91.483620 
	C115.963470,91.134872 115.046165,91.124420 114.128853,91.113976 
	C114.930099,91.753326 115.731346,92.392677 116.642410,93.398880 
	C116.692764,94.525978 116.633308,95.286232 116.463081,96.141762 
	C116.215477,96.540283 116.297127,96.780998 116.689972,97.381165 
	C117.541122,98.483116 118.353592,99.798592 119.049110,99.739410 
	C123.379311,99.371017 127.683311,98.694740 132.001968,98.402069 
	C132.002533,99.059006 131.997116,99.434418 131.570389,99.907829 
	C125.433250,100.647949 119.717430,101.290062 114.001602,101.932175 
	C114.333588,100.179726 114.665581,98.427269 114.893623,96.123657 
	C114.593002,95.298683 114.333992,95.110794 114.012657,95.008835 
	C112.797997,94.182625 111.583344,93.356415 110.161774,91.968544 
	C109.638924,90.941437 109.322990,90.475998 109.002914,90.004417 
	C108.998756,89.998276 108.989944,89.986214 108.994186,89.659950 
	C108.990692,88.898659 108.982948,88.463631 109.301910,87.899475 
	C114.280724,84.131325 114.046379,81.361938 108.628464,78.601654 
	C108.356300,77.179436 108.336143,76.084679 108.478889,74.899109 
	C108.827911,74.630661 108.947464,74.415955 109.337112,74.006256 
	C111.117416,73.548180 112.561050,73.248024 114.007965,73.337402 
	C114.009560,74.505959 114.007874,75.284973 113.913399,76.362442 
	C117.619858,76.734596 121.426994,76.694283 125.213188,76.956535 
	C126.251198,77.028442 127.226425,78.006683 128.230469,78.569016 
	C128.007187,78.928108 127.783905,79.287193 127.560623,79.646278 
	C124.489693,80.001129 121.418762,80.355980 118.347839,80.710838 
	C118.408707,81.052727 118.469582,81.394615 118.530449,81.736511 
	C121.765572,82.170891 125.000694,82.605278 128.113968,83.023293 
	C128.721191,85.875626 129.255356,88.384773 129.789520,90.893929 
M115.324799,80.225067 
	C115.083466,80.799576 114.842140,81.374092 114.600815,81.948601 
	C115.018509,82.103058 115.436211,82.257515 115.853905,82.411980 
	C115.855988,81.759819 115.858070,81.107658 115.324799,80.225067 
M129.172012,93.747429 
	C129.117920,93.584312 129.063828,93.421196 129.009735,93.258080 
	C128.956924,93.421951 128.904099,93.585823 129.172012,93.747429 
z"/>
<path fill="#ECECEC" opacity="1.000000" stroke="none" 
	d="
M129.858276,90.436279 
	C129.255356,88.384773 128.721191,85.875626 128.113968,83.023293 
	C125.000694,82.605278 121.765572,82.170891 118.530449,81.736511 
	C118.469582,81.394615 118.408707,81.052727 118.347839,80.710838 
	C121.418762,80.355980 124.489693,80.001129 127.560623,79.646278 
	C127.783905,79.287193 128.007187,78.928108 128.230469,78.569016 
	C127.226425,78.006683 126.251198,77.028442 125.213188,76.956535 
	C121.426994,76.694283 117.619858,76.734596 114.338272,76.397316 
	C119.296799,75.213356 123.737663,74.292969 128.969223,73.208702 
	C125.491898,69.750343 121.459671,69.981407 114.004684,72.947868 
	C112.561050,73.248024 111.117416,73.548180 109.087296,73.998421 
	C108.500809,74.148506 108.160660,74.514801 108.160660,74.514801 
	C108.160660,74.514801 108.315987,74.989922 108.315987,74.989922 
	C108.336143,76.084679 108.356300,77.179436 108.468842,79.024384 
	C108.379265,81.867241 108.197311,83.959915 107.796555,86.009689 
	C107.577744,85.966797 107.138580,85.889404 107.091507,85.647514 
	C107.044441,85.405624 106.887375,84.938484 106.951927,84.587631 
	C106.943161,83.530182 106.869843,82.823586 106.823792,81.830765 
	C106.588608,81.266823 106.326157,80.989113 106.170944,80.498917 
	C106.183212,79.921158 106.088234,79.555893 105.993256,79.190628 
	C105.655693,79.654556 105.318138,80.118484 104.703987,80.708115 
	C104.228447,80.871864 104.029503,80.909920 103.688141,80.953079 
	C103.545715,80.958176 103.261398,80.938171 103.122681,80.586166 
	C102.159286,78.131279 101.334618,76.028397 100.485168,73.868149 
	C100.460403,73.810776 100.448479,73.686371 100.456017,73.642227 
	C100.463554,73.598091 100.469002,73.508705 100.469002,73.508705 
	C100.469002,73.508705 100.786186,73.709061 101.205635,73.478226 
	C102.356560,72.604630 103.088036,71.961876 103.819504,71.319115 
	C106.777168,69.401337 109.734840,67.483551 113.138199,65.269714 
	C113.963593,64.834473 114.343292,64.695297 114.723000,64.556114 
	C114.532722,64.347336 114.342445,64.138565 114.152168,63.929787 
	C113.423134,62.881447 112.694092,61.833115 111.860153,60.444717 
	C117.898438,63.771484 121.069054,57.461094 125.996338,55.907158 
	C129.041077,56.667747 129.860336,58.565098 129.844269,61.290642 
	C129.787888,70.852806 129.886978,80.415894 129.858276,90.436279 
M117.149017,66.686142 
	C115.865295,67.263016 114.581581,67.839882 113.297859,68.416748 
	C118.373650,68.912331 122.946938,68.031425 126.706619,64.764771 
	C126.525429,64.254913 126.344231,63.745060 126.163040,63.235203 
	C123.372581,64.239601 120.582123,65.244003 117.149017,66.686142 
z"/>
<path fill="#101010" opacity="1.000000" stroke="none" 
	d="
M100.141998,73.317139 
	C100.469002,73.508705 100.463554,73.598091 100.116058,73.811310 
	C99.055855,74.280586 98.343147,74.536644 97.630447,74.792702 
	C97.801430,75.129944 97.972420,75.467186 98.143402,75.804436 
	C98.932251,75.178123 99.721092,74.551819 100.509941,73.925514 
	C101.334618,76.028397 102.159286,78.131279 103.044472,80.836739 
	C103.105515,81.614311 103.106049,81.789299 102.755585,81.977760 
	C101.936302,81.997887 101.468025,82.004555 100.829750,81.777649 
	C99.966301,81.730484 99.272842,81.916901 98.579391,82.103317 
	C98.620636,82.342415 98.661880,82.581512 98.703125,82.820610 
	C99.468071,82.881828 100.233025,82.943054 100.998016,83.338326 
	C100.999519,84.117775 101.000977,84.563179 101.237686,85.279404 
	C102.659180,85.697121 103.845413,85.844017 105.282501,86.023148 
	C105.699448,86.084404 105.865540,86.113411 106.037399,86.479889 
	C107.025421,87.873642 108.007683,88.929924 108.989944,89.986214 
	C108.989944,89.986214 108.998756,89.998276 109.000305,90.335678 
	C109.004189,91.115082 109.006523,91.557083 109.008850,91.999084 
	C108.149223,92.700882 107.319382,93.444092 106.420204,94.090919 
	C105.743286,94.577850 104.977470,94.941193 104.085800,95.103409 
	C102.349213,94.241371 100.777824,93.636017 99.206879,93.029510 
	C88.357635,88.840866 85.160042,81.117851 90.463837,70.508781 
	C92.061981,72.470436 93.265312,74.883057 94.468643,77.295670 
	C94.701370,77.058830 94.934090,76.821983 95.166817,76.585144 
	C95.166817,74.725838 95.166817,72.866531 95.166817,71.007225 
	C96.716209,71.713341 98.265594,72.419456 100.141998,73.317139 
M95.017609,80.526459 
	C94.407639,79.915543 93.797661,79.304619 93.187691,78.693703 
	C92.909447,79.069931 92.631210,79.446167 92.352974,79.822403 
	C93.298973,80.263481 94.244972,80.704552 94.967728,81.859818 
	C93.040764,88.083206 95.885941,91.500793 102.420517,90.389503 
	C98.891312,88.863480 96.221703,86.959869 96.840706,82.692627 
	C96.900246,82.282150 95.740822,81.694847 95.017609,80.526459 
M96.483238,78.586319 
	C96.483238,78.586319 96.417450,78.475052 96.483238,78.586319 
z"/>
<path fill="#161616" opacity="1.000000" stroke="none" 
	d="
M44.929382,83.770676 
	C46.370274,82.814285 47.728283,81.684715 49.273064,80.945396 
	C51.198357,80.023964 52.975323,79.615967 53.077263,76.634354 
	C53.123085,75.294243 55.886707,74.047058 57.008419,73.102028 
	C57.695675,74.341415 57.953636,75.576416 58.677246,75.983307 
	C62.592224,78.184677 61.460735,81.286354 60.166676,84.223679 
	C58.861862,87.185387 56.616405,87.077980 53.686878,86.199600 
	C51.350571,85.499092 48.618942,86.117043 45.564140,85.816696 
	C45.020123,84.912674 44.974754,84.341675 44.929382,83.770676 
z"/>
<path fill="#141414" opacity="1.000000" stroke="none" 
	d="
M46.984409,142.215302 
	C48.898361,140.448898 51.751804,140.489029 52.966324,136.833649 
	C53.723404,134.555023 59.225815,133.853073 62.989456,133.231049 
	C56.525108,138.629578 53.228222,147.191376 44.357162,149.637299 
	C42.918171,148.444901 41.846794,147.584167 40.885845,146.495209 
	C41.357044,145.939407 41.717819,145.611832 42.078590,145.284241 
	C43.574291,144.450638 45.069996,143.617020 46.763420,142.476990 
	C46.961143,142.170563 46.984409,142.215302 46.984409,142.215302 
z"/>
<path fill="#101010" opacity="1.000000" stroke="none" 
	d="
M55.008881,110.200607 
	C55.484390,110.094193 55.959904,109.987778 56.435413,109.881363 
	C53.217731,105.242119 57.654678,106.131348 59.657059,105.646286 
	C64.123634,104.564285 68.656540,103.756058 73.586739,103.344666 
	C74.093208,105.449326 74.175354,107.045601 74.257507,108.641884 
	C72.755379,108.853577 71.253250,109.065262 69.366104,108.892731 
	C68.767944,107.923767 68.554810,107.339027 68.341675,106.754288 
	C67.985542,107.726761 67.629410,108.699226 67.273277,109.671707 
	C64.897316,110.046875 62.521347,110.422050 59.680492,110.355728 
	C59.015549,109.917854 58.815495,109.921478 58.615440,109.925102 
	C58.840824,110.111855 59.066204,110.298607 59.291584,110.485352 
	C58.101326,110.711876 56.911068,110.938400 55.367798,110.875946 
	C55.014782,110.586967 55.008881,110.200607 55.008881,110.200607 
z"/>
<path fill="#161616" opacity="1.000000" stroke="none" 
	d="
M43.006977,87.942032 
	C39.969719,89.202202 37.007217,90.725899 33.865303,91.617104 
	C32.162304,92.100159 30.153574,91.505356 28.118547,91.387238 
	C29.138451,88.518639 29.912630,86.341164 30.832344,83.754349 
	C35.090824,87.899437 38.691795,84.419304 42.754631,84.087631 
	C43.021770,85.856071 43.014374,86.899055 43.006977,87.942032 
z"/>
<path fill="#171717" opacity="1.000000" stroke="none" 
	d="
M46.722878,26.791245 
	C47.442760,27.050560 48.485161,27.830694 48.355362,28.220282 
	C44.507587,39.769100 44.916332,51.224182 48.406464,62.832069 
	C43.190739,57.486427 43.389381,50.615284 43.610752,44.096142 
	C43.803680,38.414627 45.478806,32.783443 46.722878,26.791245 
z"/>
<path fill="#161616" opacity="1.000000" stroke="none" 
	d="
M67.227623,89.492889 
	C68.216118,85.739067 68.885048,82.224251 69.635780,78.279587 
	C69.775360,78.364792 71.947830,79.074646 71.952263,79.797806 
	C71.974365,83.399620 72.356766,87.523079 70.742645,90.421799 
	C69.714195,92.268723 65.428719,92.301994 62.603657,93.148491 
	C62.393257,92.423164 62.182854,91.697845 61.972450,90.972527 
	C63.617649,90.558983 65.262848,90.145447 67.227623,89.492889 
z"/>
<path fill="#171717" opacity="1.000000" stroke="none" 
	d="
M107.591736,8.272077 
	C112.929787,15.815364 113.767281,24.367088 112.732605,33.608948 
	C111.853096,33.987999 111.426544,33.994915 110.997086,33.650375 
	C110.982819,32.830502 110.971458,32.362072 111.016830,31.442423 
	C111.531319,23.360210 110.142624,16.098763 106.951752,9.012678 
	C107.318779,8.611508 107.455261,8.441792 107.591736,8.272077 
z"/>
<path fill="#141414" opacity="1.000000" stroke="none" 
	d="
M78.556999,69.090210 
	C78.747742,76.084503 78.938484,83.078804 78.664146,90.541946 
	C77.426590,91.009262 76.654114,91.007721 75.881638,91.006180 
	C75.820358,84.642822 75.759071,78.279465 76.362488,71.343376 
	C77.537125,70.210495 78.047058,69.650352 78.556999,69.090210 
z"/>
<path fill="#181818" opacity="1.000000" stroke="none" 
	d="
M69.363358,125.967720 
	C70.311119,127.554192 72.023354,129.120850 72.065071,130.730789 
	C72.196678,135.810486 69.595688,137.109009 64.635864,134.501328 
	C65.433266,131.800781 66.255013,129.017776 67.818069,126.094437 
	C68.827377,125.958649 69.095367,125.963181 69.363358,125.967720 
z"/>
<path fill="#252525" opacity="1.000000" stroke="none" 
	d="
M70.995346,161.995316 
	C69.029495,164.783997 67.063644,167.572678 64.740692,170.748138 
	C63.945389,171.740494 63.507191,172.346100 63.068993,172.951691 
	C62.617031,172.978287 62.165066,173.004883 61.021297,173.021835 
	C59.860046,172.998779 59.390598,172.985382 58.921150,172.971970 
	C59.388905,171.391037 59.856655,169.810089 60.602394,167.999786 
	C63.863411,169.682175 64.560684,166.957062 65.261948,165.290176 
	C66.295189,162.834244 67.659660,161.490952 70.707291,162.020386 
	C71.000000,162.000000 70.995346,161.995316 70.995346,161.995316 
z"/>
<path fill="#010101" opacity="1.000000" stroke="none" 
	d="
M43.366863,88.186356 
	C43.014374,86.899055 43.021770,85.856071 43.016609,84.422104 
	C43.434448,83.991043 43.864853,83.950974 44.612320,83.840790 
	C44.974754,84.341675 45.020123,84.912674 45.121643,85.909668 
	C45.174221,96.114250 45.182652,105.892868 45.156952,115.671402 
	C45.151798,117.633156 45.022133,119.588913 48.399193,118.310089 
	C48.863308,118.864594 48.913498,119.440041 48.976231,120.448502 
	C45.058979,121.759819 43.818630,120.267647 43.908642,116.225525 
	C44.114815,106.966515 43.818829,97.696335 43.366863,88.186356 
z"/>
<path fill="#DEDEDE" opacity="1.000000" stroke="none" 
	d="
M95.178596,70.678116 
	C95.166817,72.866531 95.166817,74.725838 95.166817,76.585144 
	C94.934090,76.821983 94.701370,77.058830 94.468643,77.295670 
	C93.265312,74.883057 92.061981,72.470436 90.472275,70.116302 
	C91.567619,68.495293 93.049332,66.815804 94.896393,65.134552 
	C96.221603,65.953651 97.181458,66.774529 97.597633,67.130440 
	C96.894684,68.070305 96.042526,69.209663 95.178596,70.678116 
z"/>
<path fill="#101010" opacity="1.000000" stroke="none" 
	d="
M140.000610,106.000305 
	C140.307465,104.939766 140.614304,103.879227 140.962036,102.487183 
	C142.713669,102.018867 144.424408,101.882065 146.665192,102.052994 
	C147.464600,102.574875 147.733994,102.789040 148.001282,103.392105 
	C147.997070,104.818069 147.994965,105.855133 147.992859,106.892181 
	C146.329819,107.045311 144.666779,107.198441 142.421341,107.064003 
	C141.226166,106.517723 140.613388,106.259010 140.000610,106.000305 
z"/>
<path fill="#1C1C1C" opacity="1.000000" stroke="none" 
	d="
M78.537155,69.050613 
	C78.047058,69.650352 77.537125,70.210495 76.455643,70.882614 
	C74.773178,70.590004 73.614014,69.749306 72.560730,69.865799 
	C69.827095,70.168175 67.140022,70.891586 64.434364,71.446960 
	C64.320007,70.994080 64.205643,70.541199 64.091278,70.088318 
	C68.509460,69.016792 72.927643,67.945267 77.735451,67.386749 
	C78.214775,68.161095 78.304482,68.422432 78.394188,68.683762 
	C78.394188,68.683762 78.517319,69.011017 78.537155,69.050613 
z"/>
<path fill="#1C1C1C" opacity="1.000000" stroke="none" 
	d="
M148.329865,106.958817 
	C147.994965,105.855133 147.997070,104.818069 148.005432,103.070549 
	C148.021332,102.145950 148.031006,101.931808 148.040665,101.717667 
	C150.090195,101.841751 152.139709,101.965828 154.189240,102.089912 
	C153.305099,103.526062 152.420975,104.962204 151.108398,106.417496 
	C150.338211,106.336777 150.118713,106.479187 150.021515,106.863876 
	C149.569962,106.917740 149.118393,106.971596 148.329865,106.958817 
z"/>
<path fill="#181818" opacity="1.000000" stroke="none" 
	d="
M74.681107,108.636436 
	C74.175354,107.045601 74.093208,105.449326 74.008194,103.373306 
	C74.557068,102.426109 75.108803,101.958656 76.162605,101.248169 
	C77.428230,101.003059 78.191788,101.000984 78.955345,100.998917 
	C78.962769,104.194275 80.793518,108.309570 74.681107,108.636436 
z"/>
<path fill="#E5E5E5" opacity="1.000000" stroke="none" 
	d="
M42.053406,144.918381 
	C41.717819,145.611832 41.357044,145.939407 40.908134,146.499451 
	C40.819996,146.731934 40.776779,146.723221 40.503197,146.795227 
	C39.800941,147.202072 39.372276,147.536896 38.700966,147.890350 
	C38.458321,147.908981 37.972076,147.887604 37.798424,147.668549 
	C37.096893,147.362885 36.569012,147.276291 36.041134,147.189697 
	C35.994797,147.389633 35.948456,147.589554 35.902119,147.789474 
	C36.400620,147.931564 36.899120,148.073654 37.206528,148.494507 
	C36.503288,149.186676 35.991142,149.600082 35.478996,150.013489 
	C32.740932,148.244553 33.602589,146.536148 35.722752,145.119568 
	C37.565788,143.888123 39.591866,142.930649 41.812302,141.699493 
	C41.890816,142.736984 41.959515,143.644745 42.053406,144.918381 
z"/>
<path fill="#171717" opacity="1.000000" stroke="none" 
	d="
M37.972076,147.887604 
	C37.972076,147.887604 38.458321,147.908981 38.879532,148.140305 
	C39.792751,147.822159 40.284767,147.272690 40.776779,146.723221 
	C40.776779,146.723221 40.819996,146.731934 40.797707,146.727692 
	C41.846794,147.584167 42.918171,148.444901 44.009197,149.698669 
	C41.419468,152.139816 38.826401,154.430847 35.652046,150.328049 
	C35.991142,149.600082 36.503288,149.186676 37.381248,148.466919 
	C37.747055,148.160568 37.972076,147.887604 37.972076,147.887604 
z"/>
<path fill="#4D4D4D" opacity="1.000000" stroke="none" 
	d="
M150.834320,83.912460 
	C149.422974,85.147362 148.011627,86.382263 146.314667,87.727982 
	C146.091385,83.259583 149.026428,81.109741 153.158478,79.794113 
	C153.579956,80.710464 153.723450,81.569756 153.362640,82.741455 
	C152.183685,83.340057 151.509003,83.626259 150.834320,83.912460 
z"/>
<path fill="#171717" opacity="1.000000" stroke="none" 
	d="
M68.014587,17.604641 
	C64.562462,17.771454 61.123596,17.542557 57.331352,17.440384 
	C56.941051,16.802376 56.904133,16.037643 56.867214,15.272909 
	C60.587425,15.918250 64.307640,16.563589 68.014587,17.604641 
z"/>
<path fill="#040404" opacity="1.000000" stroke="none" 
	d="
M150.993164,59.061138 
	C150.994354,58.316662 150.995544,57.572186 151.002563,56.455490 
	C151.744995,57.752857 152.981964,59.381756 153.121643,61.099876 
	C153.497787,65.725891 153.405731,70.389984 153.102356,75.514603 
	C152.478043,75.989517 152.250870,75.988785 152.025055,75.521698 
	C151.681992,69.723946 151.337570,64.392540 150.993164,59.061138 
z"/>
<path fill="#1C1C1C" opacity="1.000000" stroke="none" 
	d="
M75.775101,91.321686 
	C76.654114,91.007721 77.426590,91.009262 78.585274,91.004761 
	C79.027527,92.718040 79.083572,94.437355 78.667633,96.574020 
	C77.423958,96.992126 76.652275,96.992897 75.880585,96.993660 
	C75.809906,95.208176 75.739235,93.422684 75.775101,91.321686 
z"/>
<path fill="#3D3D3D" opacity="1.000000" stroke="none" 
	d="
M111.000000,34.001827 
	C111.426544,33.994915 111.853096,33.987999 112.599854,33.981049 
	C112.725792,35.483501 112.531517,36.985981 112.041740,38.773415 
	C110.727234,39.378216 109.708229,39.698071 108.345657,40.010857 
	C108.002098,40.003784 107.966324,39.965500 107.966324,39.965500 
	C108.174240,38.107956 108.382156,36.250416 109.128105,34.191689 
	C110.110756,33.994278 110.555382,33.998055 111.000000,34.001827 
z"/>
<path fill="#171717" opacity="1.000000" stroke="none" 
	d="
M51.762741,68.276093 
	C53.875252,67.669212 55.772728,67.284988 58.115845,66.930244 
	C56.424068,68.353188 54.286652,69.746658 51.516891,71.051674 
	C50.598854,70.711113 50.313168,70.459007 50.027481,70.206909 
	C50.534222,69.637527 51.040966,69.068138 51.762741,68.276093 
z"/>
<path fill="#141414" opacity="1.000000" stroke="none" 
	d="
M75.788940,97.389267 
	C76.652275,96.992897 77.423958,96.992126 78.581345,96.996460 
	C79.019196,98.071106 79.071342,99.140671 79.039413,100.604568 
	C78.191788,101.000984 77.428230,101.003059 76.282761,101.003845 
	C75.833008,99.929993 75.765152,98.857430 75.788940,97.389267 
z"/>
<path fill="#1D1D1D" opacity="1.000000" stroke="none" 
	d="
M58.611031,173.105164 
	C59.390598,172.985382 59.860046,172.998779 60.681831,173.031540 
	C60.450130,174.167389 59.866085,175.283875 59.141060,176.700195 
	C59.000080,177.000000 58.987961,177.011963 58.987961,177.011963 
	C58.416870,176.982635 57.845783,176.953293 56.851212,176.855591 
	C57.052124,175.604248 57.676514,174.421295 58.611031,173.105164 
z"/>
<path fill="#171717" opacity="1.000000" stroke="none" 
	d="
M47.776863,63.374287 
	C49.548748,64.550125 51.133846,66.053581 52.337448,67.797272 
	C50.500664,66.592308 49.045368,65.147102 47.776863,63.374287 
z"/>
<path fill="#DADADA" opacity="1.000000" stroke="none" 
	d="
M90.189110,120.397110 
	C91.260887,120.404556 92.332664,120.411995 93.758453,120.610504 
	C94.202301,121.024109 94.199020,121.245262 94.070824,121.631088 
	C92.827568,121.727386 91.616112,121.657623 90.330322,121.216232 
	C90.255997,120.844612 90.189110,120.397110 90.189110,120.397110 
z"/>
<path fill="#171717" opacity="1.000000" stroke="none" 
	d="
M95.394577,160.020477 
	C95.824738,157.325562 97.180885,157.432907 98.929909,159.514481 
	C97.931549,159.933609 96.860809,160.019791 95.394577,160.020477 
z"/>
<path fill="#171717" opacity="1.000000" stroke="none" 
	d="
M100.990120,124.725082 
	C99.997322,124.604652 99.059891,124.208023 98.059967,123.485771 
	C99.013481,123.589729 100.029480,124.019302 100.990120,124.725082 
z"/>
<path fill="#E5E5E5" opacity="1.000000" stroke="none" 
	d="
M46.976940,141.847015 
	C46.984409,142.215302 46.961143,142.170563 46.985928,142.179413 
	C46.502819,141.205353 45.994923,140.222458 45.487026,139.239548 
	C45.927898,139.081680 46.368771,138.923813 46.809647,138.765945 
	C46.862919,139.670212 46.916195,140.574478 46.976940,141.847015 
z"/>
<path fill="#171717" opacity="1.000000" stroke="none" 
	d="
M51.564568,18.999817 
	C51.569111,20.370432 51.178947,21.784904 50.366928,23.085842 
	C50.353333,21.662762 50.761597,20.353218 51.564568,18.999817 
z"/>
<path fill="#171717" opacity="1.000000" stroke="none" 
	d="
M72.578720,139.889923 
	C72.950294,140.258545 72.971199,140.695526 72.998100,141.460556 
	C72.061302,141.568130 71.118507,141.347641 70.175720,141.127151 
	C70.197906,140.847824 70.220100,140.568497 70.242294,140.289169 
	C70.904221,140.178864 71.566139,140.068558 72.578720,139.889923 
z"/>
<path fill="#181818" opacity="1.000000" stroke="none" 
	d="
M67.583687,109.706848 
	C67.629410,108.699226 67.985542,107.726761 68.341675,106.754288 
	C68.554810,107.339027 68.767944,107.923767 68.983398,108.851608 
	C68.621841,109.377129 68.257965,109.559563 67.583687,109.706848 
z"/>
<path fill="#171717" opacity="1.000000" stroke="none" 
	d="
M99.181030,120.268829 
	C99.208435,119.597633 99.414818,119.052063 99.621201,118.506500 
	C100.050301,118.793503 100.479401,119.080505 100.950172,119.669380 
	C100.447899,120.112320 99.903946,120.253387 99.181030,120.268829 
z"/>
<path fill="#1D1D1D" opacity="1.000000" stroke="none" 
	d="
M46.707115,196.873779 
	C47.446121,196.428909 48.011436,196.327591 48.576756,196.226257 
	C48.312180,196.929779 48.047604,197.633286 47.783020,198.336792 
	C47.366489,197.963638 46.949959,197.590485 46.707115,196.873779 
z"/>
<path fill="#4D4D4D" opacity="1.000000" stroke="none" 
	d="
M152.023712,75.988045 
	C152.250870,75.988785 152.478043,75.989517 153.045746,75.977852 
	C153.511185,76.520180 153.636093,77.074905 153.601517,77.883064 
	C152.734070,77.839478 152.026123,77.542465 151.427963,76.843948 
	C151.637527,76.224442 151.799500,76.072975 152.023712,75.988045 
z"/>
<path fill="#1C1C1C" opacity="1.000000" stroke="none" 
	d="
M49.668564,70.278824 
	C50.313168,70.459007 50.598854,70.711113 51.154396,71.067459 
	C50.055271,71.535423 48.686287,71.899139 47.317303,72.262856 
	C47.228035,72.000488 47.138767,71.738121 47.049496,71.475746 
	C47.802879,71.100746 48.556267,70.725739 49.668564,70.278824 
z"/>
<path fill="#171717" opacity="1.000000" stroke="none" 
	d="
M55.662560,17.521580 
	C54.505100,18.621010 53.446911,19.239380 52.171440,19.409060 
	C53.223385,18.320419 54.492607,17.680470 55.662560,17.521580 
z"/>
<path fill="#171717" opacity="1.000000" stroke="none" 
	d="
M49.628315,22.647894 
	C49.352619,24.204033 48.746979,25.453171 47.800789,26.329489 
	C48.072948,24.751411 48.685658,23.546152 49.628315,22.647894 
z"/>
<path fill="#171717" opacity="1.000000" stroke="none" 
	d="
M77.776047,163.187347 
	C77.887383,163.642670 77.774757,164.285324 77.377319,164.964722 
	C77.245705,164.459198 77.398903,163.916946 77.776047,163.187347 
z"/>
<path fill="#181818" opacity="1.000000" stroke="none" 
	d="
M54.805328,110.155655 
	C55.008881,110.200607 55.014782,110.586967 55.003983,110.779861 
	C54.628117,110.955772 54.263050,110.938782 53.897987,110.921799 
	C54.132584,110.651436 54.367176,110.381073 54.805328,110.155655 
z"/>
<path fill="#0A0A0A" opacity="1.000000" stroke="none" 
	d="
M140.000305,106.000153 
	C140.613388,106.259010 141.226166,106.517723 142.004120,107.077972 
	C141.644165,107.582008 141.119003,107.784500 140.298065,107.603561 
	C140.001709,106.813515 140.001160,106.406914 140.000610,106.000305 
	C140.000610,106.000305 140.000000,106.000000 140.000305,106.000153 
z"/>
<path fill="#101010" opacity="1.000000" stroke="none" 
	d="
M139.692703,106.035751 
	C140.001160,106.406914 140.001709,106.813515 140.003723,107.525085 
	C139.559158,107.879433 139.113159,107.928825 138.335205,107.911804 
	C138.463760,107.253990 138.924286,106.662590 139.692703,106.035751 
z"/>
<path fill="#141414" opacity="1.000000" stroke="none" 
	d="
M49.057716,195.482742 
	C48.671871,194.600174 48.795937,193.530273 48.919998,192.460358 
	C49.407421,192.565018 49.894844,192.669662 50.382263,192.774323 
	C50.110718,193.614685 49.839169,194.455032 49.057716,195.482742 
z"/>
<path fill="#161616" opacity="1.000000" stroke="none" 
	d="
M146.771698,95.800247 
	C146.457703,95.525864 146.124527,95.288582 145.874008,94.983429 
	C145.828537,94.928032 146.121414,94.594856 146.258102,94.389915 
	C146.636932,94.690369 147.015778,94.990822 147.179535,95.630295 
	C146.964447,95.969307 146.780884,95.814056 146.771698,95.800247 
z"/>
<path fill="#171717" opacity="1.000000" stroke="none" 
	d="
M105.933151,7.072575 
	C106.551163,7.164571 106.938408,7.491911 107.458694,8.045664 
	C107.455261,8.441792 107.318779,8.611508 106.713394,8.896769 
	C105.910339,8.601440 105.576164,8.190566 105.241997,7.779693 
	C105.395462,7.622435 105.548935,7.465177 105.933151,7.072575 
z"/>
<path fill="#252525" opacity="1.000000" stroke="none" 
	d="
M66.882317,123.052338 
	C67.301414,123.049820 67.224304,123.052063 67.186874,123.042252 
	C67.383026,123.349617 67.616608,123.666786 67.850189,123.983955 
	C67.621727,124.111740 67.393265,124.239525 67.164803,124.367310 
	C66.930939,123.929825 66.697083,123.492332 66.882317,123.052338 
z"/>
<path fill="#161616" opacity="1.000000" stroke="none" 
	d="
M151.517059,83.891403 
	C151.509003,83.626259 152.183685,83.340057 153.245514,83.053589 
	C153.632660,83.053329 153.631180,83.430283 153.585175,83.515717 
	C153.092697,83.690880 152.646255,83.780609 151.517059,83.891403 
z"/>
<path fill="#161616" opacity="1.000000" stroke="none" 
	d="
M152.648132,86.029129 
	C152.455414,85.842201 152.251816,85.629021 152.048218,85.415840 
	C152.172226,85.445702 152.296249,85.475563 152.551361,85.744530 
	C152.682465,85.983635 152.637238,86.002876 152.648132,86.029129 
z"/>
<path fill="#0A0A0A" opacity="1.000000" stroke="none" 
	d="
M147.761292,101.662109 
	C148.031006,101.931808 148.021332,102.145950 148.007523,102.681641 
	C147.733994,102.789040 147.464600,102.574875 147.089142,102.121185 
	C147.149353,101.789955 147.315643,101.698257 147.761292,101.662109 
z"/>
<path fill="#0A0A0A" opacity="1.000000" stroke="none" 
	d="
M150.271942,106.909813 
	C150.118713,106.479187 150.338211,106.336777 150.800583,106.537888 
	C150.788254,106.744667 150.655319,106.850212 150.271942,106.909813 
z"/>
<path fill="#010101" opacity="1.000000" stroke="none" 
	d="
M78.706223,68.533585 
	C78.304482,68.422432 78.214775,68.161095 78.069595,67.489044 
	C78.348824,67.513344 78.683540,67.948380 78.706223,68.533585 
z"/>
<path fill="#1D1D1D" opacity="1.000000" stroke="none" 
	d="
M69.255333,125.610306 
	C69.095367,125.963181 68.827377,125.958649 68.158234,125.927376 
	C68.220490,125.684731 68.683899,125.468819 69.255333,125.610306 
z"/>
<path fill="#1C1C1C" opacity="1.000000" stroke="none" 
	d="
M46.506516,73.506836 
	C46.487259,73.506950 46.525772,73.506729 46.506516,73.506836 
z"/>
<path fill="#171717" opacity="1.000000" stroke="none" 
	d="
M58.938431,67.447922 
	C58.849396,66.684486 59.274010,66.330101 60.137486,65.957748 
	C60.201588,66.578835 59.826832,67.217903 58.938431,67.447922 
z"/>
<path fill="#E5E5E5" opacity="1.000000" stroke="none" 
	d="
M113.620453,102.083160 
	C119.717430,101.290062 125.433250,100.647949 131.829102,99.960876 
	C132.683502,99.940109 132.857910,99.964302 133.032303,99.988503 
	C134.069855,102.757431 132.396332,103.385063 130.179794,103.673683 
	C121.880478,104.754288 113.590889,105.911819 105.285713,106.944504 
	C101.090538,107.466141 96.873405,107.829338 92.657570,108.151138 
	C91.819771,108.215096 90.942680,107.764221 90.004707,106.480209 
	C93.086861,105.549042 96.169014,104.617882 99.655472,103.741348 
	C101.741821,103.620872 103.423851,103.445755 105.105888,103.270645 
	C107.817032,102.925148 110.528168,102.579651 113.620453,102.083160 
z"/>
<path fill="#FCFCFC" opacity="1.000000" stroke="none" 
	d="
M71.970299,158.330750 
	C69.167816,158.137085 66.365334,157.943420 63.562855,157.749756 
	C63.520329,157.349625 63.477802,156.949493 63.435280,156.549347 
	C66.430817,156.371368 69.424416,156.136551 72.422531,156.034164 
	C74.644852,155.958282 76.257111,155.746704 78.059555,153.617203 
	C81.571869,149.467590 82.386139,154.282883 85.259453,156.910080 
	C81.154243,158.137268 78.027786,159.071869 74.418350,159.638916 
	C73.280357,158.957825 72.625328,158.644287 71.970299,158.330750 
z"/>
<path fill="#040404" opacity="1.000000" stroke="none" 
	d="
M79.819244,138.602356 
	C80.210320,137.486679 80.882156,135.289352 81.645485,135.257095 
	C85.729774,135.084503 89.836891,135.452133 93.873695,136.712448 
	C89.296532,137.314926 84.719376,137.917404 79.819244,138.602356 
z"/>
<path fill="#101010" opacity="1.000000" stroke="none" 
	d="
M104.954926,102.942390 
	C103.423851,103.445755 101.741821,103.620872 99.878494,103.461365 
	C101.299248,101.957550 102.779030,99.570251 104.954926,102.942390 
z"/>
<path fill="#252525" opacity="1.000000" stroke="none" 
	d="
M71.910255,158.644196 
	C72.625328,158.644287 73.280357,158.957825 73.982216,159.588135 
	C73.260132,160.603912 72.491211,161.302902 71.358826,161.998611 
	C70.995346,161.995316 71.000000,162.000000 71.002205,162.002258 
	C71.286346,160.988892 71.568283,159.973267 71.910255,158.644196 
z"/>
<path fill="#171717" opacity="1.000000" stroke="none" 
	d="
M133.287643,99.883636 
	C132.857910,99.964302 132.683502,99.940109 132.250397,99.862869 
	C131.997116,99.434418 132.002533,99.059006 132.249649,98.303589 
	C132.617172,97.633263 132.742996,97.342964 132.868820,97.052666 
	C133.548050,97.481529 134.227280,97.910393 134.953247,98.669624 
	C134.514328,99.259590 134.028656,99.519180 133.287643,99.883636 
z"/>
<path fill="#171717" opacity="1.000000" stroke="none" 
	d="
M80.306641,130.501038 
	C79.954651,129.723984 79.863434,129.081390 79.772209,128.438797 
	C80.304001,128.659622 80.835785,128.880447 81.367577,129.101257 
	C81.100853,129.612671 80.834129,130.124100 80.306641,130.501038 
z"/>
<path fill="#171717" opacity="1.000000" stroke="none" 
	d="
M87.391235,102.467880 
	C87.188530,102.964256 86.791672,103.262245 86.394821,103.560226 
	C86.203026,103.179756 86.011238,102.799271 85.819450,102.418793 
	C86.278664,102.369026 86.737869,102.319260 87.391235,102.467880 
z"/>
<path fill="#1D1D1D" opacity="1.000000" stroke="none" 
	d="
M59.006329,176.994171 
	C59.532963,177.546371 60.053349,178.104401 60.573738,178.662430 
	C60.206219,178.893738 59.838703,179.125046 59.471191,179.356354 
	C59.313332,178.784866 59.155472,178.213364 58.992786,177.326920 
	C58.987961,177.011963 59.000080,177.000000 59.006329,176.994171 
z"/>
<path fill="#171717" opacity="1.000000" stroke="none" 
	d="
M98.045593,115.399605 
	C98.285294,115.792770 98.283493,116.183769 98.253532,116.572594 
	C98.252708,116.583359 97.949692,116.570839 97.787590,116.569176 
	C97.791794,116.178497 97.795998,115.787811 98.045593,115.399605 
z"/>
<path fill="#171717" opacity="1.000000" stroke="none" 
	d="
M103.004883,151.004517 
	C102.701347,151.511566 102.397812,152.018616 102.094269,152.525665 
	C101.885635,152.344910 101.677017,152.164139 101.468384,151.983383 
	C101.788788,151.678238 102.109192,151.373093 102.714798,151.033981 
	C103.000000,151.000000 103.004883,151.004517 103.004883,151.004517 
z"/>
<path fill="#171717" opacity="1.000000" stroke="none" 
	d="
M83.045464,170.399734 
	C83.285110,170.792725 83.283302,171.183655 83.253151,171.572403 
	C83.252304,171.583405 82.949272,171.570969 82.787140,171.569458 
	C82.791443,171.178772 82.795738,170.788071 83.045464,170.399734 
z"/>
<path fill="#171717" opacity="1.000000" stroke="none" 
	d="
M102.997734,150.997559 
	C103.298927,150.488342 103.602386,149.981567 103.905846,149.474792 
	C104.114288,149.655457 104.322731,149.836136 104.531158,150.016785 
	C104.210800,150.321533 103.890442,150.626282 103.287483,150.967773 
	C103.004883,151.004517 103.000000,151.000000 102.997734,150.997559 
z"/>
<path fill="#1D1D1D" opacity="1.000000" stroke="none" 
	d="
M63.334846,172.858063 
	C63.507191,172.346100 63.945389,171.740494 64.689293,171.087708 
	C64.530235,171.615158 64.065468,172.189804 63.334846,172.858063 
z"/>
<path fill="#FCFCFC" opacity="1.000000" stroke="none" 
	d="
M56.580414,184.307663 
	C56.980068,183.790558 57.326771,183.690338 57.673477,183.590118 
	C57.668629,183.982635 57.663780,184.375137 57.658932,184.767654 
	C57.281776,184.753281 56.904621,184.738907 56.580414,184.307663 
z"/>
<path fill="#FCFCFC" opacity="1.000000" stroke="none" 
	d="
M55.269363,187.053085 
	C55.526588,186.242767 55.961571,185.907455 56.396553,185.572144 
	C56.533955,185.797119 56.835011,186.164429 56.782776,186.224472 
	C56.375877,186.692337 55.901005,187.101089 55.269363,187.053085 
z"/>
<path fill="#171717" opacity="1.000000" stroke="none" 
	d="
M109.255875,91.998718 
	C109.006523,91.557083 109.004189,91.115082 109.004456,90.341820 
	C109.322990,90.475998 109.638924,90.941437 109.975906,91.702377 
	C109.996948,91.997864 109.502899,91.998344 109.255875,91.998718 
z"/>
<path fill="#1D1D1D" opacity="1.000000" stroke="none" 
	d="
M114.120041,95.226997 
	C114.333992,95.110794 114.593002,95.298683 114.897163,95.791306 
	C114.685066,95.905022 114.425995,95.716698 114.120041,95.226997 
z"/>
<path fill="#171717" opacity="1.000000" stroke="none" 
	d="
M89.451004,185.531479 
	C89.419304,185.477646 89.482697,185.585312 89.451004,185.531479 
z"/>
<path fill="#171717" opacity="1.000000" stroke="none" 
	d="
M97.532242,156.549683 
	C97.477692,156.582077 97.586784,156.517273 97.532242,156.549683 
z"/>
<path fill="#898989" opacity="1.000000" stroke="none" 
	d="
M89.945374,120.290337 
	C90.189110,120.397110 90.255997,120.844612 90.063538,120.964478 
	C89.814590,120.784081 89.758110,120.483826 89.945374,120.290337 
z"/>
<path fill="#171717" opacity="1.000000" stroke="none" 
	d="
M82.468750,148.451263 
	C82.523155,148.419144 82.414345,148.483368 82.468750,148.451263 
z"/>
<path fill="#171717" opacity="1.000000" stroke="none" 
	d="
M96.452606,140.530151 
	C96.421135,140.476593 96.484070,140.583725 96.452606,140.530151 
z"/>
<path fill="#171717" opacity="1.000000" stroke="none" 
	d="
M94.451385,140.531128 
	C94.419846,140.477432 94.482925,140.584839 94.451385,140.531128 
z"/>
<path fill="#F1F1F1" opacity="1.000000" stroke="none" 
	d="
M77.510345,15.729263 
	C78.877998,13.399862 79.818092,11.208797 81.273064,9.441669 
	C86.347145,3.278996 93.104576,4.664649 96.105637,12.153227 
	C101.000427,24.367304 100.446159,36.440636 95.625336,48.470558 
	C92.995811,55.032295 87.790657,57.999924 81.754471,55.864216 
	C80.051880,55.261814 78.642403,52.899784 77.771759,51.031128 
	C72.807274,40.375805 72.861725,29.451771 76.528633,18.427174 
	C76.790985,17.638422 77.055412,16.850363 77.510345,15.729263 
M92.398560,45.783783 
	C96.267067,37.959183 96.560547,29.863241 93.941956,21.665083 
	C92.792030,18.064970 91.501587,17.324533 88.641663,17.400993 
	C94.787781,27.937216 93.859634,38.205669 86.704285,48.254726 
	C87.089905,48.584961 87.475525,48.915192 87.861145,49.245426 
	C89.261902,48.319889 90.662659,47.394352 92.398560,45.783783 
M87.141396,23.385256 
	C85.810822,23.593645 84.480247,23.802034 82.599602,24.096573 
	C87.980995,27.656519 88.360245,33.100277 84.639160,39.438679 
	C86.325607,39.089527 88.302017,38.432652 88.820122,37.175014 
	C90.669724,32.685234 90.602158,28.122515 87.141396,23.385256 
z"/>
<path fill="#DEDEDE" opacity="1.000000" stroke="none" 
	d="
M104.912186,7.586210 
	C105.576164,8.190566 105.910339,8.601440 106.482857,9.128223 
	C110.142624,16.098763 111.531319,23.360210 110.801727,31.495478 
	C110.529900,31.999754 110.088303,31.963390 110.088303,31.963390 
	C109.064789,26.790329 108.198631,21.579487 106.968544,16.456022 
	C105.964119,12.272445 103.602318,9.156507 98.990906,8.267708 
	C97.982750,8.073399 97.094902,7.254887 96.398224,6.041917 
	C99.126274,6.492188 101.854324,6.942458 104.912186,7.586210 
z"/>
<path fill="#1C1C1C" opacity="1.000000" stroke="none" 
	d="
M66.172577,54.950104 
	C64.605621,54.984310 63.369450,54.984310 62.133282,54.984310 
	C62.122761,54.682949 62.112244,54.381584 62.101723,54.080223 
	C63.528988,54.080223 64.956322,54.074097 66.383400,54.090416 
	C66.515099,54.091919 66.764999,54.259838 66.755104,54.310314 
	C66.713890,54.520546 66.594254,54.715401 66.172577,54.950104 
z"/>
<path fill="#1C1C1C" opacity="1.000000" stroke="none" 
	d="
M64.944168,56.189045 
	C65.228279,57.215065 65.228279,58.158710 65.228279,59.102356 
	C64.812042,59.073418 64.395798,59.044479 63.979557,59.015541 
	C64.206390,58.045918 64.433220,57.076294 64.944168,56.189045 
z"/>
<path fill="#181818" opacity="1.000000" stroke="none" 
	d="
M74.382187,51.241596 
	C74.149345,50.387131 74.099083,49.759827 74.048813,49.132523 
	C74.359528,49.143658 74.670250,49.154793 74.980965,49.165932 
	C74.842232,49.933540 74.703506,50.701149 74.382187,51.241596 
z"/>
<path fill="#101010" opacity="1.000000" stroke="none" 
	d="
M103.362244,71.230270 
	C103.088036,71.961876 102.356560,72.604630 101.373215,73.393921 
	C101.715889,72.740784 102.310432,71.941101 103.362244,71.230270 
z"/>
<path fill="#0A0A0A" opacity="1.000000" stroke="none" 
	d="
M63.839439,44.043472 
	C63.839439,44.043472 64.018044,44.421005 64.045074,44.628075 
	C63.512939,45.516682 62.953777,46.198219 62.027985,46.883797 
	C62.057629,46.138451 62.453907,45.389053 63.172737,44.341892 
	C63.495293,44.044128 63.839439,44.043472 63.839439,44.043472 
z"/>
<path fill="#3D3D3D" opacity="1.000000" stroke="none" 
	d="
M105.104309,42.111191 
	C104.739769,42.898754 104.375229,43.686317 104.010689,44.473885 
	C103.690247,44.321056 103.369812,44.168232 103.049370,44.015408 
	C103.466675,43.357380 103.883980,42.699356 104.658295,42.029091 
	C105.015305,42.016853 105.104317,42.111195 105.104309,42.111191 
z"/>
<path fill="#3D3D3D" opacity="1.000000" stroke="none" 
	d="
M108.018585,40.024147 
	C107.266739,40.709408 106.498413,41.374302 105.417206,42.075195 
	C105.104317,42.111195 105.015305,42.016853 104.969040,41.969460 
	C105.703423,41.276981 106.484077,40.631901 107.615524,39.976158 
	C107.966324,39.965500 108.002098,40.003784 108.018585,40.024147 
z"/>
<path fill="#1C1C1C" opacity="1.000000" stroke="none" 
	d="
M67.042915,50.239731 
	C67.479462,50.094299 67.932259,50.261288 68.680832,50.182438 
	C68.753258,50.478897 68.529900,51.021194 68.306541,51.563492 
	C67.890747,51.226379 67.474953,50.889263 67.042915,50.239731 
z"/>
<path fill="#171717" opacity="1.000000" stroke="none" 
	d="
M109.833778,32.125198 
	C110.088303,31.963390 110.529900,31.999754 110.744995,31.946699 
	C110.971458,32.362072 110.982819,32.830502 110.997086,33.650375 
	C110.555382,33.998055 110.110756,33.994278 109.333298,33.969852 
	C109.193390,33.395134 109.386322,32.841068 109.833778,32.125198 
z"/>
<path fill="#010101" opacity="1.000000" stroke="none" 
	d="
M113.916016,64.038292 
	C114.342445,64.138565 114.532722,64.347336 114.723000,64.556114 
	C114.343292,64.695297 113.963593,64.834473 113.283081,64.939468 
	C113.214806,64.652451 113.447334,64.399628 113.916016,64.038292 
z"/>
<path fill="#1C1C1C" opacity="1.000000" stroke="none" 
	d="
M66.400154,59.724403 
	C66.558487,59.850140 66.581184,60.067528 66.603889,60.284920 
	C66.490768,60.128632 66.377647,59.972347 66.400154,59.724403 
z"/>
<path fill="#252525" opacity="1.000000" stroke="none" 
	d="
M57.142284,41.377541 
	C56.451370,39.716476 55.853943,38.467823 54.867119,36.405327 
	C56.170818,36.538071 58.037872,36.519291 58.072788,36.763008 
	C58.611351,40.522072 59.131809,44.316444 59.111317,48.099670 
	C59.106255,49.034328 57.163898,49.958485 55.623795,51.318752 
	C56.305904,47.286629 56.770836,44.538292 57.142284,41.377541 
z"/>
<path fill="#3D3D3D" opacity="1.000000" stroke="none" 
	d="
M63.991772,43.669327 
	C63.839439,44.043472 63.495293,44.044128 63.323223,44.042633 
	C61.899696,40.092278 60.648239,36.143414 59.412857,32.245285 
	C63.684319,32.944874 66.041283,38.320347 63.991772,43.669327 
z"/>
<path fill="#DADADA" opacity="1.000000" stroke="none" 
	d="
M152.025055,75.521698 
	C151.799500,76.072975 151.637527,76.224442 151.403839,76.546249 
	C150.450455,72.795341 149.630966,68.940628 148.720398,64.657379 
	C145.435593,65.103859 142.304077,65.529495 138.377625,66.063187 
	C141.597412,61.839085 146.551956,61.538811 150.672684,59.219429 
	C151.337570,64.392540 151.681992,69.723946 152.025055,75.521698 
z"/>
<path fill="#1D1D1D" opacity="1.000000" stroke="none" 
	d="
M144.010834,67.754654 
	C143.902328,67.590240 143.955734,67.423988 144.009155,67.257729 
	C144.063690,67.422752 144.118225,67.587784 144.010834,67.754654 
z"/>
<path fill="#101010" opacity="1.000000" stroke="none" 
	d="
M132.466827,90.450943 
	C132.521484,90.418549 132.412155,90.483337 132.466827,90.450943 
z"/>
<path fill="#1D1D1D" opacity="1.000000" stroke="none" 
	d="
M137.532425,73.550720 
	C137.478012,73.583191 137.586838,73.518250 137.532425,73.550720 
z"/>
<path fill="#F1F1F1" opacity="1.000000" stroke="none" 
	d="
M132.515747,97.003456 
	C132.742996,97.342964 132.617172,97.633263 132.243683,98.022057 
	C127.683311,98.694740 123.379311,99.371017 119.049110,99.739410 
	C118.353592,99.798592 117.541122,98.483116 116.772659,97.150711 
	C116.762611,96.498299 116.573853,96.046478 116.573853,96.046478 
	C116.633308,95.286232 116.692764,94.525978 116.741287,93.093445 
	C116.807228,92.221397 116.884117,92.021652 116.960999,91.821915 
	C117.715187,91.845482 118.469376,91.869057 119.868919,92.128021 
	C121.578514,92.792580 122.642761,93.221733 123.707001,93.650887 
	C126.525566,94.752007 129.344131,95.853127 132.515747,97.003456 
z"/>
<path fill="#1D1D1D" opacity="1.000000" stroke="none" 
	d="
M114.007965,73.337402 
	C121.459671,69.981407 125.491898,69.750343 128.969223,73.208702 
	C123.737663,74.292969 119.296799,75.213356 114.431061,76.098877 
	C114.007874,75.284973 114.009560,74.505959 114.007965,73.337402 
z"/>
<path fill="#1D1D1D" opacity="1.000000" stroke="none" 
	d="
M108.015358,86.052582 
	C108.197311,83.959915 108.379265,81.867241 108.720848,79.351837 
	C114.046379,81.361938 114.280724,84.131325 109.193634,87.644745 
	C108.510887,87.030296 108.263123,86.541443 108.015358,86.052582 
z"/>
<path fill="#1D1D1D" opacity="1.000000" stroke="none" 
	d="
M123.777168,93.230057 
	C122.642761,93.221733 121.578514,92.792580 120.253853,92.132828 
	C121.766548,89.956200 123.539658,88.010178 125.656387,86.032074 
	C126.000000,86.000000 126.000435,86.000305 126.000427,86.000305 
	C125.282730,88.269943 124.565033,90.539581 123.777168,93.230057 
z"/>
<path fill="#1D1D1D" opacity="1.000000" stroke="none" 
	d="
M116.920891,91.483620 
	C116.884117,92.021652 116.807228,92.221397 116.631470,92.726593 
	C115.731346,92.392677 114.930099,91.753326 114.128853,91.113976 
	C115.046165,91.124420 115.963470,91.134872 116.920891,91.483620 
z"/>
<path fill="#010101" opacity="1.000000" stroke="none" 
	d="
M107.796555,86.009689 
	C108.263123,86.541443 108.510887,87.030296 108.866928,87.773880 
	C108.982948,88.463631 108.990692,88.898659 108.994186,89.659950 
	C108.007683,88.929924 107.025421,87.873642 106.312714,86.410126 
	C106.767708,85.965065 106.953140,85.927238 107.138580,85.889404 
	C107.138580,85.889404 107.577744,85.966797 107.796555,86.009689 
z"/>
<path fill="#1D1D1D" opacity="1.000000" stroke="none" 
	d="
M115.592484,80.340286 
	C115.858070,81.107658 115.855988,81.759819 115.853905,82.411980 
	C115.436211,82.257515 115.018509,82.103058 114.600815,81.948601 
	C114.842140,81.374092 115.083466,80.799576 115.592484,80.340286 
z"/>
<path fill="#161616" opacity="1.000000" stroke="none" 
	d="
M129.011642,93.748566 
	C128.904099,93.585823 128.956924,93.421951 129.009735,93.258080 
	C129.063828,93.421196 129.117920,93.584312 129.011642,93.748566 
z"/>
<path fill="#1D1D1D" opacity="1.000000" stroke="none" 
	d="
M125.999695,85.999695 
	C126.119057,85.571091 126.238716,85.142784 126.358383,84.714485 
	C126.374886,85.061531 126.391388,85.408585 126.204163,85.877968 
	C126.000435,86.000305 126.000000,86.000000 125.999695,85.999695 
z"/>
<path fill="#141414" opacity="1.000000" stroke="none" 
	d="
M116.463081,96.141762 
	C116.573853,96.046478 116.762611,96.498299 116.679932,96.728752 
	C116.297127,96.780998 116.215477,96.540283 116.463081,96.141762 
z"/>
<path fill="#1D1D1D" opacity="1.000000" stroke="none" 
	d="
M108.478889,74.899109 
	C108.315987,74.989922 108.160660,74.514801 108.160660,74.514801 
	C108.160660,74.514801 108.500809,74.148506 108.750626,74.156342 
	C108.947464,74.415955 108.827911,74.630661 108.478889,74.899109 
z"/>
<path fill="#1D1D1D" opacity="1.000000" stroke="none" 
	d="
M117.470337,66.467270 
	C120.582123,65.244003 123.372581,64.239601 126.163040,63.235203 
	C126.344231,63.745060 126.525429,64.254913 126.706619,64.764771 
	C122.946938,68.031425 118.373650,68.912331 113.297859,68.416748 
	C114.581581,67.839882 115.865295,67.263016 117.470337,66.467270 
z"/>
<path fill="#4D4D4D" opacity="1.000000" stroke="none" 
	d="
M107.091507,85.647514 
	C106.953140,85.927238 106.767708,85.965065 106.306961,86.072662 
	C105.865540,86.113411 105.699448,86.084404 105.273911,85.795349 
	C105.014473,85.535309 104.961456,85.082397 104.865906,84.834351 
	C104.485733,84.385864 104.201111,84.185425 103.989899,83.738876 
	C103.983292,82.951042 103.903282,82.409309 103.815498,81.637604 
	C103.807724,81.407623 103.830559,80.947975 103.830559,80.947975 
	C104.029503,80.909920 104.228447,80.871864 104.979065,80.704300 
	C105.708389,80.620316 105.886047,80.665863 106.063705,80.711403 
	C106.326157,80.989113 106.588608,81.266823 106.614914,82.024887 
	C106.548309,83.316315 106.717850,84.127396 106.887375,84.938484 
	C106.887375,84.938484 107.044441,85.405624 107.091507,85.647514 
z"/>
<path fill="#171717" opacity="1.000000" stroke="none" 
	d="
M100.485168,73.868149 
	C99.721092,74.551819 98.932251,75.178123 98.143402,75.804436 
	C97.972420,75.467186 97.801430,75.129944 97.630447,74.792702 
	C98.343147,74.536644 99.055855,74.280586 100.108521,73.855453 
	C100.448479,73.686371 100.460403,73.810776 100.485168,73.868149 
z"/>
<path fill="#E5E5E5" opacity="1.000000" stroke="none" 
	d="
M106.170944,80.498917 
	C105.886047,80.665863 105.708389,80.620316 105.255661,80.578598 
	C105.318138,80.118484 105.655693,79.654556 105.993256,79.190628 
	C106.088234,79.555893 106.183212,79.921158 106.170944,80.498917 
z"/>
<path fill="#0A0A0A" opacity="1.000000" stroke="none" 
	d="
M106.951935,84.587631 
	C106.717850,84.127396 106.548309,83.316315 106.587646,82.311111 
	C106.869843,82.823586 106.943161,83.530182 106.951935,84.587631 
z"/>
<path fill="#E5E5E5" opacity="1.000000" stroke="none" 
	d="
M103.688141,80.953079 
	C103.830559,80.947975 103.807724,81.407623 103.642372,81.706573 
	C103.477020,82.005516 103.106583,81.964294 103.106583,81.964294 
	C103.106049,81.789299 103.105515,81.614311 103.183189,81.188744 
	C103.261398,80.938171 103.545715,80.958176 103.688141,80.953079 
z"/>
<path fill="#DEDEDE" opacity="1.000000" stroke="none" 
	d="
M95.147270,81.189621 
	C95.740822,81.694847 96.900246,82.282150 96.840706,82.692627 
	C96.221703,86.959869 98.891312,88.863480 102.420517,90.389503 
	C95.885941,91.500793 93.040764,88.083206 95.008118,81.453911 
	C95.048500,81.048004 95.147270,81.189621 95.147270,81.189621 
z"/>
<path fill="#171717" opacity="1.000000" stroke="none" 
	d="
M102.755585,81.977760 
	C103.106583,81.964294 103.477020,82.005516 103.650146,81.936554 
	C103.903282,82.409309 103.983292,82.951042 103.792206,83.835121 
	C103.276604,84.371277 103.139297,84.623459 102.758270,84.952538 
	C101.939056,84.983559 101.470741,84.996071 101.002434,85.008575 
	C101.000977,84.563179 100.999519,84.117775 100.998688,83.090034 
	C100.999321,82.507690 100.999741,82.011215 100.999741,82.011215 
	C101.468025,82.004555 101.936302,81.997887 102.755585,81.977760 
z"/>
<path fill="#161616" opacity="1.000000" stroke="none" 
	d="
M95.119736,81.096817 
	C94.244972,80.704552 93.298973,80.263481 92.352974,79.822403 
	C92.631210,79.446167 92.909447,79.069931 93.187691,78.693703 
	C93.797661,79.304619 94.407639,79.915543 95.082443,80.858040 
	C95.147270,81.189621 95.048500,81.048004 95.119736,81.096817 
z"/>
<path fill="#171717" opacity="1.000000" stroke="none" 
	d="
M100.829750,81.777641 
	C100.999741,82.011215 100.999321,82.507690 100.998642,82.755981 
	C100.233025,82.943054 99.468071,82.881828 98.703125,82.820610 
	C98.661880,82.581512 98.620636,82.342415 98.579391,82.103317 
	C99.272842,81.916901 99.966301,81.730484 100.829750,81.777641 
z"/>
<path fill="#0A0A0A" opacity="1.000000" stroke="none" 
	d="
M101.237686,85.279404 
	C101.470741,84.996071 101.939056,84.983559 103.066956,84.967613 
	C104.138184,85.003578 104.549820,85.042992 104.961456,85.082397 
	C104.961456,85.082397 105.014473,85.535309 105.023064,85.763107 
	C103.845413,85.844017 102.659180,85.697121 101.237686,85.279404 
z"/>
<path fill="#171717" opacity="1.000000" stroke="none" 
	d="
M96.450348,78.530685 
	C96.417450,78.475052 96.483238,78.586319 96.450348,78.530685 
z"/>
<path fill="#181818" opacity="1.000000" stroke="none" 
	d="
M59.322285,110.416977 
	C59.066204,110.298607 58.840824,110.111855 58.615440,109.925102 
	C58.815495,109.921478 59.015549,109.917854 59.352394,110.100121 
	C59.489189,110.286011 59.352985,110.348602 59.322285,110.416977 
z"/>
<path fill="#141414" opacity="1.000000" stroke="none" 
	d="
M40.503197,146.795227 
	C40.284767,147.272690 39.792751,147.822159 39.122177,148.121674 
	C39.372276,147.536896 39.800941,147.202072 40.503197,146.795227 
z"/>
<path fill="#FCFCFC" opacity="1.000000" stroke="none" 
	d="
M37.798424,147.668549 
	C37.972076,147.887604 37.747055,148.160568 37.572338,148.188156 
	C36.899120,148.073654 36.400620,147.931564 35.902119,147.789474 
	C35.948456,147.589554 35.994797,147.389633 36.041134,147.189697 
	C36.569012,147.276291 37.096893,147.362885 37.798424,147.668549 
z"/>
<path fill="#1C1C1C" opacity="1.000000" stroke="none" 
	d="
M92.230988,46.126297 
	C90.662659,47.394352 89.261902,48.319889 87.861145,49.245426 
	C87.475525,48.915192 87.089905,48.584961 86.704285,48.254726 
	C93.859634,38.205669 94.787781,27.937216 88.641663,17.400993 
	C91.501587,17.324533 92.792030,18.064970 93.941956,21.665083 
	C96.560547,29.863241 96.267067,37.959183 92.230988,46.126297 
z"/>
<path fill="#101010" opacity="1.000000" stroke="none" 
	d="
M87.427597,23.649746 
	C90.602158,28.122515 90.669724,32.685234 88.820122,37.175014 
	C88.302017,38.432652 86.325607,39.089527 84.639160,39.438679 
	C88.360245,33.100277 87.980995,27.656519 82.599602,24.096573 
	C84.480247,23.802034 85.810822,23.593645 87.427597,23.649746 
z"/>
<path fill="#3D3D3D" opacity="1.000000" stroke="none" 
	d="
M104.865906,84.834358 
	C104.549820,85.042992 104.138184,85.003578 103.417862,84.949097 
	C103.139297,84.623459 103.276604,84.371277 103.718796,84.081223 
	C104.201111,84.185425 104.485733,84.385864 104.865906,84.834358 
z"/>
</svg>