<svg version="1.1" id="Layer_1" xmlns="http://www.w3.org/2000/svg" xmlns:xlink="http://www.w3.org/1999/xlink" x="0px" y="0px"
	 width="100%" viewBox="0 0 816 928" enable-background="new 0 0 816 928" xml:space="preserve">
<path fill="#000000" opacity="1.000000" stroke="none" 
	d="
M75.530548,453.644501 
	C80.675751,444.536163 82.695045,435.062469 82.745804,425.040131 
	C82.770454,420.171844 83.962532,415.494812 86.182396,411.099457 
	C87.755867,407.984039 89.429207,404.895721 89.923927,401.349579 
	C90.250420,399.009277 91.954956,397.663177 93.643730,396.244720 
	C102.572563,388.745239 112.484604,382.260468 120.244896,373.565765 
	C128.993439,363.763885 137.765854,354.341675 149.405853,347.791290 
	C154.731232,344.794434 159.129303,340.221863 163.354462,335.715973 
	C171.762085,326.749725 182.079300,324.393982 193.910843,326.109924 
	C202.133179,327.302399 210.433899,328.048706 218.724487,328.652496 
	C229.062897,329.405518 239.358246,328.783112 249.510498,326.535339 
	C251.856506,326.015900 254.152695,326.112793 256.425934,326.758301 
	C260.560181,327.932373 262.901611,330.140778 262.504852,335.016205 
	C261.823914,343.384430 258.838684,350.019592 250.996872,354.000000 
	C247.144836,346.622131 247.069733,346.666656 238.885437,347.996826 
	C232.982666,348.956238 227.143661,350.340668 221.079849,350.280121 
	C216.880844,350.238159 213.615555,348.996948 211.524384,345.187592 
	C209.905670,342.238861 207.479218,340.704254 204.029205,340.075500 
	C187.883499,337.132965 174.026459,341.549408 162.217667,352.679993 
	C157.126343,357.478943 152.166687,362.432037 147.367157,367.522491 
	C141.464233,373.783173 134.475708,378.517303 127.208649,382.981903 
	C125.094246,384.280945 121.721565,385.797974 122.763428,388.824188 
	C123.803535,391.845367 127.389366,392.013245 130.163544,391.489960 
	C139.119049,389.800690 147.695282,392.676880 156.448654,393.303833 
	C162.746429,393.754913 168.887192,392.999451 172.516266,387.427734 
	C181.372025,373.831512 195.040955,369.367767 209.798416,366.831116 
	C221.455978,364.827301 233.205688,363.326965 243.808090,357.492828 
	C246.067261,356.249664 248.257751,356.372437 248.514511,359.540741 
	C248.767715,362.665192 250.644760,362.813843 252.998520,362.717346 
	C259.986633,362.430908 266.979797,361.916626 273.965576,361.992004 
	C293.955841,362.207886 313.940765,363.106018 333.935730,362.597778 
	C339.869537,362.446930 345.791229,361.818512 352.861877,361.329865 
	C348.562164,353.010803 338.142944,349.731934 338.639465,339.473053 
	C333.983765,345.686462 338.708069,353.735199 333.673981,360.278992 
	C329.307251,354.671661 328.574707,348.351959 328.076447,342.227325 
	C327.477234,334.862213 328.783813,327.562469 332.048584,320.852875 
	C337.022522,310.630798 344.300659,308.331635 354.257568,313.495514 
	C354.953094,313.856201 355.760406,314.001312 356.744232,314.320892 
	C357.793335,311.534576 356.642883,309.194763 356.139648,306.884338 
	C353.344177,294.050629 347.986450,281.604919 347.647003,268.464294 
	C347.339508,256.559540 345.510162,245.008408 343.654663,233.376205 
	C343.288055,231.077972 343.101868,228.689590 342.318481,226.529175 
	C337.260956,212.581436 339.820984,200.094803 349.262512,188.866806 
	C353.058746,184.352325 353.356628,179.077515 352.271088,173.728577 
	C350.750427,166.235657 352.781921,159.900375 356.449432,153.305725 
	C365.608551,136.836639 377.507416,122.131516 386.490784,105.572479 
	C390.037750,99.034393 395.007568,93.694618 401.295502,89.601341 
	C404.083862,87.786194 406.816101,85.831017 408.698700,82.976746 
	C409.811401,81.289757 411.427979,80.746353 413.360107,80.535988 
	C424.170166,79.359024 433.319763,74.552513 441.569000,67.673050 
	C450.077087,60.577759 460.151215,56.726776 470.744965,54.026695 
	C475.968536,52.695339 480.476196,50.121426 484.961395,47.053566 
	C491.473145,42.599529 499.538513,42.976166 507.039124,41.695278 
	C527.826172,38.145454 547.747192,43.276108 567.715942,47.779621 
	C581.106384,50.799519 594.617981,52.269913 608.347107,51.718002 
	C613.516785,51.510174 618.662476,51.831017 623.779053,52.704067 
	C628.168701,53.453083 632.090576,54.965061 635.146179,58.393429 
	C638.654297,62.329407 643.439331,64.496170 647.813416,67.213509 
	C657.190857,73.039154 666.090637,79.427147 673.470886,87.761230 
	C676.976318,91.719696 681.967468,93.552696 686.532104,95.804260 
	C689.248840,97.144310 690.593689,98.778870 691.367065,101.518890 
	C693.897705,110.484772 696.578369,119.408424 699.223206,128.341827 
	C699.553040,129.455994 699.808167,130.672379 700.445862,131.602997 
	C707.447571,141.820709 709.357910,153.856293 712.667236,165.399170 
	C713.652466,168.835693 715.950378,171.612671 718.185730,174.260712 
	C722.575806,179.461548 723.496887,185.343719 721.884766,191.615570 
	C718.041382,206.568314 719.132080,221.680801 719.862366,236.822800 
	C720.455872,249.130112 721.024475,261.453125 719.417358,273.748840 
	C719.173035,275.618134 718.723328,277.369324 717.739380,278.921143 
	C715.203674,282.920166 714.255371,286.901337 715.895630,291.686890 
	C717.410278,296.106232 714.468811,300.025330 713.094482,304.078674 
	C711.916077,307.553955 709.322998,310.786499 710.902832,314.865387 
	C713.813171,315.300690 715.305115,313.157959 717.208557,311.987640 
	C722.237305,308.895782 726.633362,309.066437 730.896729,313.070984 
	C735.584595,317.474213 738.952271,322.230499 738.583801,329.486755 
	C738.093872,339.132568 737.497559,348.765259 736.650757,358.378387 
	C735.639587,369.858643 737.388672,381.309998 736.471497,392.824310 
	C735.493774,405.100220 733.051941,416.568207 724.437378,425.891205 
	C722.071289,428.451874 721.942566,431.632874 721.384888,434.690826 
	C719.283875,446.212372 715.509033,457.168549 711.246704,468.062927 
	C708.232910,475.766174 702.462524,478.512238 695.234253,479.203888 
	C691.769348,479.535461 690.215454,481.033936 689.213013,484.006805 
	C686.998535,490.574036 686.833252,497.438812 686.455261,504.215424 
	C686.085571,510.843414 685.135071,517.033081 680.908752,522.479187 
	C678.174377,526.002747 677.422913,530.341248 677.314758,534.748230 
	C677.168152,540.722473 676.006470,546.231323 671.501160,550.706848 
	C668.005005,554.179993 666.383301,558.847900 664.577454,563.333374 
	C662.895996,567.509888 661.196777,571.674683 658.621521,575.408020 
	C655.864441,579.404663 652.908997,583.021973 646.375000,580.571167 
	C649.034912,604.369812 653.923462,626.970032 658.405151,650.193909 
	C663.517578,647.217102 663.333496,642.487915 663.435608,638.498840 
	C663.583984,632.701477 664.825928,627.307861 666.872742,621.998474 
	C669.660522,614.767273 671.101257,607.337280 670.795105,599.535461 
	C670.558716,593.509888 671.311829,587.565247 673.723206,581.943665 
	C675.162231,578.589050 674.603638,575.059998 674.722412,571.581421 
	C674.971558,564.287292 673.580505,556.895691 675.780457,549.719177 
	C677.046936,545.587341 679.348511,542.310242 683.914856,541.275085 
	C685.988464,543.205078 685.255493,545.507202 685.199280,547.539001 
	C684.576111,570.064575 680.919861,592.219604 676.936829,614.335510 
	C674.254822,629.227417 671.233032,644.071106 670.162415,659.207336 
	C669.945374,662.276001 669.041199,665.011719 666.908142,667.371216 
	C662.638977,672.093506 661.827637,677.135864 664.104431,683.410889 
	C667.560791,692.936584 670.106995,702.800598 672.831238,712.578979 
	C673.675354,715.608826 675.141174,717.646484 678.198975,718.473022 
	C682.326965,719.588806 685.842834,721.753174 688.744263,724.872986 
	C690.981628,727.278687 693.812378,728.175354 696.903992,727.768738 
	C701.361694,727.182434 704.558411,729.133423 707.506653,732.111450 
	C715.165466,739.847473 721.523438,748.652405 727.667725,757.542114 
	C731.702759,763.380066 736.272095,768.499695 741.544495,773.155884 
	C748.663757,779.442932 756.020752,785.622192 759.559570,794.849670 
	C760.605469,797.576965 763.097107,800.741150 759.202209,803.289124 
	C755.561523,805.670898 751.844666,805.492920 748.635498,802.533386 
	C743.606445,797.895508 739.136353,792.720154 734.905518,787.345459 
	C726.662659,776.874329 719.460144,765.600891 710.522339,755.667236 
	C707.659485,752.485413 704.748535,749.331970 701.071045,747.039368 
	C699.256714,748.926758 699.327087,750.950134 699.315735,752.920593 
	C699.283203,758.586853 699.380432,764.255188 699.266235,769.919434 
	C699.168091,774.785767 698.541870,779.544189 695.540222,783.675537 
	C694.882690,784.580566 694.458557,785.750671 694.234192,786.860779 
	C689.315002,811.202698 676.854431,831.707825 661.732361,850.859619 
	C652.131531,863.018921 641.809570,874.590454 632.524475,887.015564 
	C628.835205,891.952393 624.346375,896.268494 618.650024,899.024902 
	C615.041565,900.770935 613.799438,904.387329 611.959839,907.495178 
	C607.798584,914.525146 600.324341,916.471313 593.533447,919.097473 
	C589.984924,920.469788 587.974854,917.766663 588.751282,913.893860 
	C589.125977,912.025330 590.131287,910.493225 591.569702,909.288879 
	C610.174744,893.710938 625.427551,874.893555 641.824158,857.188293 
	C647.253235,851.325928 652.182190,845.001526 657.368835,838.913147 
	C661.062988,834.576721 664.029724,829.950684 665.782715,824.375061 
	C668.255798,816.508606 673.574829,810.082886 677.859314,803.152222 
	C681.460266,797.327087 684.410522,791.551331 685.297791,784.396240 
	C686.498962,774.709412 691.230530,765.735107 692.410950,755.881836 
	C693.390503,747.704956 690.639709,742.005310 683.808533,740.514648 
	C681.005249,749.974121 678.062073,759.450439 675.434937,769.013489 
	C674.494873,772.435181 673.577881,775.443970 670.600830,777.898010 
	C667.232727,780.674438 666.059265,785.195984 663.734436,788.843689 
	C657.176575,799.133179 649.132080,808.286255 641.812134,817.991150 
	C641.611450,818.257202 641.342407,818.486084 641.198303,818.778198 
	C635.548706,830.228882 625.579102,838.083984 616.758667,846.636658 
	C610.398254,852.804016 603.780334,858.756348 597.522278,865.089478 
	C594.240540,868.410400 590.051025,870.583496 585.352173,871.663147 
	C581.721802,872.497253 580.742859,870.901794 581.162781,867.704651 
	C581.779175,863.011292 584.024292,859.144104 587.716858,856.293457 
	C591.666687,853.244263 595.836853,850.478516 599.938293,847.628418 
	C603.229004,845.341736 606.522827,843.049438 609.053406,839.893738 
	C613.433411,834.431824 613.315063,830.711853 608.067566,826.080017 
	C604.622803,823.039368 602.540710,819.640991 602.083008,815.036926 
	C601.866943,812.862976 601.930420,810.240845 599.045837,808.927795 
	C595.834106,810.093262 594.664551,813.183777 593.354431,815.951416 
	C590.429138,822.131409 588.214600,828.596924 586.406555,835.192383 
	C585.082886,840.020935 583.837219,844.865662 580.450562,848.795837 
	C578.868469,850.631653 579.437561,852.915039 579.330688,855.041687 
	C579.100037,859.631897 577.588867,863.528320 573.372803,865.893921 
	C568.806519,868.456055 566.576660,867.332764 565.919250,862.195251 
	C565.443481,858.477051 566.336914,854.868408 567.213806,851.343323 
	C569.877747,840.635071 573.718201,830.375244 579.244324,820.758789 
	C582.806824,814.559509 586.814514,808.574585 589.166809,801.734314 
	C589.380249,801.113464 589.634399,800.234863 590.114319,800.018372 
	C596.867493,796.971985 593.331421,792.660339 591.577332,788.579773 
	C590.327454,785.672241 588.986145,782.803589 587.762756,779.885315 
	C583.786377,770.400391 577.987305,762.648621 568.608582,757.678589 
	C558.131104,752.126343 552.503967,743.232239 551.470398,731.253296 
	C550.515503,720.185242 545.814026,710.615662 537.415894,703.363037 
	C526.929321,694.307007 520.148804,682.876221 514.534302,670.516968 
	C513.296936,667.793274 511.570190,665.293274 510.310944,662.577942 
	C508.751282,659.215088 506.571320,658.993469 503.427612,660.378845 
	C496.013702,663.645874 489.553802,668.368164 483.443481,673.517517 
	C473.128052,682.210449 461.799744,683.955811 449.403412,679.144165 
	C443.991333,677.043396 439.603271,673.545105 436.810547,668.269226 
	C432.828156,660.745911 434.025360,653.249878 441.008179,648.365173 
	C445.473267,645.241699 445.167450,642.756653 442.037323,639.200928 
	C439.942963,636.821777 438.008148,634.209839 438.921265,630.658569 
	C439.959717,626.619995 442.371185,625.901855 445.358002,628.734741 
	C445.478729,628.849182 445.586487,628.977234 445.701691,629.097656 
	C453.101318,636.829590 453.468719,636.270874 463.066345,631.576599 
	C484.766998,620.962402 500.163727,603.351379 515.694580,585.810425 
	C519.569458,581.434021 522.373657,576.271606 524.977600,571.028076 
	C525.743103,569.486694 526.156189,567.234131 528.654419,567.648315 
	C530.650269,567.979309 531.063110,569.698303 531.353516,571.403748 
	C531.657593,573.189636 532.417664,574.630188 534.486389,574.674988 
	C540.865967,574.813354 546.968933,576.629333 553.186707,577.731201 
	C560.838501,579.087219 567.717407,577.237610 574.096619,573.069092 
	C578.699158,570.061462 583.186218,566.867981 587.878357,564.009521 
	C592.558533,561.158264 597.664368,559.677185 603.166809,561.188110 
	C607.725525,562.439880 608.527771,566.082458 605.044617,569.332520 
	C604.328674,570.000549 603.449280,570.629395 602.531982,570.925110 
	C587.813477,575.670105 575.154968,584.595581 561.359924,591.215088 
	C551.707825,595.846558 542.014465,599.819458 531.240112,601.265991 
	C520.451599,602.714417 511.255981,607.900330 502.795013,614.877991 
	C486.479248,628.333557 470.104706,641.789917 450.764496,650.941650 
	C447.915192,652.289917 445.490906,654.347656 444.421173,657.504517 
	C451.937469,663.902405 460.578796,660.380737 468.115662,648.052490 
	C472.070709,650.813171 472.408081,653.631348 469.500763,657.912903 
	C467.320496,661.123779 463.733459,662.882507 460.856293,666.347473 
	C464.241669,667.394165 467.186554,666.981140 469.968079,666.331238 
	C478.609802,664.312317 486.125732,660.074707 492.264191,653.685364 
	C494.559143,651.296631 496.809906,649.776306 500.228638,649.273560 
	C511.169037,647.664490 520.616272,642.173889 529.981201,636.748108 
	C536.105652,633.199829 542.562927,631.463623 549.526550,631.732178 
	C557.979004,632.058167 566.136353,630.960754 573.952698,627.648865 
	C576.479492,626.578247 579.137878,626.455322 581.812622,626.664551 
	C586.913330,627.063599 588.209106,629.645447 585.474243,634.056519 
	C583.254700,637.636597 579.672363,638.874390 575.728638,639.306458 
	C573.441101,639.557129 571.029663,639.172119 568.777283,640.935974 
	C570.108582,644.636597 573.346375,645.403931 576.610901,645.624023 
	C581.257874,645.937439 585.928711,645.925659 590.570190,645.173645 
	C594.411987,644.551270 598.262329,644.658875 601.850891,646.317078 
	C605.710327,648.100342 606.144958,650.702515 603.120972,653.709473 
	C598.104431,658.697815 591.729553,658.975342 585.355469,658.079468 
	C576.655579,656.856628 568.792908,653.182922 561.342407,648.627808 
	C558.419006,646.840393 556.931152,644.209412 557.241394,640.653076 
	C552.400635,639.410583 548.111267,640.526428 543.856628,642.042480 
	C537.014343,644.480469 531.452393,649.156738 525.236633,652.689819 
	C523.226685,653.832214 523.520691,655.511292 524.065369,657.467590 
	C528.079956,671.886902 537.609680,682.369141 548.485535,692.579590 
	C551.710266,688.086426 551.884644,683.235474 552.648682,678.595703 
	C553.458496,673.677979 554.015503,668.717163 554.898926,663.814026 
	C555.171753,662.299927 555.404968,660.209229 557.509521,660.008789 
	C559.396240,659.829041 560.431091,661.427490 561.346497,662.815247 
	C563.627747,666.273499 564.211731,670.168518 564.345764,674.240356 
	C564.785645,687.599243 563.180786,700.851746 562.026855,714.098511 
	C560.788818,728.312317 565.095886,739.206177 577.746155,746.523376 
	C582.064880,749.021423 585.919312,752.290833 588.662415,756.633850 
	C590.306030,759.235962 593.040771,759.313599 595.699829,759.667175 
	C602.312866,760.546631 608.862854,761.706421 614.919800,764.724426 
	C618.732239,766.624146 621.878296,769.255798 624.127930,772.917419 
	C626.093140,776.115906 624.942078,777.823608 621.559692,778.659668 
	C618.410339,779.438049 615.642883,778.232056 612.873657,777.118835 
	C609.016907,775.568481 605.334778,773.532166 601.161377,772.884705 
	C597.765930,772.358032 596.563599,773.925171 597.809814,777.152344 
	C597.869568,777.307129 597.932373,777.470154 598.033142,777.598389 
	C608.860779,791.383423 612.711304,809.022217 623.749084,823.059692 
	C626.956970,821.721741 629.273743,818.666870 631.396057,815.541382 
	C635.136353,810.033325 638.628845,804.536072 644.548401,800.758362 
	C647.234558,799.044189 648.527893,795.150146 650.458313,792.248535 
	C656.913696,782.545715 664.139038,773.321960 669.049561,762.654480 
	C673.904236,752.108398 675.832947,741.491272 670.257080,730.465088 
	C668.402954,726.798645 666.399048,725.223938 662.073669,726.447876 
	C656.126770,728.130676 654.693726,726.886047 654.685181,720.976196 
	C654.665527,707.380310 651.629395,694.241028 648.815186,681.061951 
	C648.452942,679.365662 648.054199,677.685242 646.085266,677.294373 
	C642.216797,676.526367 641.778442,673.779480 641.787109,670.524414 
	C641.814941,660.028320 642.376465,649.535461 641.753296,639.032654 
	C641.513184,634.985596 641.213135,630.812256 639.273010,627.409424 
	C636.127075,621.892029 635.660645,616.167664 635.899475,610.118347 
	C636.216980,602.074463 634.184143,594.258545 633.255981,586.338318 
	C632.858215,582.944153 633.018005,579.740723 633.655762,576.450989 
	C637.245117,557.935669 630.382263,542.999634 617.453796,530.341309 
	C615.252930,528.186462 613.442993,526.083374 612.260376,523.230530 
	C603.101501,501.137634 590.242859,481.007294 578.673706,460.192474 
	C577.540588,458.153717 576.088074,456.223541 575.340759,454.051331 
	C572.299072,445.210358 565.494629,441.668488 556.910034,440.299774 
	C547.225952,438.755768 537.567139,437.054047 527.892883,435.447601 
	C523.251770,434.676880 518.663818,433.440948 514.658752,431.098755 
	C502.821289,424.176086 490.312653,423.782135 477.404755,426.610352 
	C471.705078,427.859192 466.385284,427.630157 460.894714,425.229187 
	C454.311249,422.350311 447.318146,420.668732 439.980865,421.281403 
	C437.960907,421.450104 435.640686,421.485443 434.908173,423.670563 
	C434.280762,425.542053 435.815979,427.157715 437.060883,428.466919 
	C442.548492,434.238098 449.605927,435.636688 457.164124,435.272247 
	C459.453003,435.161835 461.715424,434.502319 463.985504,434.095123 
	C465.047882,439.897461 461.679413,443.256805 455.596558,442.117859 
	C450.710419,441.203003 445.971680,439.492065 441.177002,438.101685 
	C439.100677,437.499634 437.048370,436.821655 435.030182,438.109436 
	C434.373444,440.234497 435.048462,442.104095 436.309937,443.331482 
	C441.587372,448.466339 446.073700,454.548553 453.995239,456.360809 
	C459.648468,457.654083 465.029022,460.094452 470.624451,461.697845 
	C476.158264,463.283569 481.723846,463.797638 487.060883,460.628601 
	C490.183533,458.774506 493.393951,459.581696 495.945190,461.674774 
	C509.579346,472.860352 526.015076,477.087250 542.708191,480.528076 
	C546.812988,481.374176 548.106689,483.165070 548.406006,487.140015 
	C549.363464,499.856171 555.235962,510.648743 562.429810,520.829590 
	C562.798340,521.351257 563.403625,521.727783 563.952942,522.089478 
	C564.199585,522.251831 564.580261,522.210571 564.947083,522.269226 
	C566.694885,521.559814 566.458191,519.913635 566.673218,518.480164 
	C566.935852,516.729553 567.526245,515.021606 569.549927,514.974426 
	C571.615417,514.926147 572.193298,516.772888 572.589355,518.402222 
	C572.940125,519.845459 573.116394,521.346863 573.215698,522.832825 
	C573.636780,529.133728 576.059570,531.234619 582.600708,530.540649 
	C588.219666,529.944336 593.743530,528.516907 599.450745,528.661255 
	C603.083069,528.753113 608.230530,528.154114 608.964783,531.966797 
	C609.728210,535.930481 604.516846,537.189392 601.261108,538.447083 
	C590.938904,542.434509 580.220581,540.925232 569.647339,539.875183 
	C550.942932,538.017700 532.404419,534.698364 513.616272,533.489136 
	C508.240295,533.143127 504.045685,534.618835 500.186096,538.520569 
	C491.333191,547.469971 484.983063,558.337585 476.971649,567.913940 
	C475.261444,569.958191 473.601135,572.060303 471.729889,573.949585 
	C469.549988,576.150391 468.927246,578.479004 470.706329,581.092041 
	C472.589661,583.858276 471.988800,586.145874 470.269653,588.847778 
	C463.552246,599.405029 455.934570,609.313904 448.720062,619.512695 
	C447.003906,621.938721 445.037994,622.601868 442.334595,622.198853 
	C420.279999,618.910950 398.135468,620.077515 376.000092,620.905151 
	C360.985748,621.466614 346.005585,621.153870 331.174255,618.570007 
	C326.554291,617.765137 322.223450,619.085876 317.786957,619.480103 
	C299.797607,621.078674 281.834869,620.319397 263.861755,619.406738 
	C262.146515,619.319641 260.380005,619.254089 259.837036,617.215027 
	C257.836121,609.700867 252.024933,605.463928 246.239746,601.167053 
	C243.847244,599.390076 241.553040,597.480713 238.897888,595.381592 
	C234.491272,598.666748 233.573944,603.322876 234.611130,607.845581 
	C237.352646,619.800232 233.498856,628.717651 223.546280,635.424561 
	C221.620193,636.722473 219.863464,638.289368 218.116028,639.831299 
	C213.031937,644.317444 210.507385,649.023132 213.130020,656.440186 
	C218.397003,671.335571 219.158920,686.752869 214.850449,702.130493 
	C211.558075,713.881470 204.905090,723.511169 195.362320,731.088257 
	C193.562607,732.517212 192.491760,734.044495 191.986710,736.333801 
	C188.581909,751.767151 185.200378,767.209961 181.429184,782.555786 
	C180.246185,787.369629 181.711151,789.223572 186.185043,790.754272 
	C202.285217,796.263000 217.209335,804.592651 233.042984,810.765869 
	C236.302536,812.036682 236.395493,814.505066 236.219269,817.269409 
	C235.528488,828.104248 233.250183,838.674866 230.912598,849.237366 
	C229.223038,856.871765 227.494522,864.506287 227.272064,872.368286 
	C227.204453,874.758179 226.505814,876.492676 223.991608,877.331177 
	C222.615341,877.790222 221.334747,878.698486 220.172928,879.610474 
	C214.419693,884.127014 210.509094,884.715393 205.826462,879.195435 
	C198.768158,870.874878 190.849121,864.695557 180.259171,861.549255 
	C175.756409,860.211548 172.066238,855.479492 167.611679,854.769714 
	C156.826981,853.051331 147.649750,847.429993 137.554520,844.239197 
	C129.318649,841.636169 120.746574,840.054199 112.865479,836.355286 
	C107.051277,833.626404 100.760429,834.383362 94.690056,833.649170 
	C90.120850,833.096619 85.952736,831.702271 81.883392,829.731689 
	C74.261841,826.040833 67.265068,820.998718 58.787949,819.146667 
	C57.043129,818.765503 56.215057,817.118469 55.209896,815.804871 
	C51.733284,811.261597 47.509583,807.569336 42.848156,804.252869 
	C39.374550,801.781433 37.024342,802.726013 34.985401,805.880798 
	C32.569733,809.618591 31.912178,813.891418 31.302311,818.197754 
	C30.650146,822.802673 30.083700,827.449707 28.965933,831.950745 
	C27.732737,836.916565 24.436657,838.383057 18.330202,837.355774 
	C12.987361,836.457031 10.397479,833.563965 10.774076,828.643738 
	C11.199686,823.083191 13.140061,817.939331 15.493670,812.944397 
	C17.622986,808.425354 19.907152,803.981384 21.086729,799.068054 
	C21.343201,797.999756 21.936060,796.561523 22.784515,796.159180 
	C28.368311,793.510742 31.356665,788.390015 34.970676,783.855469 
	C36.883450,781.455444 39.164600,779.324280 42.151821,778.687378 
	C46.743122,777.708618 48.314453,774.661072 48.817791,770.536926 
	C49.099113,768.231873 49.901691,765.866699 49.612869,763.639771 
	C48.851528,757.769348 51.118721,753.812500 56.110149,750.939087 
	C59.133549,749.198608 61.682911,746.346985 64.876450,745.250000 
	C71.416039,743.003784 72.875740,737.980713 73.624573,732.155334 
	C75.936050,714.173889 75.034019,696.262024 72.208183,678.437805 
	C70.573875,668.129272 68.301392,657.947815 65.970169,647.753418 
	C62.284206,631.634766 59.804928,614.964294 59.438393,598.468994 
	C59.228558,589.026001 57.964066,580.282959 55.547600,571.388428 
	C54.508842,567.565002 54.157627,563.545105 53.622425,559.597046 
	C52.972027,554.799255 52.540192,549.958374 48.490299,546.497925 
	C45.855953,544.247009 47.200928,541.600159 47.902081,539.100342 
	C53.577087,518.867249 61.250153,499.331451 68.716820,479.725372 
	C70.132050,476.009247 71.446602,472.480438 71.187355,468.218475 
	C70.882858,463.212738 73.094742,458.484802 75.530548,453.644501 
M507.203918,153.752869 
	C505.905792,155.603027 503.953583,157.115219 504.016296,159.684570 
	C505.142883,160.534195 506.477264,161.125793 507.162689,162.151215 
	C508.290253,163.837967 507.734161,166.116486 505.668457,165.706451 
	C499.868286,164.555206 497.639008,168.344131 495.091034,172.148956 
	C493.133301,175.072388 489.937927,177.015106 487.062927,174.759583 
	C483.910919,172.286697 486.627991,169.173813 488.508514,167.002533 
	C491.700989,163.316376 494.387970,159.331543 496.686279,155.076569 
	C498.891541,150.993774 501.897614,147.828751 506.024872,145.644913 
	C508.841156,144.154755 511.718384,142.397766 512.640991,139.149139 
	C514.280090,133.377579 518.329956,129.960968 523.207458,127.110046 
	C524.922729,126.107460 526.556824,124.895889 528.024902,123.557098 
	C530.198547,121.574921 533.520325,119.137077 531.768494,116.238892 
	C529.782410,112.953056 525.915161,114.019974 522.747314,115.649170 
	C519.934082,117.096001 517.191711,118.707794 514.288879,119.943436 
	C512.319214,120.781868 510.091217,121.403671 508.417786,119.103561 
	C505.870026,115.601768 502.203705,114.973351 498.203156,115.068001 
	C496.432159,115.109901 494.473969,115.497871 493.066284,113.479164 
	C493.333954,112.653549 493.384216,111.502502 493.975769,110.821701 
	C504.444733,98.772041 513.067993,83.811966 532.669983,85.924751 
	C533.981812,86.066154 535.333374,85.879234 536.663940,85.802078 
	C547.633484,85.165977 558.591125,84.125580 569.598633,84.705170 
	C574.604675,84.968750 579.797485,87.208969 584.338806,83.014351 
	C584.776672,82.609917 586.013062,82.754219 586.736389,83.024658 
	C592.651550,85.236206 598.765564,87.091011 604.333069,89.988342 
	C607.438721,91.604530 609.156006,91.019310 611.321411,89.094078 
	C613.110168,87.503670 614.805176,85.453926 617.695923,86.580933 
	C618.767578,90.742432 614.079895,91.004784 613.000488,94.182938 
	C619.475403,95.388519 625.779114,96.502655 632.221619,95.679222 
	C634.410156,95.399506 636.420898,94.251328 636.264099,91.493011 
	C636.202576,90.409691 621.546875,79.607780 620.449585,79.753281 
	C619.808899,79.838234 619.193420,80.183456 618.588806,80.459961 
	C611.810303,83.560074 604.729980,80.461662 597.837341,81.418686 
	C597.246704,81.500702 596.363342,80.692085 595.872498,80.088516 
	C590.596985,73.600983 583.656738,72.634384 575.974182,73.917404 
	C569.084534,75.068016 562.191467,76.204834 555.282715,77.232178 
	C551.085754,77.856262 548.326233,76.446930 548.677551,71.651306 
	C548.880371,68.881836 547.667908,67.197479 545.132019,66.386093 
	C542.762207,65.627846 540.321350,64.241425 537.985596,64.379570 
	C529.502502,64.881279 521.015015,64.370308 512.574524,64.720207 
	C506.878662,64.956314 501.295441,67.443054 495.616547,68.721916 
	C492.054321,69.524109 488.431610,70.083237 484.885406,68.329018 
	C478.904999,65.370682 476.343201,65.488602 471.531830,70.388412 
	C458.577240,83.581223 443.005127,89.543411 424.608124,88.388245 
	C422.814240,88.275612 420.822632,87.970215 419.362976,89.410698 
	C411.894226,96.781364 402.922760,102.535561 396.224579,110.712669 
	C392.286896,115.519745 389.380768,120.931595 387.001221,127.134521 
	C390.579437,127.263390 392.572540,125.960907 394.677826,125.025932 
	C401.853485,121.839180 406.053650,122.871201 410.521515,129.406830 
	C412.578156,132.415268 414.085083,135.800507 415.828888,139.021591 
	C419.956848,146.646652 420.998413,147.198120 429.641602,146.056274 
	C434.106934,145.466385 437.696899,146.531570 439.055237,151.291397 
	C439.941925,154.398560 442.088440,156.357590 444.397064,158.312302 
	C445.912415,159.595383 447.550293,160.853851 448.685608,162.443161 
	C452.020264,167.111282 450.559662,170.710266 444.990204,171.421127 
	C437.405029,172.389282 429.721832,172.708130 422.193451,173.975311 
	C410.434418,175.954575 410.514709,176.200607 408.205933,187.857803 
	C407.446930,191.690109 405.246002,194.724014 401.043243,193.752335 
	C394.252014,192.182159 387.443390,190.324997 381.477722,186.450531 
	C375.652191,182.667053 374.252716,177.337433 377.127960,171.339798 
	C379.184143,167.050781 383.190552,167.144577 386.917053,166.734528 
	C389.290497,166.473373 390.387085,165.980453 390.251495,163.125793 
	C389.817688,153.991943 393.469025,148.547058 402.213409,145.957916 
	C406.555573,144.672195 407.594360,141.707565 407.679352,138.169754 
	C407.762207,134.719971 404.485870,133.534592 401.964478,132.665543 
	C398.960571,131.630173 396.129120,133.456665 393.524994,134.917313 
	C388.458130,137.759308 383.781830,141.350998 377.918701,142.604080 
	C376.537354,142.899307 375.705505,144.059128 375.181763,145.335724 
	C371.044342,155.420807 363.293091,164.229584 364.332153,176.158081 
	C364.429535,177.276382 363.992737,178.450394 363.752136,179.587555 
	C360.658569,194.209488 356.218536,208.606232 357.211639,223.871689 
	C357.454590,227.606461 358.887177,230.590576 360.755951,233.542114 
	C361.571777,234.830673 362.743561,236.009766 364.467957,235.342438 
	C366.123383,234.701843 365.786774,233.071594 365.466705,231.865372 
	C363.925201,226.055634 363.932068,220.416183 367.229675,215.203766 
	C364.824829,213.171494 360.647125,213.094803 361.923828,208.687622 
	C362.900818,205.315109 366.065186,204.437332 368.927917,203.202896 
	C367.335022,201.262192 364.384125,201.045013 365.025238,198.402863 
	C365.631470,195.904678 368.087524,195.307709 370.175812,195.100418 
	C373.974579,194.723328 377.830902,194.960724 381.642883,194.672745 
	C385.667389,194.368713 387.471924,196.456360 388.072601,200.038025 
	C389.041107,205.813034 390.714569,211.483749 386.664948,217.085800 
	C385.036469,219.338516 384.901550,222.740692 384.317200,225.665741 
	C382.360779,235.459076 383.073792,245.605194 380.524353,255.318024 
	C378.690186,262.305786 378.624023,262.258209 385.070435,265.202911 
	C386.262421,265.747406 387.429901,266.476013 388.395966,267.353760 
	C389.810547,268.639008 390.664734,270.313232 390.066345,272.287872 
	C389.438629,274.359375 387.626709,274.916229 385.747284,275.091614 
	C383.346466,275.315704 380.930084,275.372650 378.520386,275.501648 
	C380.784668,276.954407 383.138702,277.327026 385.503174,277.613525 
	C391.296936,278.315582 393.051941,281.011627 391.248230,286.489807 
	C390.279388,289.432373 388.430115,291.757233 386.143158,293.764740 
	C383.265747,296.290527 380.321564,298.741699 377.486542,301.313660 
	C375.949677,302.707916 375.032745,304.275024 375.855011,306.614746 
	C380.476349,319.764984 377.708527,333.366455 378.112000,346.773956 
	C378.226685,350.584869 374.872833,351.532745 372.212189,352.719910 
	C369.705475,353.838348 368.142578,351.933563 366.807922,350.213013 
	C364.548981,347.300842 362.956909,344.003296 361.517029,340.614655 
	C359.435028,335.714844 357.667694,330.625702 354.375793,326.354767 
	C351.566742,322.710358 348.064880,320.362000 343.156494,321.882721 
	C341.901947,322.271454 340.474121,322.796509 340.463745,324.439941 
	C340.455505,325.745209 341.534149,326.440948 342.574127,327.016266 
	C344.451355,328.054779 347.014526,328.562775 347.690521,330.763336 
	C350.421783,339.654602 356.654938,347.228058 357.443573,356.831512 
	C357.710480,360.081329 359.096985,361.647156 362.747437,361.945618 
	C384.387238,363.714844 406.042877,363.223297 427.681580,362.477264 
	C439.099274,362.083588 439.083557,361.623505 439.659760,349.926636 
	C439.676147,349.593781 439.661377,349.258514 439.693298,348.927490 
	C440.216125,343.507690 442.613556,341.128906 448.042480,341.009583 
	C450.355804,340.958740 452.675934,341.469360 454.999756,341.574005 
	C457.528320,341.687897 460.197662,342.058533 462.902283,338.930756 
	C448.741547,335.604401 435.509766,333.251190 422.035461,338.174469 
	C419.226196,339.200928 416.453247,340.526520 413.545471,341.024231 
	C410.923676,341.473022 408.250305,340.702484 409.077911,336.977142 
	C410.258850,331.661255 421.625366,322.879669 427.173370,322.958679 
	C430.066803,322.999878 432.837036,322.646027 435.380005,321.231750 
	C441.957947,317.573334 448.843384,317.246704 456.196594,318.355896 
	C465.185272,319.711792 474.199646,322.055573 483.429260,319.814606 
	C484.322449,319.597717 485.499512,319.796753 486.335724,320.217896 
	C492.722076,323.433838 499.643494,325.565796 505.536652,329.788879 
	C508.904572,332.202423 511.339905,335.267548 512.633728,339.189758 
	C514.082153,343.580383 512.583191,345.529388 507.921265,345.266693 
	C506.617737,345.193207 505.311615,344.796387 504.050232,344.406891 
	C497.095551,342.259308 495.062744,343.576660 494.279663,350.907196 
	C494.103333,352.558105 494.152771,354.233093 494.097229,355.896973 
	C493.959534,360.023315 495.830414,362.085388 500.081940,361.954468 
	C506.410339,361.759583 512.741943,361.658295 519.072754,361.554474 
	C523.570557,361.480713 528.063721,361.428619 532.441345,362.797668 
	C535.661377,363.804657 537.382935,365.591217 537.383240,369.274811 
	C537.383728,374.425842 538.037537,379.572998 538.230896,384.728577 
	C538.781311,399.409698 540.186646,401.357269 554.114075,406.122742 
	C554.901062,406.392029 555.704956,406.611572 556.499573,406.858978 
	C565.079590,409.530731 573.808960,411.805420 582.206909,414.961639 
	C598.071533,420.924072 603.668274,429.646332 603.401001,446.609894 
	C603.273071,454.731659 603.259338,454.771881 611.107788,457.440094 
	C620.548645,460.649597 628.017944,465.938843 631.324829,475.886658 
	C632.300232,478.820831 631.652832,481.114136 629.239136,482.936920 
	C626.814453,484.768005 624.603333,483.926910 622.359680,482.421204 
	C618.397522,479.762177 615.835938,475.796387 612.695129,472.366821 
	C609.952576,469.372101 607.487305,465.951324 602.502380,464.720551 
	C602.001587,476.201080 604.177185,486.215118 612.036072,494.482971 
	C613.245850,495.755707 614.569397,496.407928 616.485168,495.974976 
	C620.797363,495.000519 624.309814,496.920929 627.427979,499.608398 
	C629.057922,501.013214 630.428467,502.506653 629.590698,505.193909 
	C628.764099,507.845520 627.580383,509.546082 624.732544,510.174622 
	C619.716736,511.281799 619.150391,512.539734 621.288025,517.356323 
	C624.100159,523.692810 628.395386,529.088928 633.138550,533.970520 
	C641.251587,542.320374 644.774353,551.934021 643.309875,563.506470 
	C642.916565,566.614441 643.247620,569.820496 643.330505,572.979248 
	C643.365601,574.314026 643.578613,575.665527 645.099548,576.228027 
	C656.084290,569.840820 678.869019,503.346771 672.079346,492.421112 
	C669.929138,493.831665 670.319275,498.178040 665.877686,497.461792 
	C664.287781,492.020782 665.910400,486.749756 667.245972,481.544739 
	C669.558228,472.533844 672.195374,463.617584 674.394531,454.563080 
	C676.196838,447.142822 675.485474,439.452240 678.331787,432.187805 
	C684.892273,415.443878 690.804993,398.454071 693.583557,380.577911 
	C694.128479,377.072083 696.037109,375.194305 699.341675,376.148132 
	C703.824280,377.441925 704.900330,375.144958 705.649231,371.584229 
	C708.177063,359.567017 713.574280,348.650482 718.825012,337.679718 
	C719.829224,335.581604 721.160034,334.819153 723.584229,335.208435 
	C728.640625,336.020447 729.554138,334.977448 728.402222,330.071594 
	C727.832764,327.646149 727.096802,325.248840 725.518555,323.212219 
	C721.867432,318.500549 718.420532,317.989105 715.132263,322.781647 
	C708.372437,332.634003 701.664429,342.682465 702.316406,355.525757 
	C702.478210,358.713226 702.408447,361.961609 700.307190,364.599304 
	C698.529297,366.831116 696.804199,367.922821 694.496399,364.631470 
	C692.546753,361.850891 691.540161,359.242523 692.034973,355.859802 
	C692.466736,352.908447 692.663330,349.882721 692.573425,346.901581 
	C691.991211,327.591888 691.273254,308.286316 690.686035,288.976746 
	C690.615601,286.659729 689.675598,284.820404 688.522705,282.975372 
	C684.231445,276.107574 681.341248,268.688141 680.144043,260.681763 
	C679.542908,256.661438 678.289795,252.363297 682.962036,249.516113 
	C684.175415,248.776733 683.968201,247.146439 684.002502,245.812180 
	C684.222412,237.256516 683.297424,228.910797 680.339783,220.776886 
	C675.649170,207.876572 667.490540,196.664169 662.652710,183.851974 
	C661.996582,182.114212 660.404297,181.585876 658.915894,180.796402 
	C655.245178,178.849411 655.196777,177.000961 658.710205,174.722046 
	C665.626709,170.235794 673.390747,168.588974 681.482300,168.160400 
	C682.826538,168.089188 684.203857,168.321793 685.018738,169.594940 
	C687.258911,173.094589 689.585999,176.549149 691.616760,180.168503 
	C692.960693,182.563934 693.248596,185.025558 689.787109,186.130295 
	C688.071838,186.677719 685.738342,186.849487 685.658752,189.086853 
	C685.562927,191.781479 688.321350,191.715515 690.052979,192.330399 
	C697.744446,195.061569 698.160522,196.084824 697.635803,204.359009 
	C697.262024,210.252197 695.266113,216.767288 701.620850,221.307343 
	C702.375183,221.846268 702.153015,223.791855 702.326172,225.093033 
	C702.492432,226.341751 701.969055,227.853317 703.791626,228.482269 
	C706.000916,228.276932 706.725403,226.454346 707.200684,224.741348 
	C708.234436,221.015991 708.052551,217.158875 708.013428,213.325562 
	C707.937927,205.926498 706.350891,198.456696 710.276367,191.324692 
	C711.357117,189.361023 712.092896,185.598633 708.669434,184.396271 
	C696.448792,180.104248 691.494507,169.864151 687.162231,158.996933 
	C684.204468,151.577576 682.249268,143.708969 678.061768,136.846359 
	C675.615051,132.836533 674.146606,128.816376 674.719543,124.141991 
	C675.105225,120.994873 673.489075,119.141098 670.843750,117.873192 
	C665.032715,115.088028 658.938660,114.323257 652.882751,116.461502 
	C647.639282,118.312889 642.783386,121.286346 636.825012,119.465775 
	C635.206665,118.971283 633.633972,120.248062 632.250183,121.165489 
	C622.949280,127.332024 613.366821,133.129211 604.471191,139.836105 
	C595.329895,146.728241 586.516052,154.076218 581.262085,164.855759 
	C579.135315,169.219345 574.629761,171.753403 569.999146,173.523102 
	C568.154785,174.227982 566.341919,174.420944 565.027527,172.644669 
	C563.857849,171.063995 564.578979,169.556885 565.458984,168.018494 
	C570.123047,159.864502 575.492188,152.311935 582.864563,146.312485 
	C586.608887,143.265457 590.153381,139.972351 593.776672,136.777390 
	C595.418884,135.329300 596.230286,133.710495 595.097473,131.493027 
	C592.294739,126.007011 589.911133,120.276436 586.099976,115.372612 
	C583.168518,111.600731 579.637390,108.091736 574.556763,108.413528 
	C564.415710,109.055855 554.405029,109.170784 545.414551,116.078995 
	C531.470703,126.793404 517.958130,137.689545 507.932495,152.966507 
	C507.932495,152.966507 507.606537,153.322586 507.203918,153.752869 
M204.747879,669.689758 
	C204.773575,664.989075 203.901993,660.411072 202.649628,655.918091 
	C201.764801,652.743652 201.413864,649.049011 198.490341,647.054016 
	C192.071335,642.673645 188.099503,636.358337 184.056610,630.032471 
	C181.091217,625.392456 178.021545,620.831726 173.648361,617.333984 
	C170.769424,615.031372 167.877670,614.097961 164.618042,616.691956 
	C163.002808,617.977417 161.084717,618.945801 159.151871,617.427002 
	C157.278946,615.955261 157.668549,613.922119 158.315887,611.921326 
	C159.529556,608.170166 157.702835,606.976807 154.282852,607.355164 
	C150.149689,607.812317 146.027328,608.368835 141.902496,608.899353 
	C138.244202,609.369812 134.553864,609.810364 131.104172,608.096497 
	C127.371384,606.242004 127.196655,603.481934 130.450180,600.875000 
	C134.820602,597.373108 139.709244,595.980835 145.339111,596.406006 
	C150.285355,596.779480 155.353561,597.510864 160.200577,595.801758 
	C165.069977,594.084778 165.576782,591.690857 162.029831,587.966187 
	C160.616760,586.482361 159.507904,584.854309 159.010193,582.871338 
	C158.535660,580.980652 158.788071,579.094604 160.254593,577.783081 
	C161.836029,576.368958 163.461029,577.559326 164.805939,578.422424 
	C166.618546,579.585632 168.407806,580.872437 169.930527,582.384644 
	C175.814926,588.228394 182.284073,588.931335 189.535370,585.148560 
	C193.068039,583.305664 196.613144,581.314270 200.653290,580.810486 
	C203.370087,580.471802 206.508759,580.583557 207.513702,583.544556 
	C208.622711,586.812256 205.796432,588.329224 203.220978,589.177307 
	C200.189362,590.175537 199.000946,592.013611 199.108643,595.125610 
	C199.159134,596.584229 198.917664,598.223206 198.267303,599.505981 
	C195.663208,604.641846 196.345505,608.526428 200.924423,612.564575 
	C205.028305,616.183838 203.930267,619.412964 198.968903,621.545166 
	C192.419281,624.360046 192.387970,624.377625 195.974991,630.790955 
	C196.778732,632.227905 197.743591,633.633972 198.886948,634.808167 
	C200.664520,636.633545 202.753677,637.324829 205.164505,635.742371 
	C210.312668,632.363220 215.722168,629.371460 220.342331,625.222534 
	C226.959244,619.280579 229.167786,611.946899 228.152283,603.175537 
	C226.587906,589.663452 222.543152,576.461121 223.560562,562.594177 
	C223.858521,558.532837 221.253235,555.130859 216.991928,553.565125 
	C209.122681,550.673767 200.947296,549.272949 192.666824,548.291382 
	C177.306976,546.470825 161.783417,546.221191 146.533829,543.292053 
	C139.685013,541.976562 132.671936,541.466248 125.871170,539.966003 
	C119.897438,538.648132 117.688263,535.605713 117.640282,530.387695 
	C121.393333,528.893738 125.480659,529.862915 129.392929,529.053345 
	C133.590607,528.184753 136.483551,525.755249 139.098053,522.918701 
	C143.467636,523.780151 141.371033,529.292358 145.875458,530.725403 
	C151.419724,523.861633 157.324463,516.952332 158.540863,507.554169 
	C159.270096,501.919983 160.254944,496.654205 164.929550,492.951385 
	C166.423569,491.767914 168.398193,490.264404 170.297379,492.006683 
	C171.977570,493.548065 171.346130,495.662415 170.610504,497.604797 
	C169.735794,499.914429 167.268906,501.442993 166.807098,504.691284 
	C171.842560,502.609589 172.892151,497.835510 175.978195,494.950317 
	C177.637100,493.399384 179.035370,490.872986 181.690140,491.612701 
	C184.483505,492.390991 185.098938,495.201843 185.213379,497.692688 
	C185.445435,502.742828 188.140976,504.009033 192.766617,503.899078 
	C197.903549,503.776978 203.035172,502.494690 208.194946,503.641815 
	C212.055969,504.500183 215.545502,506.241241 215.392654,510.626221 
	C215.235825,515.125183 211.168900,514.975281 207.869812,515.358826 
	C205.755402,515.604614 203.194992,515.387207 202.353439,517.893188 
	C200.872192,522.304138 199.642349,526.806763 198.488876,531.317505 
	C197.866837,533.750000 199.295441,535.372681 201.204285,536.730530 
	C205.607971,539.863220 210.655502,541.557434 215.586395,543.590637 
	C220.367889,545.562195 223.327164,544.261475 225.950684,539.985596 
	C227.950134,536.726990 229.366104,532.709473 233.955566,530.967896 
	C236.144119,538.426636 232.698502,546.007751 235.546951,554.574646 
	C237.706802,544.620178 242.358322,536.211487 235.845764,527.545654 
	C234.898544,526.285217 235.330811,524.687988 235.507080,523.176819 
	C236.174835,517.452454 239.642776,513.086548 242.497238,508.415710 
	C247.882507,499.603668 246.872894,493.628357 238.841797,487.103943 
	C237.162979,485.740051 235.457657,484.358337 233.593475,483.280792 
	C212.241486,470.939087 190.465698,459.327728 168.304901,448.571442 
	C157.172104,443.167816 150.470016,445.275391 143.304581,453.726624 
	C141.369644,456.008759 139.419525,458.350159 137.931335,460.927063 
	C129.173340,476.092041 119.410469,490.582153 109.094482,504.719360 
	C107.335861,507.129364 105.856781,509.783569 104.539299,512.467712 
	C100.705917,520.277527 93.366776,524.982788 87.969772,531.401001 
	C87.369339,532.115112 86.307983,532.533203 85.379974,532.860474 
	C83.637558,533.474915 81.850372,533.993286 80.311859,532.285889 
	C78.808243,530.617249 77.429367,528.926880 78.676857,526.519714 
	C79.746948,524.454834 80.666153,522.261597 82.038795,520.412170 
	C88.442451,511.784119 97.184456,504.781982 100.338409,493.898224 
	C100.461998,493.471710 100.970230,493.134125 101.343788,492.805786 
	C112.479919,483.019226 119.692642,470.500977 126.042625,457.377716 
	C126.909134,455.586975 127.739563,453.815521 129.304581,452.416595 
	C135.820633,446.592133 135.761368,446.573151 131.900894,438.962189 
	C130.454605,436.110840 129.651062,433.019257 132.996384,431.027405 
	C136.330475,429.042145 138.738800,430.835449 140.230804,433.931030 
	C141.939606,437.476349 144.388992,438.167999 148.001328,436.765808 
	C156.220383,433.575317 164.536133,434.415741 172.353302,437.792145 
	C177.682129,440.093781 182.240524,441.311340 186.792389,436.663544 
	C187.537262,435.902954 188.853149,435.499115 189.963425,435.341858 
	C192.156830,435.031158 193.969620,436.009094 194.852737,438.013947 
	C195.719376,439.981384 194.068939,441.009521 192.785629,442.070190 
	C191.439209,443.183044 189.313782,443.510223 189.030472,445.802643 
	C190.179001,447.971741 192.443069,448.846527 194.291473,450.202789 
	C202.377945,456.136353 213.293045,457.552887 219.721100,466.215851 
	C220.652176,467.470642 222.600281,468.221771 224.294556,467.475281 
	C226.434219,466.532501 225.883987,464.387695 225.859238,462.621063 
	C225.736313,453.844025 221.733948,446.246643 218.382965,438.463104 
	C214.920242,430.419952 214.887512,430.434052 220.494873,425.243988 
	C220.119949,423.494415 218.744568,423.147919 217.444717,423.656494 
	C213.355698,425.256256 212.210556,423.362213 210.918777,419.676239 
	C208.558151,412.940552 204.308685,407.786591 196.268097,407.408966 
	C190.783005,407.151398 185.313705,406.502075 179.827835,406.327881 
	C167.512344,405.936859 155.239700,405.427948 143.013794,403.530823 
	C131.362289,401.722900 119.637024,399.986938 107.765793,402.260681 
	C103.434868,403.090179 102.109756,405.490295 101.216156,409.641815 
	C96.197716,432.956787 93.675003,456.897736 84.221146,479.132721 
	C82.720848,482.661316 81.599274,486.341766 81.258904,490.184509 
	C80.738663,496.057953 78.899483,501.237518 75.646896,506.350647 
	C68.006287,518.361816 63.538334,531.548645 64.370995,546.052856 
	C64.677910,551.399109 65.706947,556.620422 70.040741,560.647888 
	C70.710243,555.424255 70.671234,550.316589 70.724426,545.209839 
	C70.757973,541.988770 71.321373,538.859436 73.627014,536.412903 
	C74.797554,535.170898 76.373756,534.195496 78.071663,535.317383 
	C79.566574,536.305115 79.452202,538.054932 78.717033,539.384583 
	C77.117828,542.276978 77.798119,545.117798 78.229973,548.103088 
	C79.153587,554.487732 81.690674,560.999512 79.597153,567.322632 
	C77.823013,572.681030 77.980148,577.607605 79.400375,582.789490 
	C80.426208,586.532410 80.251404,590.379272 80.323776,594.211121 
	C80.375305,596.939392 80.076355,599.125488 76.698257,599.633728 
	C74.733238,599.929321 74.170486,601.625183 74.300407,603.461121 
	C74.464279,605.776978 74.506744,608.124084 74.934776,610.394897 
	C77.029434,621.507874 81.946777,631.836731 83.514511,643.168396 
	C85.474663,657.336548 85.299377,671.821594 88.844452,685.703613 
	C92.158943,698.682800 91.625656,711.337830 88.752472,724.187988 
	C85.923256,736.841492 82.444260,749.349670 80.688461,762.251953 
	C80.104019,766.546753 80.946213,769.059448 84.920456,771.034546 
	C88.774368,772.949768 92.178261,775.749207 95.888214,777.980042 
	C103.018623,782.267639 110.075554,787.533691 118.665413,787.456055 
	C128.538773,787.367004 137.317139,790.107910 145.965912,794.297729 
	C151.829712,797.138367 157.869858,799.372681 164.656311,798.970276 
	C168.603302,798.736328 170.324005,796.985168 170.671631,793.209229 
	C171.144073,788.077637 172.070480,782.978577 172.352783,777.840942 
	C172.779358,770.077942 174.018311,762.407166 175.150650,754.392517 
	C170.503006,754.777954 168.239029,757.728516 165.864822,760.419861 
	C162.118774,764.666199 158.588486,769.126343 153.707062,772.185974 
	C152.584015,772.889954 151.296570,773.705383 150.040985,772.636475 
	C149.089020,771.825928 149.218552,770.572021 149.325592,769.369263 
	C149.765976,764.421509 152.202560,760.464783 155.793823,757.330811 
	C160.306503,753.392761 165.097122,749.771179 169.799133,746.052612 
	C174.273926,742.513672 179.051514,738.948242 180.637360,733.299561 
	C183.352325,723.629028 191.837112,719.406921 198.404037,713.422791 
	C200.258392,711.732971 201.388245,710.363953 201.879669,707.884644 
	C204.319824,695.573975 205.242249,683.172241 204.747879,669.689758 
M344.294464,438.569977 
	C347.063568,437.854309 349.875916,437.682587 352.722687,437.861206 
	C389.038330,440.140015 413.990356,473.597412 405.903656,509.170258 
	C404.687195,514.521423 402.729370,519.840637 402.468201,525.240051 
	C402.087708,533.106018 400.074432,539.185425 391.968262,541.988770 
	C390.319214,542.558960 389.007751,544.103882 387.539093,545.197327 
	C380.233002,550.636841 372.517487,554.908508 363.098938,555.612610 
	C349.506195,556.628845 336.278381,553.337036 322.838409,552.659058 
	C321.539581,552.593567 320.149933,552.278198 319.732910,550.638367 
	C318.595795,546.166870 315.195465,545.281799 311.246155,545.378113 
	C308.350250,545.448730 306.920685,544.208801 306.986389,541.220093 
	C307.062775,537.747437 305.944977,534.484924 303.696625,531.982910 
	C296.662842,524.155640 293.772797,514.960022 293.644775,504.617615 
	C293.604065,501.329102 292.097626,498.439911 289.291260,496.565094 
	C286.611969,494.775116 284.090881,495.046814 284.207825,498.797241 
	C284.550049,509.776764 283.425293,521.261047 293.053802,529.659668 
	C293.963135,530.452881 294.697540,531.972961 294.715851,533.167847 
	C294.785126,537.695435 297.658203,539.887512 301.113007,541.864441 
	C303.366730,543.154053 306.399719,544.255737 305.985321,547.515503 
	C305.598633,550.557129 302.483490,550.617432 300.196960,551.450745 
	C292.732147,554.171265 285.585327,566.357239 287.108582,574.014893 
	C291.656036,573.242981 294.606079,570.862000 295.703400,566.250793 
	C297.177429,560.056580 309.173523,554.275513 314.749146,557.417419 
	C318.788635,559.693604 323.087708,560.641663 327.451355,561.665894 
	C331.176056,562.540100 335.094360,563.123230 337.979248,565.886230 
	C339.905670,567.731201 341.613342,567.397522 343.837250,566.628235 
	C348.277344,565.092346 352.864502,564.593750 357.604462,565.283142 
	C363.857605,566.192627 370.149872,566.834106 376.427063,567.576111 
	C380.250946,568.028198 383.042786,567.327637 382.918335,562.499512 
	C382.839325,559.434631 384.983124,558.132935 387.789337,557.895996 
	C389.779144,557.728027 391.794952,557.837402 393.777985,557.625183 
	C403.215698,556.615417 410.754517,548.807312 410.023193,540.871582 
	C409.139557,540.147583 408.151642,540.364746 407.174255,540.582275 
	C405.758728,540.897156 404.152313,541.909180 403.027313,540.380737 
	C401.765411,538.666321 402.567047,536.782471 403.585663,535.260315 
	C405.247406,532.777100 406.963928,530.283142 408.985382,528.096985 
	C414.746185,521.866760 416.462128,514.550659 415.283203,506.367615 
	C414.731934,502.541107 414.200562,498.576202 415.681854,495.001617 
	C417.794708,489.903046 416.211761,485.679047 413.701233,481.432343 
	C411.922943,478.424316 410.271088,475.331329 408.332153,472.430359 
	C402.300720,463.406250 394.973816,455.403595 388.106384,447.038055 
	C386.977692,445.663147 385.371368,444.474487 385.530640,442.366180 
	C385.863129,437.964996 383.166077,436.286133 379.450500,435.165344 
	C366.739838,431.331116 353.783875,431.938843 340.801117,432.769165 
	C335.518494,433.106995 330.236176,433.449463 323.569305,433.879059 
	C327.245117,430.155792 330.613556,429.611664 333.712189,428.815491 
	C348.321960,425.061401 363.168274,426.655945 377.942505,427.293762 
	C386.598511,427.667480 395.217682,428.221588 403.830811,426.730286 
	C407.201233,426.146759 408.956024,424.821442 408.071106,421.029877 
	C407.470306,418.455841 407.122650,415.749146 407.171051,413.111115 
	C407.311401,405.454285 405.168945,402.971039 397.427246,403.394470 
	C385.773773,404.031952 374.151001,404.166199 362.481812,403.612366 
	C349.506714,402.996552 336.504181,402.977905 323.541138,404.273895 
	C321.967834,404.431183 320.423553,404.615784 320.021729,406.420624 
	C317.971069,415.631500 314.767944,424.763031 317.444702,434.389618 
	C318.939362,439.765045 321.611176,441.646332 327.262482,441.653198 
	C332.835480,441.659943 338.022278,439.580719 344.294464,438.569977 
M213.839676,832.700073 
	C202.663895,820.103333 186.615128,816.604126 172.045120,810.352478 
	C171.477325,810.108826 170.720154,810.212646 170.064651,810.281921 
	C163.319199,810.994080 157.230423,808.906616 151.414978,805.822449 
	C146.907089,803.431763 142.163437,802.400146 137.066116,802.164246 
	C130.950592,801.881226 124.694191,801.661560 119.879730,796.844910 
	C118.534447,795.499023 116.633629,795.331726 114.755066,795.249329 
	C94.657799,794.367737 79.043686,785.929688 69.052246,768.049927 
	C68.647171,767.325012 68.190033,766.621582 67.689903,765.958923 
	C66.687988,764.631287 65.694023,763.011108 63.719456,763.545532 
	C61.493950,764.147827 62.127277,766.182678 62.106922,767.750122 
	C61.978828,777.614319 61.108780,787.446472 57.574436,796.671326 
	C55.608479,801.802673 57.374729,803.730225 61.699665,805.658142 
	C77.999619,812.924011 94.913864,818.411926 111.935150,823.643677 
	C136.885498,831.312561 162.223877,837.902832 185.881012,849.259705 
	C190.730606,851.587769 195.073883,854.051941 199.405518,848.635864 
	C199.973480,847.925720 201.136688,847.685669 202.032364,847.244507 
	C205.001678,845.781982 206.813721,846.597717 207.369919,849.942078 
	C207.794006,852.492004 208.255203,855.035828 208.699890,857.582336 
	C210.154526,853.119141 212.711212,849.440857 215.172867,845.788635 
	C218.242325,841.234741 218.187317,837.182434 213.839676,832.700073 
M452.871094,348.231842 
	C445.034180,351.239136 443.584106,354.330078 446.518585,361.914734 
	C447.057220,363.306885 447.994629,364.623840 446.683167,366.058197 
	C443.640961,369.385559 440.795685,372.361877 435.442291,372.270996 
	C414.458435,371.914795 393.457367,372.410492 372.479401,371.902008 
	C331.836121,370.916748 291.228149,371.657837 250.618698,373.212891 
	C246.955673,373.353149 245.038193,374.048981 245.554459,378.366150 
	C245.922302,381.442169 245.365753,384.678741 244.890549,387.793152 
	C244.270142,391.859192 242.072662,394.093109 237.585449,394.522644 
	C231.532471,395.102081 225.637711,394.210297 219.678757,393.755219 
	C212.072525,393.174316 204.696991,393.915161 197.766953,397.293549 
	C198.290543,399.132782 199.323624,399.423462 200.286636,399.480255 
	C215.392044,400.371124 230.512146,402.106049 245.597168,399.373352 
	C253.051697,398.022949 253.454010,397.196533 251.304672,389.723175 
	C248.733078,380.781708 252.509094,375.625122 261.728577,375.681030 
	C290.374542,375.854706 319.020935,375.531006 347.664856,376.539703 
	C372.475433,377.413483 397.289124,376.208527 422.096954,375.684082 
	C427.793304,375.563690 433.130676,375.516785 436.289825,381.411560 
	C436.512390,381.826874 437.385864,381.893372 438.168091,382.206726 
	C439.443726,379.731201 437.734375,375.148224 442.606262,375.793701 
	C447.325867,376.419037 447.943146,380.181732 448.250092,383.963959 
	C448.384399,385.618927 448.420197,387.309082 448.246765,388.956512 
	C447.811920,393.087433 449.706482,394.566956 453.702423,394.688751 
	C463.216675,394.978699 472.692383,394.407562 482.125824,393.443115 
	C487.553009,392.888245 493.035126,391.985748 498.478668,389.531860 
	C497.562256,389.017365 497.155090,388.714661 496.698547,388.544098 
	C492.935455,387.138092 490.076630,384.885132 490.917969,380.440552 
	C491.797516,375.793976 495.408691,375.421600 499.381134,375.651947 
	C506.682129,376.075317 513.935181,377.413971 521.292358,376.825775 
	C524.097168,376.601532 526.863708,376.361847 528.787537,373.919067 
	C527.614807,371.910980 525.779541,372.438599 524.213867,372.218719 
	C515.098083,370.938690 505.918030,371.569366 496.767426,371.347534 
	C492.153656,371.235718 489.656189,369.338074 489.575714,364.450012 
	C489.512756,360.629395 488.998901,356.816895 488.707794,352.999084 
	C488.411499,349.113312 486.538788,346.854950 482.457123,346.684998 
	C472.812469,346.283478 463.158356,345.592438 452.871094,348.231842 
M336.830536,537.708862 
	C362.754150,545.690186 386.728790,533.327698 392.100800,508.711395 
	C396.065399,490.544434 392.535095,474.157043 377.420929,461.967834 
	C364.947540,451.908356 350.656067,452.833099 336.062622,456.279877 
	C320.145813,460.039246 311.265961,470.494232 307.721680,485.806305 
	C304.269653,500.719696 305.422272,514.674988 318.272034,525.387634 
	C318.742462,525.779785 319.089020,526.470154 319.230103,527.082214 
	C319.909790,530.031128 322.180634,531.457397 324.609955,532.581238 
	C328.377045,534.323853 332.242706,535.853516 336.830536,537.708862 
M726.059631,359.410278 
	C724.957092,357.185303 724.987793,355.430511 727.510071,354.005707 
	C729.137268,353.086487 730.455994,351.267090 729.058350,349.412506 
	C727.771423,347.704895 725.963684,349.150543 724.492065,349.674561 
	C722.566833,350.360016 721.121094,351.712738 719.996521,353.467712 
	C715.898499,359.862946 715.969604,367.339294 720.264038,373.671478 
	C723.631348,378.636597 723.369995,385.466797 718.982117,386.744080 
	C713.156799,388.439758 708.603210,391.214050 705.016113,395.919861 
	C704.734070,396.289764 704.192505,396.474335 703.752380,396.709229 
	C698.436096,399.546326 695.649292,409.769318 698.676025,415.334412 
	C701.526672,415.598419 702.675110,409.963043 705.799255,412.743744 
	C708.528076,415.172516 706.284119,418.770935 705.896057,421.736938 
	C705.373169,425.733032 703.419434,428.649292 698.446716,427.384308 
	C696.128662,426.794617 694.336182,427.725647 694.517029,430.421387 
	C695.085022,438.887695 692.296143,446.865082 691.098389,455.071564 
	C690.533630,458.940765 688.384216,464.234985 692.434265,465.994171 
	C696.645935,467.823578 700.034302,463.199127 702.948242,460.000183 
	C703.171509,459.755157 703.394653,459.490967 703.540466,459.197235 
	C709.292297,447.613556 714.874939,435.932739 715.662109,422.748901 
	C715.888611,418.954437 716.672913,415.756958 718.984192,412.652313 
	C721.149048,409.744476 723.077942,406.474976 724.283997,403.071747 
	C729.271912,388.996490 733.204651,374.775421 726.059631,359.410278 
M314.422394,412.869324 
	C314.487305,411.542236 314.948090,410.078888 314.546661,408.912262 
	C313.035858,404.521545 313.860931,398.054169 309.074738,396.311920 
	C297.221527,391.997131 284.791748,390.321991 272.364441,394.318604 
	C265.425690,396.550110 264.664490,399.033508 268.155701,405.460388 
	C272.459290,413.382751 270.036072,418.209229 261.015564,419.259125 
	C256.059204,419.835968 251.051834,419.964264 246.072327,420.356476 
	C242.995575,420.598785 240.458069,421.592621 240.388626,425.306732 
	C240.195724,435.624176 238.589203,445.916687 239.466812,456.236328 
	C239.802597,460.184570 239.458893,464.490112 242.370834,468.413330 
	C245.395035,464.192780 244.640976,459.915833 244.317932,455.699280 
	C243.723816,447.944366 241.536850,440.248291 243.662872,432.395782 
	C244.833847,428.070770 246.959259,425.667053 251.969620,425.497925 
	C258.424774,425.279968 264.952759,425.371185 271.346924,423.992737 
	C274.295258,423.357117 275.476105,422.054047 274.935242,418.765900 
	C274.236359,414.516937 274.015594,410.153503 273.996155,405.837524 
	C273.970306,400.098663 277.428650,396.998199 284.681183,396.759705 
	C290.582428,396.565735 286.102325,401.674591 287.760742,403.764130 
	C287.860443,403.889740 287.997406,403.985779 288.197754,404.169708 
	C290.147125,404.516541 291.581451,403.166962 293.106628,402.282837 
	C296.057770,400.572052 299.081360,399.398468 302.576508,399.699188 
	C304.973694,399.905457 307.752075,399.993774 307.805389,403.064148 
	C307.868896,406.717041 310.435547,410.840179 306.710205,414.895905 
	C305.174713,411.469421 304.254211,408.783386 302.823151,406.404480 
	C301.467346,404.150665 299.220367,402.777893 296.444092,403.554504 
	C293.642120,404.338287 294.184448,406.871094 294.088379,408.976166 
	C294.035278,410.140137 294.141296,411.312988 294.059509,412.473663 
	C293.920502,414.445679 294.125183,416.856110 291.964050,417.708527 
	C289.478546,418.688873 288.643646,416.229187 287.474365,414.702545 
	C286.644348,413.618896 285.723969,412.547241 284.201050,412.851166 
	C282.574951,413.175751 282.464569,414.672943 282.173950,415.966431 
	C281.882141,417.265167 281.549225,418.556641 281.311981,419.865356 
	C278.932739,432.989746 277.953918,446.257141 277.229004,459.553650 
	C277.108582,461.762543 277.720551,464.671783 274.470581,465.175873 
	C269.796570,465.900909 270.096802,468.695892 271.086884,472.526184 
	C274.657227,470.557190 276.170410,472.567413 277.685211,475.281097 
	C279.621613,478.750092 281.422913,482.432495 284.788116,484.827057 
	C286.357635,485.943909 288.439423,487.682953 290.109406,485.800171 
	C291.798157,483.896118 290.034973,481.940704 288.412323,480.798553 
	C282.089539,476.347992 280.870544,469.804840 280.627502,462.775421 
	C280.245483,451.724335 283.702637,441.049438 283.834991,430.044678 
	C283.843811,429.312653 284.339691,428.344269 284.923981,427.899902 
	C289.346893,424.535858 294.360962,424.955444 299.239716,426.308228 
	C303.281830,427.429077 306.443115,429.685272 306.403442,434.677399 
	C306.384125,437.109467 307.033997,439.500092 311.818848,440.366302 
	C305.854523,431.646912 309.862000,424.615295 312.993225,417.455139 
	C313.522949,416.243713 313.794952,414.919586 314.422394,412.869324 
M568.053589,433.114197 
	C572.128357,436.788940 575.067810,441.787567 579.970581,444.418915 
	C584.920532,447.075562 583.910706,455.259247 591.484680,456.372314 
	C591.946106,446.100037 590.101257,436.958832 586.583069,428.091156 
	C586.030029,426.697144 584.668701,426.358124 583.346313,426.044250 
	C574.845215,424.026550 567.076111,420.216614 559.373840,416.242126 
	C551.828064,412.348419 544.347168,408.305023 536.088989,406.036285 
	C528.821777,404.039825 521.601135,403.284241 514.936401,407.792786 
	C510.028717,411.112732 504.777740,413.370056 498.945099,414.460938 
	C496.875214,414.848114 494.371185,415.253387 493.889404,418.675476 
	C509.158966,418.765717 523.586487,421.805847 537.917236,425.638855 
	C547.685852,428.251648 557.598572,430.325897 568.053589,433.114197 
M434.495636,573.889404 
	C432.553741,566.799988 431.772705,559.545898 431.248810,552.235413 
	C430.261322,538.455383 429.488739,524.672241 429.783661,510.849274 
	C429.823700,508.973969 429.889404,506.768158 432.387024,506.796112 
	C438.554321,506.865173 438.781067,502.811218 438.654602,498.352356 
	C438.172913,481.371582 433.680878,464.832062 433.109131,447.855499 
	C432.992096,444.381104 430.296997,443.524567 427.454071,443.639282 
	C425.670959,443.711243 423.829834,444.296936 422.169617,445.011780 
	C419.591888,446.121735 417.727234,445.978546 415.563110,443.777069 
	C412.757477,440.923096 409.190063,439.423981 403.924835,441.517792 
	C409.761963,445.357758 409.560120,450.541229 409.291870,455.763153 
	C409.215088,457.257080 409.251617,458.760956 409.314178,460.257050 
	C409.464905,463.862152 410.503479,467.127441 414.635895,467.514832 
	C418.839874,467.908936 419.531342,464.277466 420.518921,461.288849 
	C421.519653,458.260406 421.109741,454.843506 422.853546,451.589630 
	C426.343414,454.639771 426.790619,458.502197 427.301178,462.186127 
	C429.073608,474.974731 428.182831,488.121552 432.650848,500.556793 
	C433.694580,503.461639 432.459412,505.208740 429.213043,505.750366 
	C424.369537,506.558441 423.108398,509.419128 423.581329,514.379089 
	C425.646057,536.033386 429.964142,557.494690 429.377747,579.384338 
	C429.351990,580.345703 429.212372,581.428467 430.517792,582.196167 
	C435.019470,581.535461 434.700104,578.062012 434.495636,573.889404 
M414.372681,595.898865 
	C417.837189,595.393677 421.108337,594.547913 423.602661,590.415405 
	C417.220367,590.047729 411.493958,589.512939 405.760437,589.420471 
	C366.953949,588.794006 328.145752,588.426086 289.339050,589.414307 
	C286.178894,589.494812 283.023834,589.794434 279.867981,590.014954 
	C277.925751,590.150635 276.143738,590.474915 276.296021,593.097168 
	C276.430450,595.411926 277.356171,596.891235 279.901917,596.947083 
	C282.119049,596.995789 284.177917,596.363098 286.214539,595.609192 
	C288.854248,594.632080 291.400665,593.261169 294.392822,594.121826 
	C302.042389,596.322021 309.890228,596.146973 317.710144,595.802795 
	C333.985748,595.086670 350.269897,593.095398 366.480865,596.561279 
	C367.105255,596.694824 367.850128,596.646973 368.453705,596.437866 
	C376.773071,593.556030 385.185791,594.914551 393.663177,595.476135 
	C400.260193,595.913208 406.875092,597.690369 414.372681,595.898865 
M250.005112,495.177979 
	C248.770340,499.242371 249.128998,502.895477 251.929031,506.410034 
	C254.419968,509.536713 255.888992,513.318848 257.340668,517.063904 
	C260.209442,524.464966 261.230591,532.293091 262.773987,541.405701 
	C263.307648,539.298218 263.497925,538.537903 263.692780,537.778748 
	C265.713287,529.907166 263.420502,521.776123 265.079071,513.926270 
	C265.623901,511.347656 265.179016,509.609985 263.698486,507.533356 
	C261.424683,504.343994 258.193085,501.218567 258.967407,496.881256 
	C261.612183,482.066254 261.135437,467.023682 262.516479,452.120483 
	C262.945831,447.487335 262.762207,442.796661 262.840790,438.132019 
	C262.885101,435.502045 261.139465,434.250977 258.987274,433.514313 
	C257.027222,432.843445 255.025604,432.743958 253.423996,434.456512 
	C251.714905,436.283905 252.406097,438.140503 253.449951,439.960419 
	C255.137161,442.902008 255.161011,445.801178 254.006256,449.038239 
	C251.855881,455.066345 251.969498,461.115692 255.009537,466.928528 
	C255.713821,468.275146 256.346558,469.608429 255.431610,471.156830 
	C251.206375,478.307526 251.117508,486.411621 250.005112,495.177979 
M170.434906,514.843994 
	C165.304657,518.893555 162.432266,524.439087 159.999023,530.327454 
	C158.781738,533.273193 159.582947,534.641907 162.698059,535.049866 
	C167.784805,535.716064 172.829773,536.703918 177.989395,536.733582 
	C192.327347,536.815857 189.889053,537.185791 191.554657,523.523560 
	C193.022476,511.483826 184.683685,510.015106 175.930466,512.062683 
	C174.208084,512.465576 172.661179,513.618713 170.434906,514.843994 
M299.603516,581.696045 
	C340.730530,583.799133 381.859039,584.814087 423.928711,582.542297 
	C419.487030,576.106567 413.664154,576.645203 408.568176,577.583496 
	C394.680695,580.140442 380.658844,579.631836 366.747986,579.587036 
	C341.306549,579.505066 315.828491,579.655457 290.423401,577.645874 
	C289.525208,577.574829 288.801147,577.885071 288.312744,579.261658 
	C291.065216,582.602844 295.106781,581.275146 299.603516,581.696045 
M449.545715,462.236328 
	C447.978424,462.999664 448.339539,464.486359 448.338715,465.742493 
	C448.314728,501.854340 448.310669,537.966187 448.340942,574.078003 
	C448.343323,576.886658 448.956360,579.561462 451.881775,582.753296 
	C452.840332,574.949036 453.487213,568.297119 453.694214,561.559143 
	C454.671051,529.762268 451.813477,498.050537 451.671997,466.280121 
	C451.665436,464.801941 451.825714,463.216736 449.545715,462.236328 
M463.220062,538.117493 
	C464.846558,544.117920 469.605103,539.371155 472.431183,541.255310 
	C468.276245,537.166565 468.360168,537.216614 471.410461,532.101379 
	C472.587677,530.127258 473.483948,527.929321 474.165009,525.727173 
	C475.675446,520.843567 477.267792,516.138428 483.796051,515.248718 
	C480.935791,509.464996 475.562469,507.949982 471.445526,504.874023 
	C471.408569,505.630768 471.640259,506.065063 471.957306,506.423981 
	C473.656647,508.347565 476.363251,509.743958 475.499786,513.010254 
	C475.231689,514.024353 474.508484,514.939148 473.388519,514.777893 
	C470.306366,514.334351 469.256622,511.720764 468.048309,509.365143 
	C467.190582,507.692841 466.386749,505.783234 464.053650,506.582916 
	C461.287323,507.531128 460.750061,510.123138 460.457611,512.633545 
	C460.208740,514.769470 461.638794,515.429199 463.496613,515.754700 
	C468.000977,516.543884 471.511688,518.503235 472.351929,523.332275 
	C470.108337,525.548706 467.932007,522.820740 465.407898,524.216858 
	C466.612000,528.745483 464.840790,533.045959 463.220062,538.117493 
M259.321259,558.071838 
	C258.726379,563.917542 257.314423,569.741394 258.470673,575.919495 
	C264.470581,575.596008 266.805237,571.557495 268.535004,567.223511 
	C271.087372,560.828491 271.581696,554.001953 271.544586,547.199402 
	C271.531677,544.827698 272.325775,540.626160 268.907349,540.835022 
	C265.757568,541.027283 268.317627,544.658020 267.979767,546.718567 
	C267.632568,548.836426 267.772827,551.105896 267.051239,553.070923 
	C266.292816,555.136230 266.037506,558.112183 262.962524,558.124878 
	C260.892303,556.963196 262.584625,554.346741 260.339691,553.188354 
	C259.974823,554.755249 259.679382,556.023987 259.321259,558.071838 
M218.670898,826.750854 
	C220.444336,827.562683 221.859573,829.154968 224.236755,829.268127 
	C226.563461,824.434692 224.210785,821.083984 220.282944,819.107727 
	C209.186752,813.525024 198.214630,807.629211 186.482315,803.422791 
	C185.090057,802.923584 183.479172,801.727173 181.558929,803.334167 
	C182.429535,806.061462 184.647797,807.983398 187.118347,808.260132 
	C197.990891,809.477844 205.733780,815.842163 213.130981,823.034546 
	C214.535843,824.400452 216.392746,825.301392 218.670898,826.750854 
M540.246216,508.179321 
	C539.916443,513.025513 540.481506,517.794373 541.221252,522.582520 
	C542.019653,527.750061 545.694763,530.556091 550.901001,529.646240 
	C552.597900,529.349670 553.984558,528.560059 553.592712,526.759338 
	C551.958801,519.250977 549.913452,511.840912 544.600586,505.953705 
	C542.566345,503.699524 540.804565,504.061462 540.246216,508.179321 
M404.253418,395.222870 
	C410.493317,396.031921 416.734802,397.476715 422.972656,397.461273 
	C428.581818,397.447357 429.652771,399.713257 429.447021,404.562164 
	C429.302795,407.961639 428.464966,411.619354 430.255432,414.864777 
	C431.845306,414.688629 432.327728,413.804382 432.661865,412.854797 
	C434.868134,406.585602 433.474670,400.416138 432.002869,394.284332 
	C431.584167,392.539886 429.970459,392.297974 428.391785,392.305023 
	C419.767059,392.343384 411.141907,392.342438 402.518036,392.447876 
	C401.033417,392.466034 399.358368,392.509369 398.032227,394.356781 
	C400.171417,394.639923 401.800781,394.855591 404.253418,395.222870 
M175.040207,605.374756 
	C178.265167,608.826965 181.587952,612.194641 183.477509,616.386841 
	C186.962906,615.323242 187.749985,613.313843 187.890320,610.804321 
	C188.090347,607.227173 187.035782,603.927551 185.769073,600.669800 
	C184.415863,597.189514 178.184204,595.279846 174.164825,597.644958 
	C170.315186,599.910339 173.764648,602.433228 175.040207,605.374756 
M455.125641,588.466309 
	C450.328522,588.453125 445.525665,588.301086 440.737183,588.497986 
	C438.921844,588.572632 436.176758,588.651917 436.514740,591.450317 
	C436.770111,593.564758 438.444763,595.788330 440.821259,595.525574 
	C445.534210,595.004456 450.470825,594.922668 454.621124,592.120178 
	C455.743317,591.362366 458.085876,590.633789 455.125641,588.466309 
M277.434113,565.834229 
	C277.174774,570.263306 277.563293,574.602295 278.915741,579.073792 
	C282.385895,577.840698 281.882507,575.383850 281.289886,573.219116 
	C279.753937,567.608459 278.988037,562.248779 282.939545,557.126831 
	C284.225952,555.459412 284.377777,553.169373 281.893890,551.469910 
	C277.845795,555.325806 278.538177,560.429688 277.434113,565.834229 
M440.953217,529.765137 
	C440.634369,526.169250 440.600586,522.415283 436.292389,520.894653 
	C432.963959,526.015137 434.928589,535.570679 440.117767,539.530823 
	C441.173920,536.576355 440.996674,533.598145 440.953217,529.765137 
M239.541489,577.404785 
	C237.982635,573.118835 237.783112,568.304565 234.573441,564.186340 
	C232.995850,566.666565 232.782196,569.112976 232.327148,571.510925 
	C231.498138,575.879639 233.064316,578.981140 237.064636,580.803589 
	C240.274231,582.265747 240.558090,580.679932 239.541489,577.404785 
M256.805328,595.766968 
	C258.678070,596.506470 260.682068,597.508240 262.245941,595.442078 
	C263.236176,594.133850 264.027954,592.436340 263.200165,590.768860 
	C262.170715,588.695251 260.004852,588.444885 258.019226,588.443115 
	C255.614395,588.440918 253.065125,587.690552 250.562439,589.350342 
	C251.551605,592.281494 253.676086,594.022827 256.805328,595.766968 
M358.494904,392.171509 
	C349.031097,392.430939 339.566559,392.631042 330.089722,391.825775 
	C344.714539,393.566193 359.333649,394.435455 373.995422,393.271576 
	C369.244110,391.617523 364.341095,392.243256 358.494904,392.171509 
M231.032806,378.302582 
	C228.379440,373.197540 220.682037,373.318573 216.100098,378.537384 
	C220.613907,381.156860 223.159439,381.201508 231.032806,378.302582 
M501.422028,510.486786 
	C502.026459,511.464691 502.597137,512.465576 503.243103,513.415222 
	C504.252777,514.899597 505.564148,514.247803 506.780212,513.791260 
	C508.592621,513.110840 509.913025,511.906281 510.076202,509.875244 
	C510.175446,508.640442 509.472748,507.070831 508.421997,507.209442 
	C505.843994,507.549500 502.805847,507.119110 501.422028,510.486786 
M180.364304,393.953003 
	C184.377121,395.145630 186.391663,392.822906 187.230988,389.508942 
	C187.751053,387.455505 185.657822,387.110596 184.201218,387.386353 
	C180.923431,388.006927 178.653397,389.601166 180.364304,393.953003 
M487.172363,486.497833 
	C483.810547,487.112915 480.495575,488.043854 476.622345,487.572571 
	C477.174194,490.800476 479.293488,492.392151 481.431732,492.274323 
	C484.475800,492.106506 486.426300,489.635956 487.172363,486.497833 
M227.913864,340.836121 
	C230.543152,340.569672 233.378082,341.025604 235.865021,338.790558 
	C230.672638,337.721741 229.175308,338.108124 227.913864,340.836121 
M462.910217,486.825500 
	C463.906219,489.292572 465.165009,491.396790 468.648346,491.133881 
	C468.075348,487.453186 465.875214,486.425140 462.910217,486.825500 
z"/>
<path fill="#000000" opacity="1.000000" stroke="none" 
	d="
M747.850708,548.305786 
	C730.402405,542.618958 713.348145,537.018066 696.292175,531.422180 
	C692.392212,530.142639 689.073120,528.098938 686.789978,524.554749 
	C685.290161,522.226624 685.738953,520.175842 687.343567,518.144958 
	C688.725342,516.395996 690.305481,515.663452 692.561829,516.500427 
	C712.481445,523.889099 733.855408,525.176636 754.069397,530.982727 
	C764.848206,534.078613 776.572021,532.778992 786.606628,538.683228 
	C788.520020,539.809021 790.795410,539.246216 792.969788,539.023621 
	C797.774170,538.531616 802.606323,538.064941 807.007446,540.909973 
	C811.263184,543.661072 812.371765,547.603271 810.027771,552.079468 
	C806.099854,559.580383 799.565369,562.468140 791.509521,560.259399 
	C777.087463,556.305176 762.665894,552.348938 747.850708,548.305786 
z"/>
<path fill="#000000" opacity="1.000000" stroke="none" 
	d="
M707.474976,624.426514 
	C703.359070,606.542603 699.210876,589.098145 695.356262,571.589172 
	C693.806335,564.549011 696.909424,559.439026 703.120789,557.396667 
	C705.107605,556.743347 706.869812,556.488647 707.192627,559.192078 
	C709.277588,576.651428 715.815796,592.944275 720.431335,609.736572 
	C724.449585,624.356201 726.095642,639.077942 723.133789,654.058228 
	C722.520264,657.161438 723.721130,659.095032 725.579163,661.153625 
	C729.244934,665.214966 728.506531,671.341064 724.081360,674.490234 
	C720.408875,677.103638 717.109375,676.381042 715.013000,672.363831 
	C712.817566,668.156860 711.817871,663.512756 711.837524,658.884399 
	C711.886475,647.324158 709.982239,636.061890 707.474976,624.426514 
z"/>
<path fill="#000000" opacity="1.000000" stroke="none" 
	d="
M616.654785,600.797241 
	C616.641113,594.404541 617.418518,588.460754 614.076233,582.906738 
	C612.319885,579.988159 611.605957,576.384094 615.751892,574.424683 
	C618.676086,573.042664 624.162659,576.159180 625.251648,579.651428 
	C627.189758,585.866638 627.476501,592.367249 628.078491,598.773193 
	C628.512329,603.390320 628.741272,608.021423 629.783875,612.546082 
	C630.618713,616.169312 628.781189,616.601807 625.960083,616.017456 
	C620.340759,614.853455 617.184570,609.828003 616.654785,600.797241 
z"/>
<path fill="#000000" opacity="1.000000" stroke="none" 
	d="
M639.181091,752.904602 
	C634.150391,759.578552 626.876770,760.187622 619.862610,761.110291 
	C616.277161,761.581848 616.455261,758.070923 615.837158,755.905884 
	C615.321411,754.099426 614.842651,751.492798 617.550598,750.970764 
	C622.575256,750.002258 626.543884,746.845093 631.139221,745.039612 
	C632.667358,744.439209 634.267273,743.926147 635.881653,743.658813 
	C640.926208,742.823547 642.257385,744.410217 640.763916,749.400757 
	C640.435486,750.498230 639.846191,751.517700 639.181091,752.904602 
z"/>
<path fill="#000000" opacity="1.000000" stroke="none" 
	d="
M600.836914,880.281860 
	C602.999451,885.473633 599.218384,894.947327 595.160828,895.306396 
	C591.689087,895.613647 588.257141,895.052002 586.488098,891.703308 
	C584.492493,887.925842 585.512146,884.206787 588.237305,881.102051 
	C590.697083,878.299683 593.790588,876.834656 597.586243,878.205139 
	C598.652283,878.590027 599.570496,879.384460 600.836914,880.281860 
z"/>
<path fill="#000000" opacity="1.000000" stroke="none" 
	d="
M465.297363,614.017456 
	C468.190948,611.581604 470.130066,613.094360 471.790222,615.186829 
	C473.095184,616.831604 473.640961,618.738037 472.620758,620.781006 
	C472.144714,621.734253 471.382965,622.384949 470.248871,622.267883 
	C468.043182,622.040466 467.348419,620.257324 466.645477,618.564087 
	C466.076141,617.192688 465.631927,615.769226 465.297363,614.017456 
z"/>
<path fill="#000000" opacity="1.000000" stroke="none" 
	d="
M672.261230,339.772217 
	C671.613831,342.817322 669.551514,342.339996 667.802368,342.184570 
	C666.673645,342.084259 665.265381,341.857086 664.526733,341.132141 
	C654.159180,330.956116 641.764832,335.362091 630.054382,336.629120 
	C618.503479,337.878906 607.091248,340.370819 595.587463,342.115204 
	C590.573730,342.875458 586.142151,345.285614 581.313293,346.527435 
	C577.019226,347.631683 572.760376,348.111053 568.674561,345.968323 
	C564.268982,343.657898 563.807129,341.566406 567.230957,337.891937 
	C580.840210,323.286346 597.553772,315.507263 617.660278,315.437347 
	C619.322327,315.431549 621.047180,315.341461 622.636658,315.727753 
	C629.741333,317.454407 636.434937,317.318970 643.322449,314.031677 
	C647.547302,312.015259 651.678650,314.425690 654.888855,317.857697 
	C657.214478,320.343994 659.135315,323.406891 662.912048,324.465424 
	C665.255127,321.528534 664.664917,317.966980 665.660034,314.886536 
	C667.294067,309.828369 668.660706,304.683563 670.313110,299.631866 
	C670.793884,298.162231 671.326172,296.111603 673.558838,296.518463 
	C675.845886,296.935242 675.492981,298.956146 675.362061,300.563446 
	C674.579529,310.166626 673.705750,319.762299 672.911377,329.364563 
	C672.637512,332.675354 672.503784,335.997742 672.261230,339.772217 
z"/>
<path fill="#000000" opacity="1.000000" stroke="none" 
	d="
M461.073822,166.975845 
	C453.603149,161.218369 448.332153,153.833572 442.109375,147.364487 
	C440.034607,145.207565 438.225250,142.450241 435.688599,141.145172 
	C426.917297,136.632416 422.447449,128.868042 418.544373,120.435867 
	C417.463531,118.100830 416.917694,115.915764 418.619873,113.929581 
	C421.295532,110.807396 420.686096,108.188057 417.838287,105.769585 
	C415.333557,103.642479 415.710754,101.792351 417.734741,99.466949 
	C423.807922,92.489357 429.691376,91.871010 436.755127,97.726006 
	C440.755493,101.041885 443.890625,105.165520 447.270355,109.057091 
	C450.005341,112.206322 452.623291,115.607964 456.317993,117.565483 
	C460.824615,119.953186 462.382538,123.605263 460.657562,127.905220 
	C457.245331,136.411331 460.368134,142.168320 467.005981,147.310120 
	C469.573029,149.298630 471.450623,152.235138 473.446136,154.887390 
	C475.479034,157.589294 476.639038,160.763947 477.046570,164.095932 
	C477.439850,167.311111 477.088928,170.857300 474.492065,172.819595 
	C472.061798,174.655899 469.468872,172.212830 467.186432,171.030960 
	C465.132111,169.967224 463.293945,168.486130 461.073822,166.975845 
z"/>
<path fill="#000000" opacity="1.000000" stroke="none" 
	d="
M622.600403,377.993988 
	C608.796570,378.506226 595.557556,377.997192 582.611633,374.222015 
	C578.410583,372.996979 575.800049,371.037476 576.939087,366.095947 
	C577.993713,361.520782 574.294495,360.234924 571.146667,358.966156 
	C573.208923,353.383331 583.284973,349.006409 588.402161,350.847443 
	C591.006226,351.784332 589.070251,354.190277 590.886902,355.952057 
	C606.416199,349.175110 623.101379,348.229797 640.258240,350.266418 
	C639.615295,346.341064 634.198792,348.090332 634.916199,343.249969 
	C643.304077,344.544739 651.966919,343.814148 659.860657,347.822418 
	C662.012634,348.915161 663.730225,350.506775 662.660156,353.418579 
	C661.964661,355.311066 662.634521,356.963593 663.783020,358.537262 
	C666.185547,361.829468 668.084229,365.306030 663.801636,368.491180 
	C659.592468,371.621704 653.419800,370.701202 650.379578,366.714661 
	C649.171021,365.129852 648.220093,363.336853 646.930359,361.828003 
	C644.249268,358.691345 641.295166,358.691010 638.288147,361.448090 
	C635.993958,363.551636 635.580261,365.625427 638.515442,367.494476 
	C642.068604,369.757141 640.649475,371.762726 638.215759,373.651154 
	C633.753906,377.113312 628.278259,377.092712 622.600403,377.993988 
M597.463196,369.487152 
	C600.645508,369.416138 604.008606,370.478973 606.928711,368.252594 
	C604.761475,363.725800 600.636230,361.899384 596.821228,363.614502 
	C595.393494,364.256348 594.265442,365.266663 594.103577,366.912354 
	C593.920410,368.774292 595.559387,368.838257 597.463196,369.487152 
z"/>
<path fill="#000000" opacity="1.000000" stroke="none" 
	d="
M629.923706,143.875214 
	C637.965271,137.819427 646.241333,132.925446 655.601013,130.119873 
	C657.937744,129.419434 660.882263,128.245865 662.628967,130.439285 
	C664.162537,132.365143 663.867798,135.441055 662.666992,137.610764 
	C660.782715,141.015350 662.408875,142.757004 664.880676,144.586441 
	C669.265198,147.831604 672.641724,151.782608 673.852234,157.338043 
	C674.417236,159.931305 673.716980,161.433426 671.216125,162.351440 
	C655.804260,168.008820 640.241699,172.585342 623.525330,169.488724 
	C619.961853,168.828613 617.535400,170.966354 615.066772,172.940491 
	C612.741333,174.800171 610.208496,176.490509 607.484253,174.187729 
	C604.618896,171.765671 606.441711,168.837814 607.772278,166.483963 
	C612.291748,158.488312 620.136108,153.568954 626.260559,147.044632 
	C627.279297,145.959412 628.509521,145.072815 629.923706,143.875214 
z"/>
<path fill="#000000" opacity="1.000000" stroke="none" 
	d="
M549.235474,145.246719 
	C546.464233,147.431610 544.135986,149.525726 542.953491,153.126221 
	C544.832886,153.203537 545.753296,152.064896 546.799683,151.164322 
	C548.652222,149.569855 550.594543,147.011978 553.175415,148.701004 
	C555.620483,150.301117 552.481567,152.535736 552.790466,155.010300 
	C555.541687,154.930954 557.082031,152.882385 558.836548,151.335175 
	C561.211060,149.241211 563.454224,146.986038 566.653992,146.150055 
	C567.828552,145.843170 568.976257,145.792542 569.937012,146.684387 
	C571.065002,147.731567 570.450073,148.827545 569.903992,149.853867 
	C564.187134,160.598068 556.432068,169.599075 546.738953,176.951401 
	C545.231750,178.094650 543.805176,178.232635 542.141724,177.290512 
	C539.524963,175.808548 536.459351,175.590881 533.895752,176.573761 
	C528.861877,178.503754 524.184448,177.970016 519.434143,176.026443 
	C516.124268,174.672211 512.494385,175.785034 509.171753,174.804001 
	C507.836304,172.928589 508.729248,171.198196 509.253510,169.497864 
	C511.456299,162.353470 515.351624,156.155151 520.581299,150.927612 
	C526.697571,144.813721 532.687561,138.624359 538.315125,132.039169 
	C541.985962,127.743614 546.625305,124.503548 554.090393,126.377968 
	C543.357971,139.541824 527.272339,147.052719 521.267944,164.379349 
	C525.237488,162.771561 527.148376,160.097626 529.235840,157.716507 
	C534.055481,152.218948 537.944946,145.917618 543.489380,141.049133 
	C546.822144,138.122726 550.273987,135.332443 555.187256,134.486160 
	C556.253296,140.016525 552.262146,142.182632 549.235474,145.246719 
z"/>
<path fill="#000000" opacity="1.000000" stroke="none" 
	d="
M475.037415,108.040710 
	C483.678772,99.943893 492.863617,92.955002 500.484375,84.284760 
	C501.116180,83.565971 502.019928,82.871658 502.920227,82.636559 
	C511.902283,80.290894 519.671692,75.334656 527.838501,71.230911 
	C528.865112,70.715042 530.027771,70.199356 531.139160,70.172646 
	C534.619080,70.089005 535.607117,73.035172 536.134766,75.467163 
	C536.610168,77.658401 534.343018,78.614716 532.432495,78.472908 
	C519.658020,77.524719 510.862183,85.002335 502.239807,92.696426 
	C494.784973,99.348671 488.747925,107.446960 481.023163,113.845200 
	C475.762573,118.202461 470.251251,122.094223 463.288208,123.829170 
	C461.256439,120.597252 462.864624,118.569603 464.929749,116.745087 
	C468.172119,113.880463 471.487122,111.098106 475.037415,108.040710 
z"/>
<path fill="#000000" opacity="1.000000" stroke="none" 
	d="
M590.857300,181.322876 
	C588.293945,182.331512 585.704529,183.354492 584.110718,181.129593 
	C582.726196,179.196823 584.958679,177.458527 586.003845,175.875351 
	C598.471069,156.989594 615.691040,143.230499 634.444519,131.140747 
	C636.403809,129.877670 638.345520,128.583557 640.348877,127.393799 
	C641.952454,126.441383 643.791748,125.433548 645.199646,127.488892 
	C646.766724,129.776672 644.793030,130.799164 643.185730,131.660141 
	C630.833801,138.276535 620.595276,147.487885 611.160095,157.680481 
	C606.638245,162.565262 602.113892,167.446320 598.640503,173.196304 
	C596.737183,176.346985 594.392700,179.166138 590.857300,181.322876 
z"/>
<path fill="#000000" opacity="1.000000" stroke="none" 
	d="
M637.133911,379.117004 
	C640.570068,377.701874 643.522217,376.206207 646.261536,374.274994 
	C648.871216,372.435150 651.819031,371.429321 654.382935,373.978302 
	C657.369080,376.946991 656.863525,380.133911 654.081970,383.203644 
	C646.862976,391.170654 637.351501,392.955505 627.327942,392.971222 
	C623.036072,392.977966 618.731995,392.133820 614.659180,390.518158 
	C613.101379,389.900146 611.257751,389.436096 611.292236,387.383118 
	C611.326111,385.368958 612.768250,384.074310 614.527527,383.312378 
	C615.414368,382.928253 616.607727,382.466003 617.394470,382.758911 
	C624.586365,385.436615 630.450745,381.099731 637.133911,379.117004 
z"/>
<path fill="#000000" opacity="1.000000" stroke="none" 
	d="
M554.866943,355.145660 
	C556.062012,352.601868 557.889526,351.932495 559.954834,352.882568 
	C562.622070,354.109558 566.032532,355.354309 566.142883,358.684784 
	C566.360962,365.267731 567.740784,371.851746 566.354370,378.476074 
	C565.352783,383.261536 563.635071,384.309448 559.066223,382.523102 
	C550.794983,379.289185 549.676208,377.377838 550.987366,368.298523 
	C551.627869,363.863525 552.681335,359.525879 554.866943,355.145660 
z"/>
<path fill="#000000" opacity="1.000000" stroke="none" 
	d="
M528.627930,332.231171 
	C525.911987,337.790802 524.507202,338.072784 520.958801,333.722900 
	C517.089233,328.979462 514.524109,323.611206 514.824646,317.312836 
	C514.942444,314.842285 515.322021,311.966064 517.856079,310.883270 
	C520.528625,309.741272 523.106201,311.206207 525.146851,312.990631 
	C529.231445,316.562256 530.323181,321.344604 529.930054,326.519989 
	C529.793396,328.319580 529.178040,330.082794 528.627930,332.231171 
z"/>
<path fill="#000000" opacity="1.000000" stroke="none" 
	d="
M508.090393,152.783966 
	C508.698730,152.392471 509.129639,152.091003 509.603027,151.991150 
	C511.330933,151.626694 513.176819,149.017853 514.769958,151.649628 
	C516.027588,153.727280 514.657898,155.532715 512.684753,156.487045 
	C510.159180,157.708588 508.125488,157.411774 507.638123,153.701492 
	C507.606537,153.322586 507.932495,152.966507 508.090393,152.783966 
z"/>
<path fill="#000000" opacity="1.000000" stroke="none" 
	d="
M172.078339,720.249023 
	C176.260498,719.959778 176.905487,721.740662 175.464081,724.815552 
	C172.574799,730.978943 167.086685,733.735718 160.959122,735.181091 
	C148.502533,738.119446 136.188797,736.975586 124.125389,732.927856 
	C122.294121,732.313416 120.265236,731.737366 119.121407,729.526733 
	C120.334435,726.055908 123.618965,724.961304 126.607368,723.811218 
	C132.400696,721.581482 138.507217,720.773926 144.702576,720.680481 
	C153.686417,720.545105 162.670486,720.425598 172.078339,720.249023 
z"/>
<path fill="#000000" opacity="1.000000" stroke="none" 
	d="
M98.964294,595.903076 
	C92.876152,594.370361 93.308548,589.472473 93.371506,585.340515 
	C93.452911,579.997742 92.335464,574.904846 91.765518,569.754822 
	C91.162071,564.302063 92.053947,557.927368 94.796921,552.482117 
	C95.332771,551.418335 96.332291,550.519958 97.638321,550.972778 
	C99.766182,551.710449 101.587898,553.049438 101.841591,555.438293 
	C102.121384,558.072998 102.048248,560.750305 102.043396,563.408997 
	C102.029129,571.225769 103.863991,578.940369 103.321693,586.783325 
	C103.079765,590.282288 102.904243,593.822021 98.964294,595.903076 
z"/>
<path fill="#000000" opacity="1.000000" stroke="none" 
	d="
M361.697479,421.872742 
	C353.574036,421.864960 345.917145,421.906555 338.262360,421.800079 
	C335.970001,421.768158 333.480377,421.813446 333.592926,418.201874 
	C333.691467,415.040894 334.814606,413.168854 338.124176,412.809540 
	C343.082489,412.271149 348.015259,411.376984 353.030090,411.677856 
	C364.659149,412.375427 376.283325,410.159241 387.908081,411.625122 
	C391.225555,412.043457 395.580048,412.424530 395.770721,416.267792 
	C395.983826,420.562500 391.421722,421.018250 388.048340,421.732880 
	C383.265106,422.746216 378.417480,422.242432 373.617981,421.877289 
	C369.785278,421.585693 365.983459,421.486420 361.697479,421.872742 
z"/>
<path fill="#000000" opacity="1.000000" stroke="none" 
	d="
M461.572021,353.282806 
	C467.763428,352.140381 473.482208,351.901215 479.234833,353.601318 
	C482.571350,354.587341 484.305359,356.307526 484.240173,359.935730 
	C484.111877,367.082428 484.102814,374.234222 484.217346,381.381104 
	C484.269135,384.613251 482.918884,386.404419 479.777893,386.869568 
	C472.501953,387.946960 465.207001,387.891266 457.933350,386.949188 
	C455.712280,386.661499 453.619965,385.728912 453.831451,382.871613 
	C454.288910,376.690826 453.141388,370.618011 452.768005,364.493622 
	C452.255859,356.093201 453.033203,355.291229 461.572021,353.282806 
M468.544128,379.871460 
	C476.853638,379.401550 477.101349,379.101959 475.999634,371.083771 
	C475.841278,369.931274 475.810394,368.761841 475.684052,367.604218 
	C475.158081,362.784454 471.656525,360.216858 467.022583,361.239288 
	C462.731812,362.185974 460.016541,366.888123 460.228088,372.664795 
	C460.406921,377.547913 462.667603,380.090393 468.544128,379.871460 
z"/>
<path fill="#000000" opacity="1.000000" stroke="none" 
	d="
M329.017517,523.074341 
	C309.542511,507.248474 311.789307,480.425934 332.676941,467.339935 
	C341.629120,461.731445 351.078491,461.359985 360.027435,463.518585 
	C368.885742,465.655304 374.875122,473.398315 379.268158,481.475769 
	C386.278381,494.365356 384.721436,510.110657 375.838531,519.787964 
	C366.810608,529.623291 349.423218,532.597717 335.446716,526.611816 
	C333.317902,525.700134 331.355042,524.400818 329.017517,523.074341 
M329.567596,513.929810 
	C336.585358,520.247192 345.011047,522.312256 354.137207,521.536560 
	C359.837372,521.052002 365.667969,519.583374 369.592682,515.294189 
	C373.272888,511.272186 371.871429,504.461578 376.332458,500.456116 
	C376.548523,500.262177 376.313263,499.505066 376.211090,499.026642 
	C375.377869,495.124268 374.605316,491.206238 373.646423,487.334564 
	C373.179840,485.450562 372.608368,483.441742 369.843231,482.985046 
	C369.241028,485.742218 368.873779,488.514252 368.010040,491.121857 
	C366.722107,495.010223 364.632751,498.407501 360.475159,499.899689 
	C358.813721,500.495941 357.193146,500.336792 355.726318,499.268188 
	C354.612244,498.456573 354.326416,497.311401 354.954712,496.182617 
	C358.763458,489.340057 357.128937,481.022980 361.327362,474.485443 
	C353.655792,468.493317 338.828369,469.699249 332.461090,476.518250 
	C320.273956,489.570068 319.124023,502.061493 329.567596,513.929810 
z"/>
<path fill="#000000" opacity="1.000000" stroke="none" 
	d="
M304.154602,417.117340 
	C306.441315,421.285034 302.905457,421.047516 300.880096,421.658966 
	C298.739868,422.305115 296.141235,423.167358 294.760071,420.489441 
	C293.780060,418.589264 295.343140,417.929199 297.009827,417.743103 
	C299.278748,417.489746 301.547028,417.230438 304.154602,417.117340 
z"/>
<path fill="#000000" opacity="1.000000" stroke="none" 
	d="
M358.625580,507.504822 
	C360.498871,506.432587 362.029846,505.433807 363.703125,504.828125 
	C365.113647,504.317535 366.994293,503.179871 367.940430,505.424011 
	C368.741943,507.325165 367.919312,509.111786 366.215393,510.076721 
	C363.345154,511.702118 360.266876,512.705078 356.998230,511.673767 
	C355.956482,509.674316 357.416443,508.813721 358.625580,507.504822 
z"/>
</svg>