<?xml version="1.0" standalone="no"?>
<!DOCTYPE svg PUBLIC "-//W3C//DTD SVG 20010904//EN"
 "http://www.w3.org/TR/2001/REC-SVG-20010904/DTD/svg10.dtd">
<svg version="1.0" xmlns="http://www.w3.org/2000/svg"
 width="144.000000pt" height="149.000000pt" viewBox="0 0 144.000000 149.000000"
 preserveAspectRatio="xMidYMid meet">

<g transform="translate(0.000000,149.000000) scale(0.100000,-0.100000)"
fill="#000000" stroke="none">
<path d="M610 1391 c-38 -14 -67 -33 -96 -65 -62 -68 -75 -135 -48 -248 6 -25
4 -28 -19 -28 -24 0 -25 1 -20 58 3 45 0 63 -16 89 -63 100 -218 76 -253 -38
-7 -26 -8 -46 0 -67 12 -35 8 -42 -24 -42 -13 0 -28 -9 -34 -19 -14 -26 -14
-496 0 -522 10 -17 23 -19 160 -19 104 0 150 -3 150 -11 0 -6 -50 -98 -110
-203 -70 -121 -109 -198 -105 -208 9 -22 32 -30 53 -19 9 5 70 102 136 216 65
113 119 205 121 203 1 -2 59 -97 130 -211 118 -192 129 -208 154 -205 51 6 39
41 -80 233 -61 99 -114 185 -116 192 -4 10 39 13 194 15 l198 3 3 78 c2 42 4
77 6 77 1 0 80 -34 176 -75 96 -41 177 -75 182 -75 4 0 8 124 8 275 0 151 -4
275 -8 275 -4 0 -86 -34 -181 -75 -95 -41 -174 -75 -176 -75 -2 0 -5 33 -7 73
l-3 72 -43 3 c-32 2 -42 7 -38 17 22 58 26 100 16 151 -30 141 -174 223 -310
175z m105 -21 c24 -27 13 -68 -22 -76 -20 -5 -31 -2 -45 16 -23 28 -23 35 2
60 25 25 42 25 65 0z m-137 -119 c4 -28 -14 -51 -42 -51 -30 0 -46 18 -46 52
0 55 80 54 88 -1z m310 0 c8 -50 -55 -70 -83 -27 -18 27 -11 54 19 66 27 10
60 -10 64 -39z m-571 -17 c3 -8 -2 -23 -11 -32 -15 -15 -17 -15 -32 0 -21 21
-11 48 16 48 11 0 23 -7 27 -16z m-103 -40 c21 -8 21 -43 0 -51 -8 -3 -23 1
-31 10 -13 13 -14 19 -3 31 14 18 13 18 34 10z m194 -22 c4 -26 -22 -40 -43
-22 -11 9 -12 17 -4 32 13 25 43 19 47 -10z m153 -42 c29 -16 26 -67 -5 -81
-34 -16 -66 3 -66 41 0 41 33 60 71 40z m313 -6 c9 -8 16 -24 16 -34 0 -22
-26 -50 -46 -50 -15 0 -54 35 -54 48 0 4 7 18 16 30 18 26 46 28 68 6z m-647
-58 c-8 -21 -43 -20 -51 1 -10 26 23 48 42 29 8 -8 12 -22 9 -30z m181 10 c-4
-25 -43 -34 -51 -12 -8 20 19 47 39 39 8 -3 14 -15 12 -27z m-90 -50 c4 -21
-14 -37 -35 -29 -14 5 -18 35 -6 47 12 12 38 1 41 -18z m407 8 c25 -25 15 -67
-19 -79 -24 -8 -31 -6 -47 13 -19 24 -16 49 9 70 21 16 37 15 57 -4z m-414
-90 c27 -24 34 -76 15 -112 -21 -41 -67 -56 -111 -38 -40 17 -55 42 -55 89 0
50 49 91 98 83 19 -3 43 -13 53 -22z m607 -36 c17 -17 17 -319 0 -336 -9 -9
-77 -12 -245 -12 -219 0 -233 1 -243 19 -13 26 -13 296 0 322 10 18 24 19 243
19 168 0 236 -3 245 -12z m-604 -209 c35 -41 34 -83 -3 -120 -60 -60 -150 -22
-151 64 0 83 100 120 154 56z"/>
</g>
</svg>
