<svg version="1.0" xmlns="http://www.w3.org/2000/svg" width="694.000000pt" height="705.000000pt" viewBox="0 0 694.000000 705.000000" preserveAspectRatio="xMidYMid meet">

<g transform="translate(0.000000,705.000000) scale(0.100000,-0.100000)" stroke="none">
<path d="M3425 7023 c-26 -26 -15 -91 55 -313 64 -206 92 -298 110 -367 6 -26
                                17 -43 25 -43 19 0 19 11 -5 187 -62 448 -73 498 -117 533 -31 24 -46 25 -68
                                3z M4181 6894 c-33 -42 -96 -275 -121 -453 -18 -123 -1 -112 65 43 126
                                297 153 387 125 421 -19 22 -46 18 -69 -11z M2892 6774 c-29 -20 -29 -67 -1 -114 23 -37 448 -465 455 -457 5 5
                                -132 217 -223 344 -32 45 -77 110 -100 145 -44 65 -77 98 -97 98 -6 0 -22 -7
                                -34 -16z M4705 6708 c-34 -19 -84 -70 -160 -163 -40 -49 -98 -116 -129 -147
                                -81 -82 -74 -107 13 -44 25 18 84 57 131 86 78 48 175 119 221 163 27 25 25
                                82 -3 101 -26 19 -45 20 -73 4z M3790 6204 c-14 -2 -52 -9 -85 -15 -154 -28 -196 -72 -260 -269 -15
                                -47 -31 -91 -37 -97 -6 -7 -28 -13 -49 -13 -48 0 -59 -18 -59 -99 l0 -61 -254
                                0 -255 0 -30 53 c-17 30 -43 59 -58 67 -18 9 -84 15 -188 18 -103 3 -163 8
                                -168 16 -4 6 -5 36 -1 67 8 75 -12 115 -64 128 -34 9 -188 14 -452 15 l-105 1
                                -215 -103 c-268 -128 -298 -144 -382 -199 -56 -37 -72 -54 -94 -101 -25 -52
                                -28 -72 -35 -217 -8 -178 -40 -462 -75 -661 -8 -44 -14 -99 -14 -123 0 -67
                                -49 -267 -91 -374 -45 -114 -47 -138 -15 -215 88 -212 155 -509 156 -684 0
                                -77 -29 -211 -70 -318 -15 -41 -36 -104 -45 -140 -9 -36 -41 -117 -70 -180
                                -29 -63 -90 -196 -134 -295 -80 -175 -258 -546 -482 -1002 -115 -234 -149
                                -313 -149 -341 0 -9 58 96 129 233 70 138 194 367 275 510 287 507 429 819
                                527 1152 97 333 94 484 -21 928 -33 127 -60 247 -60 265 0 18 30 108 67 199
                                56 142 204 565 202 581 0 8 -46 -93 -100 -225 -58 -140 -75 -163 -64 -90 4 28
                                9 77 11 109 2 33 10 94 18 135 38 198 66 427 66 543 0 40 7 105 14 143 13 62
                                20 75 59 111 26 23 83 58 133 80 49 21 185 88 304 147 l215 109 95 -6 c228
                                -15 401 -33 411 -43 15 -15 15 -61 0 -76 -7 -7 -59 -15 -119 -18 l-107 -6 108
                                1 c73 1 107 -3 107 -10 0 -14 -25 -36 -32 -28 -3 3 -5 -2 -4 -11 1 -20 -61
                                -58 -86 -51 -10 2 -16 -1 -15 -8 1 -6 -11 -11 -29 -11 -20 0 -30 -4 -27 -12 5
                                -14 -33 -37 -47 -28 -6 3 -10 2 -10 -4 0 -11 -94 -43 -188 -65 -44 -10 -86
                                -30 -135 -64 -40 -27 -112 -72 -162 -100 -49 -29 -101 -61 -114 -72 -21 -18
                                -22 -22 -9 -38 9 -9 18 -29 22 -44 6 -25 4 -27 -48 -38 -75 -15 -140 -59 -166
                                -112 -11 -24 -14 -35 -6 -25 16 20 57 46 123 77 33 16 76 22 215 30 95 5 254
                                17 353 26 250 23 253 23 378 -86 56 -48 150 -135 210 -192 96 -93 107 -107
                                107 -139 0 -38 -29 -79 -56 -79 -21 0 -117 97 -143 146 -12 21 -19 30 -15 19
                                3 -11 8 -29 11 -40 3 -11 7 -27 10 -35 4 -8 5 -18 5 -22 -1 -5 2 -8 8 -8 5 0
                                10 -7 10 -15 0 -8 6 -12 14 -9 8 3 17 0 22 -7 4 -8 3 -10 -4 -5 -7 4 -12 3
                                -12 -3 0 -5 6 -12 13 -15 19 -8 -19 -34 -63 -41 -56 -10 -105 8 -210 76 -89
                                58 -96 60 -130 51 -19 -6 -128 -14 -242 -17 -148 -5 -208 -11 -208 -19 0 -7
                                -33 -57 -73 -111 -81 -113 -117 -174 -117 -202 0 -10 -4 -23 -8 -28 -5 -6 -13
                                -22 -20 -37 -10 -23 -9 -28 3 -28 8 0 15 7 15 15 0 8 5 15 10 15 17 0 11 -29
                                -20 -90 -34 -67 -35 -70 -19 -70 11 0 181 155 309 281 36 37 75 69 86 72 50
                                15 280 57 369 67 90 11 112 10 214 -9 63 -11 120 -26 127 -32 21 -18 17 -51
                                -17 -123 -31 -65 -43 -78 -52 -53 -3 6 -5 -6 -5 -28 1 -45 -22 -157 -35 -166
                                -4 -3 -69 -14 -145 -23 -252 -33 -236 -27 -416 -164 -103 -78 -126 -104 -126
                                -138 0 -35 25 -34 54 2 15 19 31 34 36 34 9 0 50 -62 50 -76 0 -5 -16 -19 -35
                                -32 -33 -21 -49 -62 -25 -62 6 0 51 20 100 45 97 49 225 89 433 136 73 17 140
                                32 150 35 11 4 17 0 17 -11 0 -8 9 -41 19 -73 10 -31 22 -76 26 -99 6 -40 5
                                -41 -17 -37 -13 2 -16 1 -8 -2 17 -7 40 -34 40 -46 0 -4 -7 -8 -15 -8 -8 0
                                -12 -6 -9 -14 9 -22 -25 -48 -55 -41 -17 4 -21 3 -12 -3 19 -13 -3 -25 -30
                                -17 -13 4 -19 3 -15 -3 3 -5 -22 -17 -57 -27 -34 -9 -67 -21 -73 -26 -6 -5
                                -69 -38 -140 -74 -172 -85 -348 -203 -352 -234 -4 -23 -2 -24 55 -19 32 3 64
                                3 70 1 19 -7 49 -82 68 -166 16 -70 15 -79 -5 -202 -29 -181 -94 -326 -206
                                -455 -25 -30 -52 -64 -60 -75 -17 -28 -174 -569 -213 -735 -17 -74 -49 -223
                                -71 -330 -23 -107 -61 -281 -86 -386 -38 -166 -54 -268 -40 -253 3 2 18 57 35
                                120 17 64 60 215 96 335 36 120 97 327 135 459 68 237 154 498 212 645 39 99
                                75 159 148 250 80 100 146 229 177 348 22 85 25 121 27 287 3 203 8 228 61
                                319 14 24 33 50 41 57 15 12 306 108 330 109 6 0 14 -21 17 -46 6 -61 27 -87
                                128 -157 234 -163 376 -240 533 -288 55 -17 115 -38 131 -46 40 -21 218 -137
                                274 -180 51 -38 121 -61 311 -102 132 -28 308 -90 379 -133 20 -12 69 -47 110
                                -77 87 -64 112 -100 228 -329 46 -90 127 -243 180 -340 53 -97 150 -285 215
                                -417 178 -362 321 -638 431 -829 28 -48 110 -204 181 -345 92 -180 136 -255
                                146 -254 9 2 24 -12 34 -32 11 -20 25 -40 33 -47 18 -15 7 15 -46 120 -22 44
                                -38 82 -35 85 3 3 -149 317 -339 699 -190 381 -366 743 -392 803 -25 61 -99
                                214 -164 340 -200 393 -271 504 -345 542 -17 9 -53 36 -81 60 -101 90 -330
                                182 -590 237 -96 21 -147 39 -260 93 -77 36 -149 75 -161 85 -11 10 -23 18
                                -26 18 -16 0 -330 147 -383 180 -33 20 -107 61 -165 91 -60 31 -127 75 -159
                                105 l-55 51 23 36 c25 41 13 50 -27 21 -18 -12 -23 -13 -27 -2 -19 55 -87 326
                                -95 381 -6 37 -17 85 -25 105 -15 37 -27 97 -47 226 -16 105 8 177 127 381 29
                                50 78 136 110 193 59 104 72 116 109 89 18 -13 18 -16 2 -68 -26 -85 -58 -142
                                -95 -166 -27 -18 -30 -23 -14 -23 11 0 37 11 58 25 20 15 38 25 39 23 1 -2 0
                                -28 -2 -59 l-4 -56 -51 -12 c-29 -6 -72 -9 -97 -5 -38 5 -48 3 -65 -16 -28
                                -31 -25 -133 9 -279 14 -63 33 -161 41 -218 19 -121 34 -160 118 -290 15 -23
                                24 -49 21 -57 -3 -9 3 -17 16 -21 11 -4 20 -12 19 -18 -3 -26 2 -37 16 -37 23
                                0 41 -46 26 -64 -7 -8 -9 -21 -5 -27 5 -9 10 -5 16 12 9 22 13 17 51 -61 68
                                -136 135 -228 188 -255 32 -17 122 -38 259 -60 122 -20 459 -103 543 -135 32
                                -12 65 -19 74 -15 29 10 -51 51 -186 95 -116 37 -213 62 -546 139 -71 17 -141
                                39 -155 49 -14 10 -52 63 -84 118 -33 54 -104 171 -159 259 -146 233 -144 230
                                -157 325 -6 47 -22 133 -36 192 -35 148 -53 278 -43 306 9 24 37 29 61 10 39
                                -32 67 -219 37 -254 -8 -10 -8 -14 -1 -14 32 0 48 109 31 196 -7 35 -10 67 -6
                                71 16 16 60 -48 96 -141 40 -103 111 -326 111 -350 0 -20 53 -76 162 -168 53
                                -46 142 -123 197 -172 67 -59 106 -86 117 -82 8 3 58 -12 109 -34 139 -59 207
                                -73 370 -73 216 -1 462 50 580 118 23 14 45 22 48 18 4 -3 7 -1 7 6 0 26 44
                                50 93 51 41 0 50 -3 54 -21 5 -18 11 -20 42 -14 40 7 116 42 201 92 75 45 79
                                44 67 -22 -11 -57 -7 -71 16 -62 19 7 167 407 167 450 0 26 -10 47 -40 83 -22
                                27 -52 79 -66 117 -24 63 -26 82 -11 142 9 38 21 130 18 145 -1 9 5 5 16 -9
                                31 -40 104 -114 108 -109 3 2 -12 28 -31 57 -50 74 -72 128 -80 192 -5 43 -3
                                57 9 68 9 7 21 10 27 6 14 -9 170 -247 170 -260 0 -6 -15 -17 -32 -24 -31 -13
                                -32 -14 -9 -18 13 -3 28 0 34 6 17 17 24 14 46 -23 12 -18 46 -64 76 -102 30
                                -38 73 -105 95 -149 65 -129 75 -247 40 -490 -27 -193 -27 -429 0 -543 40
                                -166 168 -439 307 -651 30 -46 103 -150 162 -230 59 -80 147 -204 196 -276
                                126 -185 293 -413 394 -535 125 -153 260 -300 276 -300 7 0 15 -5 17 -12 3 -8
                                7 -6 11 4 4 11 -59 101 -200 285 -113 147 -231 301 -262 342 -31 41 -110 157
                                -176 257 -66 101 -191 289 -277 416 -267 396 -369 606 -398 815 -11 81 -5 197
                                21 448 13 132 16 307 5 375 -5 30 -19 75 -31 100 -22 43 -130 191 -201 274
                                -19 22 -54 79 -79 127 -25 48 -62 109 -82 136 l-36 47 -5 238 c-4 182 -2 241
                                8 253 7 8 16 15 20 15 4 0 22 -45 39 -101 38 -117 58 -143 104 -134 40 9 77
                                42 77 70 0 27 -64 228 -88 274 -9 19 -26 39 -37 45 -11 6 -24 16 -30 23 -6 7
                                -41 14 -80 15 l-69 3 -13 60 c-7 33 -12 74 -13 91 0 28 -5 34 -42 49 -24 9
                                -76 23 -116 31 -86 16 -320 19 -374 4 -44 -13 -68 -43 -68 -84 0 -57 -21 -11
                                -60 135 -60 218 -78 259 -127 287 -23 12 -72 29 -110 37 -66 14 -383 28 -433
                                19z m230 -64 c-21 -7 -17 -8 20 -9 54 -1 161 -18 212 -33 l37 -11 27 -113 c16
                                -62 26 -115 23 -117 -2 -3 -35 0 -74 5 -38 6 -180 10 -315 11 -342 1 -400 -13
                                -446 -110 -17 -38 -32 -55 -50 -59 -14 -4 -26 -5 -28 -3 -7 8 81 256 109 308
                                58 105 60 106 255 135 52 7 255 4 230 -4z m310 -92 c6 -24 20 -74 31 -113 34
                                -117 33 -111 19 -98 -16 14 -80 253 -69 253 5 0 13 -19 19 -42z m-945 -279
                                c-8 -12 -45 -12 -45 0 0 10 30 20 43 14 4 -3 5 -9 2 -14z m1346 -1 c0 -10 2
                                -10 6 0 2 6 16 12 29 12 23 0 24 -3 24 -70 l0 -70 -62 0 c-95 0 -108 6 -109
                                49 l-2 36 -6 -40 c-5 -31 -11 -41 -28 -43 -22 -3 -22 -3 -9 43 15 49 47 85 77
                                85 15 0 19 -10 22 -52 l3 -53 2 58 c2 54 3 57 27 57 14 0 25 -6 26 -12z m185
                                2 c22 0 24 -5 26 -52 l2 -53 3 48 c4 47 5 49 31 42 15 -4 28 -7 28 -8 1 -1 4
                                -26 6 -54 l5 -53 -108 0 -109 0 0 71 0 72 46 -7 c26 -3 57 -6 70 -6z m-746
                                -24 c148 -35 298 -104 409 -190 85 -66 198 -192 260 -291 122 -195 182 -456
                                160 -697 -12 -122 -38 -208 -99 -325 -94 -179 -221 -320 -390 -431 -185 -122
                                -332 -163 -590 -166 -209 -1 -291 15 -445 89 -347 168 -562 494 -590 895 -12
                                172 19 314 109 506 58 122 114 202 214 306 165 172 385 288 602 318 89 12 281
                                5 360 -14z m867 -78 c-2 -18 -4 -6 -4 27 0 33 2 48 4 33 2 -15 2 -42 0 -60z
                                m-1665 60 c-9 -9 -15 -9 -24 0 -9 9 -7 12 12 12 19 0 21 -3 12 -12z m-948 -18
                                c52 -19 33 -32 -79 -56 -69 -15 -175 -11 -175 6 0 5 23 20 52 34 56 28 152 36
                                202 16z m91 -12 c-4 -13 -14 -30 -22 -38 -14 -13 -15 -13 -9 3 3 10 6 27 6 38
                                0 11 7 19 16 19 11 0 14 -6 9 -22z m85 -18 c12 -8 9 -10 -12 -11 -16 -1 -32
                                -3 -38 -4 -5 -1 -13 -3 -16 -4 -4 0 -1 -7 5 -15 9 -11 9 -20 2 -34 -14 -27
                                -132 -47 -215 -38 -34 4 -69 8 -79 9 -9 1 -16 6 -14 11 4 11 57 15 63 4 3 -5
                                11 -2 19 5 17 18 109 31 113 17 6 -17 19 -11 25 10 4 16 11 19 36 14 24 -5 31
                                -3 31 9 0 30 50 46 80 27z m-430 -90 c0 -5 -12 -10 -27 -9 -25 0 -26 1 -8 9
                                27 12 35 12 35 0z m50 0 c0 -5 -4 -10 -9 -10 -6 0 -13 5 -16 10 -3 6 1 10 9
                                10 9 0 16 -4 16 -10z m2810 -9 l74 -6 33 -100 c17 -55 32 -106 32 -112 1 -10
                                -34 -13 -143 -13 l-144 0 -35 48 c-20 26 -45 56 -56 66 -11 10 -18 23 -14 29
                                3 5 1 7 -4 4 -6 -4 -22 4 -34 18 -13 13 -30 25 -38 25 -8 0 -12 3 -8 6 3 4 0
                                13 -8 21 -8 8 -15 18 -15 22 0 9 230 4 360 -8z m-1942 -3 c67 0 122 -3 122 -6
                                0 -3 -26 -33 -57 -67 -85 -91 -106 -117 -127 -158 -34 -65 -51 -74 -156 -82
                                l-95 -6 -3 157 c-2 120 0 159 10 166 7 5 51 7 98 4 47 -3 140 -7 208 -8z
                                m-398 -8 c0 -5 -5 -10 -11 -10 -5 0 -7 5 -4 10 3 6 8 10 11 10 2 0 4 -4 4 -10z
                                m-54 -77 c5 -54 9 -63 15 -45 5 13 15 29 23 37 7 8 11 25 9 39 -3 14 -1 26 5
                                26 13 0 21 -65 22 -172 l0 -86 -43 -21 c-50 -24 -172 -57 -243 -66 -46 -6 -53
                                -4 -70 17 -11 13 -31 29 -46 35 -16 7 -28 16 -28 21 0 5 51 12 113 15 141 7
                                164 15 173 62 10 54 -3 102 -29 109 -12 3 -127 3 -255 -1 -253 -7 -262 -9
                                -262 -62 0 -16 -3 -42 -6 -59 -7 -34 -12 -36 -116 -47 -50 -6 -58 -4 -58 10 0
                                9 -5 13 -10 10 -6 -4 -8 -11 -5 -16 4 -5 -2 -9 -11 -9 -15 0 -16 10 -10 112 6
                                110 18 148 35 120 7 -11 9 -10 14 2 5 12 21 16 71 16 37 0 68 -5 72 -11 5 -8
                                8 -8 14 0 5 9 60 11 191 10 238 -2 336 0 379 11 19 4 38 8 42 9 3 1 10 -29 14
                                -66z m33 30 c10 -19 9 -22 -4 -17 -8 4 -15 15 -15 27 0 23 2 22 19 -10z m2568
                                -25 c-2 -35 -32 -52 -48 -26 -15 23 -10 36 19 46 15 6 28 11 29 11 1 1 1 -14
                                0 -31z m83 -4 c8 -8 14 -30 15 -47 1 -18 12 -75 24 -127 11 -52 20 -108 20
                                -125 -1 -21 -3 -24 -6 -10 -3 11 -27 85 -54 164 -27 79 -49 148 -49 153 0 14
                                37 9 50 -8z m-3569 -205 c-3 -4 -62 -8 -131 -10 l-125 -4 -3 41 c-2 28 3 48
                                16 63 l18 23 34 -31 c19 -17 43 -31 53 -31 30 0 70 26 102 67 l30 38 6 -75 c4
                                -41 4 -78 0 -81z m379 106 c0 -28 -4 -35 -20 -35 -16 0 -20 7 -20 35 0 28 4
                                35 20 35 16 0 20 -7 20 -35z m58 -2 c3 -30 1 -33 -22 -33 -23 0 -26 4 -26 36
                                0 31 3 35 23 32 17 -2 23 -11 25 -35z m52 2 c0 -28 -4 -35 -20 -35 -16 0 -20
                                7 -20 35 0 28 4 35 20 35 16 0 20 -7 20 -35z m61 13 l0 -23 10 23 c14 37 43
                                24 47 -20 l3 -37 -53 2 -53 2 -3 38 c-3 34 -1 37 22 37 20 0 26 -5 27 -22z
                                m119 -18 c0 -22 -4 -40 -10 -40 -5 0 -10 18 -10 40 0 22 5 40 10 40 6 0 10
                                -18 10 -40z m-30 0 c0 -16 -4 -30 -10 -30 -5 0 -8 10 -6 23 3 12 5 25 5 30 2
                                21 11 3 11 -23z m80 -6 c0 -21 -4 -33 -10 -29 -5 3 -10 19 -10 36 0 16 5 29
                                10 29 6 0 10 -16 10 -36z m-33 -11 c-3 -10 -5 -4 -5 12 0 17 2 24 5 18 2 -7 2
                                -21 0 -30z m2566 -104 c-6 -6 -16 -8 -22 -5 -15 10 -14 43 2 49 17 6 33 -31
                                20 -44z m-58 31 c3 -5 1 -10 -4 -10 -6 0 -11 5 -11 10 0 6 2 10 4 10 3 0 8 -4
                                11 -10z m170 -30 c-3 -5 -10 -10 -16 -10 -5 0 -9 5 -9 10 0 6 7 10 16 10 8 0
                                12 -4 9 -10z m-70 -10 c-3 -5 -10 -10 -16 -10 -5 0 -9 5 -9 10 0 6 7 10 16 10
                                8 0 12 -4 9 -10z m-2095 -35 c0 -12 -13 -15 -60 -15 -69 0 -82 17 -17 23 23 2
                                50 4 60 5 9 1 17 -5 17 -13z m2070 -19 c0 -3 -4 -8 -10 -11 -5 -3 -10 -1 -10
                                4 0 6 5 11 10 11 6 0 10 -2 10 -4z m86 -7 c10 -17 -13 -36 -27 -22 -12 12 -4
                                33 11 33 5 0 12 -5 16 -11z m-2366 -3 c0 -3 -13 -25 -30 -49 -16 -24 -34 -56
                                -40 -72 -15 -40 -23 -24 -11 21 14 52 47 104 66 104 8 0 15 -2 15 -4z m149 -5
                                c9 -6 10 -11 2 -15 -13 -8 -31 1 -31 15 0 11 11 11 29 0z m-300 -14 c-9 -7
                                -14 -18 -12 -24 3 -7 0 -13 -5 -13 -6 0 -12 5 -14 10 -2 7 -14 7 -35 -1 -18
                                -6 -38 -9 -45 -6 -8 3 -6 6 5 6 9 1 17 7 17 15 0 10 14 16 43 19 23 2 47 4 52
                                5 6 1 3 -4 -6 -11z m-142 -5 c7 6 17 7 21 3 4 -4 2 -10 -5 -12 -7 -2 -9 -11
                                -6 -19 3 -8 2 -14 -3 -14 -12 0 -44 32 -44 44 0 6 4 6 12 -2 8 -8 15 -9 25 0z
                                m363 -2 c0 -5 -4 -10 -10 -10 -5 0 -10 5 -10 10 0 6 5 10 10 10 6 0 10 -4 10
                                -10z m2250 -30 c0 -5 -4 -10 -9 -10 -6 0 -13 5 -16 10 -3 6 1 10 9 10 9 0 16
                                -4 16 -10z m-2200 -36 c0 -9 -7 -14 -17 -12 -25 5 -28 28 -4 28 12 0 21 -6 21
                                -16z m2137 -6 c-3 -8 -6 -5 -6 6 -1 11 2 17 5 13 3 -3 4 -12 1 -19z m-2217 2
                                c0 -5 -4 -10 -10 -10 -5 0 -10 5 -10 10 0 6 5 10 10 10 6 0 10 -4 10 -10z
                                m-234 -38 c-4 -3 -11 0 -16 8 -15 24 -11 33 6 15 9 -9 13 -19 10 -23z m264
                                -12 c0 -5 -7 -10 -16 -10 -8 0 -12 5 -9 10 3 6 10 10 16 10 5 0 9 -4 9 -10z
                                m-80 -50 c0 -5 -7 -10 -15 -10 -8 0 -15 5 -15 10 0 6 7 10 15 10 8 0 15 -4 15
                                -10z m2338 -18 c2 -7 -6 -12 -17 -12 -21 0 -27 11 -14 24 9 9 26 2 31 -12z
                                m-2448 -12 c0 -5 -4 -10 -10 -10 -5 0 -10 5 -10 10 0 6 5 10 10 10 6 0 10 -4
                                10 -10z m-925 -285 c-8 -11 -55 -63 -105 -115 -64 -67 -89 -88 -84 -70 8 30
                                149 250 172 268 15 11 18 9 24 -25 4 -25 2 -45 -7 -58z 
                                M4732 5695 c0 -16 2 -22 5 -12 2 9 2 23 0 30 -3 6 -5 -1 -5 -18z 
                                M4862 5705 c0 -16 2 -22 5 -12 2 9 2 23 0 30 -3 6 -5 -1 -5 -18z M3885 5584 c-398 -36 -704 -287 -819 -674 -26 -85 -32 -267 -12 -378
                                61 -347 311 -611 671 -708 55 -15 102 -19 220 -18 133 1 160 4 240 28 161 49
                                314 142 416 254 209 228 290 527 223 820 -44 195 -188 404 -358 522 -71 48
                                -203 108 -286 129 -76 19 -222 31 -295 25z m263 -160 c71 -20 145 -57 195 -96
                                65 -52 40 -50 -70 6 -124 62 -156 72 -273 81 -92 7 -104 11 -94 27 9 15 170 3
                                242 -18z m-460 -35 c1 -8 -8 -20 -20 -26 -13 -6 -61 -29 -108 -51 -57 -27
                                -109 -62 -158 -106 -64 -58 -102 -80 -102 -60 0 4 25 38 56 76 83 103 228 191
                                304 185 14 -1 26 -9 28 -18z m407 -144 c33 -9 94 -32 135 -52 53 -26 89 -37
                                123 -37 51 -1 48 1 116 -86 14 -19 26 -53 31 -88 11 -77 55 -196 74 -200 19
                                -4 41 31 55 91 11 44 9 53 -16 110 -15 34 -52 95 -81 135 -29 40 -50 78 -47
                                83 24 39 115 -62 189 -210 52 -103 76 -204 76 -320 0 -196 -76 -364 -237 -526
                                -96 -96 -280 -191 -392 -202 -70 -7 -62 4 18 23 104 24 185 67 255 136 49 48
                                67 73 76 108 6 25 13 52 16 61 2 9 -4 27 -15 40 l-19 23 -73 -68 c-253 -236
                                -631 -234 -868 3 -171 171 -210 452 -94 673 72 137 247 269 405 303 85 18 201
                                18 273 0z m-861 -236 c-8 -14 -34 -11 -34 4 0 8 3 17 7 20 9 9 34 -13 27 -24z
                                m-62 -215 c-4 -57 -6 -61 -27 -44 -18 15 -20 71 -3 88 22 22 33 6 30 -44z M3770 5112 c-88 -30 -141 -61 -195 -116 -127 -131 -170 -323 -116
                                -519 11 -42 21 -87 21 -98 0 -34 134 -161 210 -197 103 -50 179 -65 295 -59
                                171 8 234 37 360 162 72 72 122 251 112 404 -7 114 -23 165 -45 154 -9 -4 -47
                                -8 -84 -8 -74 0 -105 16 -145 75 -25 36 -31 115 -13 150 27 51 -283 91 -400
                                52z m273 -94 c9 -11 17 -27 17 -35 0 -16 -44 -63 -60 -63 -23 0 -51 22 -61 47
                                -26 69 54 108 104 51z m-167 -269 c-25 -30 -30 -49 -26 -98 5 -65 71 -103 133
                                -77 44 18 61 47 61 106 1 38 4 45 21 45 17 0 20 -6 18 -43 -4 -86 -66 -146
                                -149 -144 -111 1 -171 129 -102 217 22 29 61 48 66 34 2 -5 -8 -23 -22 -40z 
                                M4798 5543 c7 -3 16 -2 19 1 4 3 -2 6 -13 5 -11 0 -14 -3 -6 -6z M2676 5455 c-3 -8 -1 -17 3 -20 5 -3 11 2 15 10 3 8 1 17 -3 20 -5 3
                                -11 -2 -15 -10z M1865 5341 c-3 -5 -1 -12 5 -16 5 -3 10 1 10 9 0 18 -6 21 -15 7z M5190 5490 c0 -5 5 -10 10 -10 6 0 10 5 10 10 0 6 -4 10 -10 10 -5 0
                                -10 -4 -10 -10z M1732 5870 c0 -14 2 -19 5 -12 2 6 2 18 0 25 -3 6 -5 1 -5 -13z 
                                M1121 5614 c0 -11 3 -14 6 -6 3 7 2 16 -1 19 -3 4 -6 -2 -5 -13z 
                                M1131 5574 c0 -11 3 -14 6 -6 3 7 2 16 -1 19 -3 4 -6 -2 -5 -13z 
                                M2111 5174 c0 -11 3 -14 6 -6 3 7 2 16 -1 19 -3 4 -6 -2 -5 -13z 
                                M1441 5124 c0 -11 3 -14 6 -6 3 7 2 16 -1 19 -3 4 -6 -2 -5 -13z 
                                M2122 5120 c0 -14 2 -19 5 -12 2 6 2 18 0 25 -3 6 -5 1 -5 -13z M2410 5015 c-7 -8 -9 -15 -6 -15 4 0 14 7 22 15 9 8 11 15 6 15 -5 0
                                -15 -7 -22 -15z M2390 4801 c0 -6 4 -13 10 -16 6 -3 7 1 4 9 -7 18 -14 21 -14 7z M1721 4469 c-1 -29 26 -116 40 -124 4 -3 1 11 -7 31 -9 21 -19 56
                                -24 78 -5 28 -8 33 -9 15z M951 4144 c0 -21 4 -48 9 -59 5 -12 6 1 3 35 -7 66 -13 79 -12 24z M1110 3878 l-32 -52 22 -80 c12 -44 29 -89 37 -101 15 -20 15 -20 8
                                0 -4 11 -16 57 -28 101 l-21 82 27 51 c37 66 28 66 -13 -1z M2042 3760 c0 -19 2 -27 5 -17 2 9 2 25 0 35 -3 9 -5 1 -5 -18z M4965 3760 c-3 -5 -1 -10 4 -10 6 0 11 5 11 10 0 6 -2 10 -4 10 -3 0
                                -8 -4 -11 -10z M2390 3719 c0 -5 5 -7 10 -4 6 3 10 8 10 11 0 2 -4 4 -10 4 -5 0 -10
                                -5 -10 -11z M4855 3690 c-3 -5 -1 -10 4 -10 6 0 11 5 11 10 0 6 -2 10 -4 10 -3 0
                                -8 -4 -11 -10z M3170 3380 c-13 -8 -13 -10 2 -10 9 0 20 5 23 10 8 13 -5 13 -25 0z"></path>
</g>
</svg>