<svg version="1.0" xmlns="http://www.w3.org/2000/svg" width="512.000000pt" height="512.000000pt" viewBox="0 0 512.000000 512.000000" preserveAspectRatio="xMidYMid meet">

<g transform="translate(0.000000,512.000000) scale(0.100000,-0.100000)" stroke="none">
<path d="M505 4669 c-120 -15 -202 -62 -249 -142 -32 -54 -74 -200 -81 -280
-11 -120 -35 -917 -45 -1462 -11 -572 0 -1490 20 -1710 19 -199 51 -273 173
-397 71 -73 98 -93 178 -131 52 -25 128 -53 169 -62 116 -24 676 -34 2145 -36
1435 -1 1527 2 1865 62 153 28 180 43 180 104 0 51 -32 68 -140 73 l-88 4 25
55 c33 71 32 50 45 1203 6 520 12 1044 15 1165 5 248 -13 769 -29 830 -13 52
-81 120 -133 134 -42 11 -1522 30 -1824 23 -336 -7 -412 31 -751 372 -91 91
-180 173 -199 182 -31 15 -100 17 -631 18 -327 1 -617 -2 -645 -5z m1404 -298
c194 -197 271 -260 384 -317 129 -65 94 -63 1183 -69 543 -3 1003 -8 1020 -11
63 -12 76 -40 86 -177 19 -252 7 -2815 -13 -2939 -16 -100 -54 -139 -150 -153
l-46 -7 -6 224 c-3 122 -15 365 -26 538 -44 674 -52 850 -58 1280 -5 425 2
686 27 883 10 79 0 124 -37 167 -33 39 -71 59 -119 61 -22 2 -430 -1 -909 -5
-1076 -10 -1689 6 -2272 59 -161 14 -197 11 -254 -24 -62 -38 -90 -96 -104
-211 l-6 -56 -110 15 -109 15 5 160 c3 89 10 267 16 396 5 129 9 250 9 268 0
24 9 42 29 63 l29 29 623 0 622 0 186 -189z m-734 -595 c492 -36 653 -40 1823
-41 1071 -1 1174 -3 1189 -18 15 -14 15 -29 5 -137 -42 -422 -38 -885 13
-1720 45 -744 58 -1120 37 -1120 -12 0 -56 50 -86 97 -90 145 -162 452 -202
858 -14 138 -18 271 -18 575 -1 412 6 532 50 907 28 236 26 260 -25 330 -17
23 -49 50 -76 63 -54 26 -91 25 -405 -9 -360 -39 -617 -53 -1101 -58 -640 -7
-1100 17 -1612 83 l-48 7 6 46 c12 96 16 109 41 136 29 32 -17 32 409 1z
m-590 -281 c949 -139 2030 -153 2997 -39 214 25 218 25 255 7 53 -25 60 -52
45 -181 -48 -418 -62 -645 -62 -1007 0 -727 90 -1268 250 -1508 22 -33 40 -61
40 -63 0 -2 -797 -4 -1770 -4 -1765 0 -1771 0 -1811 20 -48 25 -96 96 -103
154 -37 279 -56 2646 -22 2646 6 0 88 -11 181 -25z"></path>
<path d="M2870 2947 c-19 -7 -351 -250 -736 -539 l-701 -526 -46 -74 c-25 -40
-80 -144 -123 -231 l-78 -157 21 -27 c11 -15 30 -30 42 -33 45 -10 440 23 489
41 21 8 1369 1017 1420 1063 37 33 74 114 79 176 15 165 -106 304 -276 316
-32 3 -71 -1 -91 -9z m161 -130 c59 -31 92 -90 92 -163 0 -32 -7 -63 -17 -78
-9 -14 -62 -60 -118 -102 -57 -43 -108 -81 -114 -85 -7 -6 -27 24 -57 85 -26
51 -68 117 -93 145 -55 61 -62 49 79 155 80 60 93 66 136 66 31 0 64 -8 92
-23z m-371 -312 c0 -33 -794 -603 -1018 -731 l-33 -19 -24 30 c-14 17 -24 35
-22 42 1 6 229 183 507 392 l505 380 43 -42 c23 -22 42 -46 42 -52z m96 -190
c-2 -7 -227 -181 -498 -385 -271 -205 -498 -377 -505 -382 -8 -7 -21 8 -43 52
-17 34 -30 63 -28 65 2 1 75 49 164 107 268 175 573 394 809 581 l70 56 18
-41 c10 -22 16 -46 13 -53z m-1229 -633 c51 -68 107 -171 99 -179 -10 -10
-161 -20 -165 -11 -1 5 -19 29 -37 54 l-35 45 41 75 c23 41 44 74 48 74 4 0
26 -26 49 -58z"></path>
<path d="M2950 1241 c-15 -29 -12 -49 10 -71 18 -18 33 -20 185 -20 152 0 167
2 185 20 24 24 25 38 4 68 -15 21 -20 22 -194 22 -167 0 -180 -1 -190 -19z"></path>
<path d="M2037 1222 c-21 -23 -21 -41 -1 -70 l15 -22 349 0 c378 0 380 0 380
55 0 55 -2 55 -379 55 -324 0 -349 -1 -364 -18z"></path>
<path d="M1252 1218 c-20 -20 -14 -65 10 -82 19 -14 65 -16 299 -16 153 0 285
3 294 6 27 11 38 53 20 80 l-15 24 -298 0 c-218 0 -301 -3 -310 -12z"></path>
<path d="M4546 4479 c-8 -12 -29 -81 -47 -155 -32 -130 -33 -133 -14 -154 25
-27 70 -26 89 3 13 19 76 249 76 276 0 20 -40 51 -64 51 -14 0 -31 -9 -40 -21z"></path>
<path d="M4748 4232 c-60 -60 -108 -114 -108 -120 0 -18 46 -62 65 -62 20 0
192 165 212 203 13 25 13 31 -1 51 -8 13 -25 26 -38 29 -19 5 -40 -11 -130
-101z"></path>
<path d="M4880 3964 c-14 -3 -44 -7 -67 -10 -24 -3 -50 -12 -58 -20 -21 -21
-19 -57 4 -78 18 -16 30 -17 112 -8 70 7 96 14 106 28 20 27 16 61 -9 78 -22
16 -37 17 -88 10z"></path>
</g>
</svg>