<svg version="1.1" id="Layer_1" xmlns="http://www.w3.org/2000/svg" xmlns:xlink="http://www.w3.org/1999/xlink" x="0px" y="0px"
	 width="100%" viewBox="0 0 215 234" enable-background="new 0 0 215 234" xml:space="preserve">
<path fill="#FEFEFE" opacity="1.000000" stroke="none" 
	d="
M216.000000,203.000000 
	C216.000000,213.627960 216.000000,224.255905 216.000000,235.000000 
	C186.645859,235.000000 157.291595,235.000000 127.811859,234.745636 
	C120.005913,221.863342 112.325424,209.235397 104.457191,196.298767 
	C105.512711,196.176926 105.678207,196.141312 105.843742,196.141083 
	C115.839912,196.126923 125.836128,196.131866 135.832230,196.100067 
	C148.334564,196.060318 155.631378,188.821915 155.663040,176.272034 
	C155.716843,154.945618 155.721848,133.618881 155.661209,112.292511 
	C155.624863,99.514053 148.296967,92.206383 135.488251,92.189903 
	C100.999298,92.145515 66.509346,92.318512 32.021759,92.097656 
	C19.963757,92.020432 11.365007,100.365654 11.670666,112.652824 
	C12.192576,133.633148 11.803128,154.635880 11.818671,175.629166 
	C11.828741,189.229752 18.729183,196.066818 32.448952,196.101120 
	C39.486935,196.118713 46.525002,196.104202 54.244968,196.104202 
	C49.039646,204.494446 44.248817,212.044739 39.640877,219.705032 
	C36.623608,224.720947 33.871098,229.896149 31.000000,235.000000 
	C21.020576,235.000000 11.041153,235.000000 1.000000,235.000000 
	C1.000000,174.312454 1.000000,113.624886 1.360009,52.575974 
	C2.176069,53.810886 2.601775,55.416546 3.092975,57.001907 
	C7.005263,69.628899 20.646208,78.624969 33.114735,76.813744 
	C48.111935,74.635185 58.882614,62.756237 58.871101,48.407124 
	C58.859848,34.384815 48.223160,22.194677 34.180431,20.110472 
	C20.534166,18.085110 6.905346,26.892174 2.962065,40.221092 
	C2.476085,41.863777 1.662026,43.409397 1.000000,45.000000 
	C1.000000,30.375114 1.000000,15.750230 1.000000,1.000000 
	C37.354137,1.000000 73.708412,1.000000 110.421715,1.360675 
	C89.551979,7.217278 77.618523,24.460941 80.823036,45.009781 
	C83.641914,63.085674 99.022911,76.340225 117.596146,76.698914 
	C135.448975,77.043701 152.008377,63.594524 155.034592,46.292244 
	C158.341553,27.384905 148.154160,9.316581 130.739487,3.228409 
	C128.506256,2.447670 126.247131,1.740990 124.000000,1.000000 
	C154.591537,1.000000 185.183075,1.000000 216.000000,1.000000 
	C216.000000,29.687168 216.000000,58.374924 215.785126,87.440437 
	C215.570236,87.818192 215.122375,87.949242 214.762238,87.828140 
	C199.257324,96.574730 184.144119,105.497238 168.934830,114.252869 
	C166.568039,115.615372 165.918839,117.170319 165.938126,119.790367 
	C166.061813,136.582901 166.088486,153.377640 165.922043,170.169434 
	C165.891525,173.248718 166.925308,174.880020 169.511063,176.410141 
	C183.765793,184.845337 197.902176,193.480362 212.105240,202.003387 
	C213.003326,202.542297 214.121948,202.713699 215.358780,203.123337 
	C215.579575,203.190628 216.000000,203.000000 216.000000,203.000000 
z"/>
<path fill="#010101" opacity="1.000000" stroke="none" 
	d="
M31.468578,235.000000 
	C33.871098,229.896149 36.623608,224.720947 39.640877,219.705032 
	C44.248817,212.044739 49.039646,204.494446 54.244968,196.104202 
	C46.525002,196.104202 39.486935,196.118713 32.448952,196.101120 
	C18.729183,196.066818 11.828741,189.229752 11.818671,175.629166 
	C11.803128,154.635880 12.192576,133.633148 11.670666,112.652824 
	C11.365007,100.365654 19.963757,92.020432 32.021759,92.097656 
	C66.509346,92.318512 100.999298,92.145515 135.488251,92.189903 
	C148.296967,92.206383 155.624863,99.514053 155.661209,112.292511 
	C155.721848,133.618881 155.716843,154.945618 155.663040,176.272034 
	C155.631378,188.821915 148.334564,196.060318 135.832230,196.100067 
	C125.836128,196.131866 115.839912,196.126923 105.843742,196.141083 
	C105.678207,196.141312 105.512711,196.176926 104.457191,196.298767 
	C112.325424,209.235397 120.005913,221.863342 127.343201,234.745636 
	C120.312355,235.000000 113.624710,235.000000 106.290985,234.715408 
	C97.003723,222.874084 88.362556,211.317368 79.482056,199.440567 
	C70.379517,211.663223 61.689758,223.331604 53.000000,235.000000 
	C45.979053,235.000000 38.958103,235.000000 31.468578,235.000000 
z"/>
<path fill="#030303" opacity="1.000000" stroke="none" 
	d="
M123.536819,1.000000 
	C126.247131,1.740990 128.506256,2.447670 130.739487,3.228409 
	C148.154160,9.316581 158.341553,27.384905 155.034592,46.292244 
	C152.008377,63.594524 135.448975,77.043701 117.596146,76.698914 
	C99.022911,76.340225 83.641914,63.085674 80.823036,45.009781 
	C77.618523,24.460941 89.551979,7.217278 110.890373,1.360675 
	C115.024544,1.000000 119.049088,1.000000 123.536819,1.000000 
M144.714905,40.923168 
	C146.541504,34.052532 139.059891,28.851099 134.545395,30.448093 
	C130.605255,31.841911 128.005386,34.260677 127.990807,38.750565 
	C127.977180,42.947769 130.133987,45.654999 133.964844,46.916386 
	C138.238220,48.323486 141.622620,46.491821 144.714905,40.923168 
M120.663208,12.528313 
	C114.686478,11.521384 110.745567,13.640273 109.437836,18.563791 
	C108.376427,22.559917 110.800743,26.951017 114.920296,28.493996 
	C118.756790,29.930956 123.072083,28.289646 125.121002,24.614195 
	C127.522263,20.306679 126.205368,16.229897 120.663208,12.528313 
M95.094025,46.581219 
	C101.776299,49.079597 107.585739,46.039837 107.944527,39.795494 
	C108.183411,35.637829 106.171455,32.638130 102.376465,31.305145 
	C98.393105,29.905994 94.635818,30.888264 92.351433,34.625439 
	C89.735214,38.905487 90.574707,42.873257 95.094025,46.581219 
M115.360641,49.581257 
	C110.964111,51.488281 109.052536,54.817066 110.021767,59.518654 
	C110.812614,63.354897 113.457527,65.469063 117.255348,65.959045 
	C122.032906,66.575409 126.516838,62.728035 126.789124,57.966244 
	C127.095673,52.605282 122.603416,48.946976 115.360641,49.581257 
z"/>
<path fill="#040404" opacity="1.000000" stroke="none" 
	d="
M1.000000,45.437500 
	C1.662026,43.409397 2.476085,41.863777 2.962065,40.221092 
	C6.905346,26.892174 20.534166,18.085110 34.180431,20.110472 
	C48.223160,22.194677 58.859848,34.384815 58.871101,48.407124 
	C58.882614,62.756237 48.111935,74.635185 33.114735,76.813744 
	C20.646208,78.624969 7.005263,69.628899 3.092975,57.001907 
	C2.601775,55.416546 2.176069,53.810886 1.360009,52.107315 
	C1.000000,49.958332 1.000000,47.916668 1.000000,45.437500 
M38.630371,44.233456 
	C36.075466,49.203835 37.712696,53.928799 42.308384,53.819469 
	C44.349277,53.770916 47.150951,52.155846 48.110615,50.422970 
	C48.933464,48.937145 48.280220,45.770607 47.112282,44.235737 
	C45.051800,41.527927 41.991230,41.571083 38.630371,44.233456 
M28.293404,55.554829 
	C27.065960,57.796947 24.821777,60.051247 24.848461,62.278343 
	C24.888872,65.651161 28.098726,67.769379 31.172136,66.670990 
	C33.230301,65.935425 35.637012,62.993664 35.817589,60.863609 
	C36.168362,56.725971 33.158726,54.848797 28.293404,55.554829 
M33.752567,40.152542 
	C37.228760,35.563332 36.050575,30.317518 31.220518,30.080210 
	C29.187399,29.980320 26.294241,31.370754 25.203493,33.018208 
	C24.280533,34.412239 24.623116,38.225307 25.778814,39.054932 
	C27.652479,40.399956 30.650183,40.179150 33.752567,40.152542 
M23.287245,47.665791 
	C22.584333,44.178600 20.250893,42.103107 16.954397,42.924805 
	C15.004022,43.410961 12.696861,45.590313 12.057817,47.510136 
	C10.990961,50.715199 12.698647,53.438190 16.280680,54.086048 
	C20.571577,54.862110 22.852261,52.702682 23.287245,47.665791 
z"/>
<path fill="#FCFCFC" opacity="1.000000" stroke="none" 
	d="
M53.468658,235.000000 
	C61.689758,223.331604 70.379517,211.663223 79.482056,199.440567 
	C88.362556,211.317368 97.003723,222.874084 105.822449,234.715408 
	C88.645775,235.000000 71.291542,235.000000 53.468658,235.000000 
z"/>
<path fill="#CBCBCB" opacity="1.000000" stroke="none" 
	d="
M215.122375,87.949242 
	C215.122375,87.949242 215.570236,87.818192 215.785126,87.909096 
	C216.000000,126.020897 216.000000,164.041794 216.000000,202.531342 
	C216.000000,203.000000 215.579575,203.190628 215.296143,202.654724 
	C215.049255,164.062286 215.085815,126.005768 215.122375,87.949242 
z"/>
<path fill="#010101" opacity="1.000000" stroke="none" 
	d="
M214.762238,87.828140 
	C215.085815,126.005768 215.049255,164.062286 215.075348,202.587433 
	C214.121948,202.713699 213.003326,202.542297 212.105240,202.003387 
	C197.902176,193.480362 183.765793,184.845337 169.511063,176.410141 
	C166.925308,174.880020 165.891525,173.248718 165.922043,170.169434 
	C166.088486,153.377640 166.061813,136.582901 165.938126,119.790367 
	C165.918839,117.170319 166.568039,115.615372 168.934830,114.252869 
	C184.144119,105.497238 199.257324,96.574730 214.762238,87.828140 
z"/>
<path fill="#F8F8F8" opacity="1.000000" stroke="none" 
	d="
M144.542603,41.277264 
	C141.622620,46.491821 138.238220,48.323486 133.964844,46.916386 
	C130.133987,45.654999 127.977180,42.947769 127.990807,38.750565 
	C128.005386,34.260677 130.605255,31.841911 134.545395,30.448093 
	C139.059891,28.851099 146.541504,34.052532 144.542603,41.277264 
z"/>
<path fill="#F7F7F7" opacity="1.000000" stroke="none" 
	d="
M121.003983,12.726080 
	C126.205368,16.229897 127.522263,20.306679 125.121002,24.614195 
	C123.072083,28.289646 118.756790,29.930956 114.920296,28.493996 
	C110.800743,26.951017 108.376427,22.559917 109.437836,18.563791 
	C110.745567,13.640273 114.686478,11.521384 121.003983,12.726080 
z"/>
<path fill="#F8F8F8" opacity="1.000000" stroke="none" 
	d="
M94.787064,46.345825 
	C90.574707,42.873257 89.735214,38.905487 92.351433,34.625439 
	C94.635818,30.888264 98.393105,29.905994 102.376465,31.305145 
	C106.171455,32.638130 108.183411,35.637829 107.944527,39.795494 
	C107.585739,46.039837 101.776299,49.079597 94.787064,46.345825 
z"/>
<path fill="#F8F8F8" opacity="1.000000" stroke="none" 
	d="
M115.720047,49.412987 
	C122.603416,48.946976 127.095673,52.605282 126.789124,57.966244 
	C126.516838,62.728035 122.032906,66.575409 117.255348,65.959045 
	C113.457527,65.469063 110.812614,63.354897 110.021767,59.518654 
	C109.052536,54.817066 110.964111,51.488281 115.720047,49.412987 
z"/>
<path fill="#F0F0F0" opacity="1.000000" stroke="none" 
	d="
M38.903378,43.963253 
	C41.991230,41.571083 45.051800,41.527927 47.112282,44.235737 
	C48.280220,45.770607 48.933464,48.937145 48.110615,50.422970 
	C47.150951,52.155846 44.349277,53.770916 42.308384,53.819469 
	C37.712696,53.928799 36.075466,49.203835 38.903378,43.963253 
z"/>
<path fill="#F5F5F5" opacity="1.000000" stroke="none" 
	d="
M28.640827,55.393799 
	C33.158726,54.848797 36.168362,56.725971 35.817589,60.863609 
	C35.637012,62.993664 33.230301,65.935425 31.172136,66.670990 
	C28.098726,67.769379 24.888872,65.651161 24.848461,62.278343 
	C24.821777,60.051247 27.065960,57.796947 28.640827,55.393799 
z"/>
<path fill="#F7F7F7" opacity="1.000000" stroke="none" 
	d="
M33.462952,40.385979 
	C30.650183,40.179150 27.652479,40.399956 25.778814,39.054932 
	C24.623116,38.225307 24.280533,34.412239 25.203493,33.018208 
	C26.294241,31.370754 29.187399,29.980320 31.220518,30.080210 
	C36.050575,30.317518 37.228760,35.563332 33.462952,40.385979 
z"/>
<path fill="#F5F5F5" opacity="1.000000" stroke="none" 
	d="
M23.332355,48.083004 
	C22.852261,52.702682 20.571577,54.862110 16.280680,54.086048 
	C12.698647,53.438190 10.990961,50.715199 12.057817,47.510136 
	C12.696861,45.590313 15.004022,43.410961 16.954397,42.924805 
	C20.250893,42.103107 22.584333,44.178600 23.332355,48.083004 
z"/>
</svg>