<svg version="1.1" id="Layer_1" xmlns="http://www.w3.org/2000/svg" xmlns:xlink="http://www.w3.org/1999/xlink" x="0px" y="0px"
	 width="100%" viewBox="0 0 695 616" enable-background="new 0 0 695 616" xml:space="preserve">
<path fill="#FDFDFD" opacity="1.000000" stroke="none" 
	d="
M1.000000,241.000000 
	C1.000000,160.666672 1.000000,80.833336 1.000000,1.000000 
	C232.666672,1.000000 464.333344,1.000000 696.000000,1.000000 
	C696.000000,206.333328 696.000000,411.666656 696.000000,617.000000 
	C464.333344,617.000000 232.666672,617.000000 1.000000,617.000000 
	C1.000000,491.833344 1.000000,366.666656 1.000000,241.000000 
M23.499460,562.022766 
	C22.199707,566.667297 20.883463,571.307312 19.603504,575.957275 
	C16.543053,587.075562 21.751991,593.920288 33.304855,593.922363 
	C83.636909,593.931274 133.968964,593.928894 184.301010,593.923950 
	C192.936279,593.923096 196.711884,591.048401 199.017639,582.786560 
	C207.999741,550.602783 216.911438,518.398987 226.065857,486.264313 
	C227.084000,482.690308 226.421951,480.629700 223.858643,478.083099 
	C200.696701,455.071564 177.681305,431.912445 154.646927,408.772797 
	C153.366852,407.486877 151.344254,405.992798 151.340485,404.591125 
	C151.333771,402.078278 151.875000,398.833618 153.501129,397.213806 
	C156.093857,394.631104 159.309921,395.789246 161.855148,398.372437 
	C170.011871,406.651062 178.203171,414.895660 186.851242,423.628113 
	C193.211243,393.460388 212.586868,374.786163 238.098083,360.923370 
	C236.720474,359.430450 235.652740,358.216492 234.525467,357.060577 
	C223.591644,345.848938 212.624252,334.669891 201.721161,323.428497 
	C198.411667,320.016357 198.233978,316.493591 200.990250,313.771881 
	C203.694351,311.101715 207.264023,311.386536 210.627518,314.738373 
	C214.993576,319.089294 219.110886,323.697083 223.581741,327.934235 
	C236.030640,339.732422 248.606827,351.396301 260.562958,362.580261 
	C262.857758,354.726074 265.699524,344.831238 268.648651,334.968567 
	C270.443726,328.965302 272.490631,327.731964 278.473511,328.826508 
	C285.480408,330.108398 292.477356,331.444489 299.990845,332.853119 
	C296.391266,304.768555 301.459015,278.791840 317.891052,255.203796 
	C297.836456,252.016510 278.607300,248.966522 259.380341,245.902908 
	C239.987198,242.812851 220.552841,239.956497 201.212952,236.562302 
	C154.898697,228.434052 110.173363,255.964706 97.027641,301.083496 
	C92.053001,318.157471 87.376892,335.318390 82.558815,352.437988 
	C62.968681,422.045746 43.376244,491.652802 23.499460,562.022766 
M616.074707,156.500183 
	C616.074158,151.669556 616.078552,146.838943 616.072144,142.008316 
	C616.054626,128.799133 610.071655,122.780701 596.940674,122.780334 
	C533.805786,122.778587 470.670868,122.780807 407.535950,122.782845 
	C406.370056,122.782883 405.200409,122.740028 404.038910,122.815498 
	C394.494690,123.435616 387.922852,131.875275 389.614319,141.773254 
	C391.183472,141.773254 392.820679,141.772903 394.457855,141.773315 
	C418.445770,141.779358 442.433685,141.765579 466.421509,141.819839 
	C469.069214,141.825821 471.796417,141.883804 474.350006,142.491867 
	C488.475952,145.855591 497.575531,159.040131 495.959595,173.532761 
	C494.408112,187.447357 482.375488,198.128876 467.838440,198.187439 
	C443.517731,198.285446 419.196381,198.212891 394.875275,198.212112 
	C393.082947,198.212067 391.290619,198.212097 389.205109,198.212097 
	C389.122772,199.914749 389.006378,201.204681 389.005951,202.494644 
	C388.997070,228.981323 388.976410,255.468033 389.015289,281.954651 
	C389.031036,292.685089 395.707550,299.218750 406.576416,299.220154 
	C470.210938,299.228271 533.845459,299.223450 597.479980,299.213837 
	C609.932617,299.211945 616.068237,293.010376 616.070496,280.438263 
	C616.077820,239.458878 616.074158,198.479477 616.074707,156.500183 
M267.079285,390.422333 
	C260.324493,384.020813 253.569687,377.619293 246.423111,370.846497 
	C231.238495,378.289917 217.377823,388.533325 207.864563,403.926758 
	C202.713470,412.261810 199.279755,421.242706 198.881927,431.082947 
	C198.789642,433.365601 199.860901,436.332397 201.450043,437.949066 
	C220.947220,457.784119 240.680252,477.386993 260.270508,497.131073 
	C275.593262,512.574158 294.051056,520.185486 315.803497,520.098816 
	C340.456085,520.000549 365.109406,520.082458 389.762390,520.072021 
	C392.728027,520.070740 395.693481,519.974487 398.659210,519.934326 
	C406.975739,519.821777 415.439301,520.671936 423.580475,519.421326 
	C445.027344,516.126526 459.423584,497.174500 457.579071,475.912842 
	C455.650208,453.679504 438.665924,438.017548 416.404602,438.004913 
	C383.922729,437.986511 351.440247,438.093750 318.960114,437.857666 
	C316.005524,437.836212 312.300262,436.482391 310.242920,434.439056 
	C295.831085,420.125519 281.761017,405.467896 267.079285,390.422333 
M268.855469,102.721359 
	C285.806732,102.815056 302.856262,104.107079 319.686584,102.726540 
	C346.088440,100.560867 362.943787,85.120293 369.467743,59.521557 
	C371.664520,50.901943 372.750000,42.127224 371.007629,32.899860 
	C345.987244,47.535114 321.022827,46.994072 296.190521,34.518600 
	C268.518768,20.616604 239.437286,16.853117 209.309494,22.166616 
	C174.808075,28.251476 149.753326,46.993504 137.541870,80.549049 
	C123.789467,118.338875 129.103409,154.289398 150.416290,187.879532 
	C154.675201,194.591812 160.845413,200.360809 167.014175,205.510834 
	C172.431732,210.033691 175.177551,208.568985 176.162964,201.527756 
	C177.661697,190.818375 178.390503,179.995789 180.058655,169.316925 
	C182.414215,154.237503 184.167450,138.917297 188.297882,124.298943 
	C193.456528,106.041557 204.253113,98.783409 223.129303,99.282669 
	C238.085526,99.678246 253.005402,101.448448 268.855469,102.721359 
M273.588287,217.123627 
	C317.480103,195.742630 331.689117,148.151245 322.725006,116.297119 
	C310.043030,116.297119 297.590393,116.829231 285.200165,116.176521 
	C264.937683,115.109108 244.734100,112.915001 224.470810,111.875343 
	C209.666306,111.115761 202.853195,116.023819 199.199112,130.432297 
	C196.310486,141.822540 194.687439,153.569870 193.068680,165.237198 
	C190.886444,180.965897 189.247803,196.769989 187.267090,213.458221 
	C214.245697,228.779785 243.139114,230.787643 273.588287,217.123627 
M356.166077,261.245087 
	C349.597412,260.203094 343.007050,259.278229 336.469421,258.068420 
	C333.320374,257.485657 331.292389,258.235809 329.300903,260.911285 
	C313.367584,282.316650 309.052856,306.338806 312.636536,332.287292 
	C313.013275,335.015137 314.252838,335.687561 316.713501,336.149261 
	C338.439117,340.225891 360.132477,344.473907 381.841522,348.639252 
	C406.619751,353.393433 431.404266,358.114838 455.660797,362.750092 
	C466.939941,347.087189 465.122009,329.586212 464.485229,311.919189 
	C445.564758,311.919189 426.938843,311.940155 408.312988,311.913483 
	C388.345642,311.884888 376.439362,299.948761 376.331085,279.889587 
	C376.303589,274.793427 376.326965,269.696991 376.326965,264.573914 
	C369.447021,263.444946 363.234955,262.425568 356.166077,261.245087 
M489.922913,484.500000 
	C489.922028,520.974426 489.917267,557.448853 489.923737,593.923279 
	C489.924927,600.715637 491.228394,601.983154 498.108459,601.994507 
	C502.605316,602.001953 507.102142,602.000732 511.598999,602.000732 
	C520.846436,602.000671 521.486938,601.366516 521.487671,592.072266 
	C521.492981,524.453064 521.494202,456.833832 521.496704,389.214600 
	C521.496765,387.592621 521.496704,385.970612 521.496704,383.737305 
	C510.778931,387.831421 500.547852,387.747681 489.922913,383.711304 
	C489.922913,417.307037 489.922913,450.403503 489.922913,484.500000 
M611.007935,594.457336 
	C613.038147,596.589905 614.801392,600.107788 617.155151,600.561340 
	C621.791077,601.454529 626.777222,600.900146 631.575867,600.469604 
	C636.031555,600.069702 637.659912,596.976074 636.191895,592.581543 
	C635.719177,591.166504 635.129089,589.789062 634.560120,588.407837 
	C608.047852,524.046204 581.533325,459.685547 555.015137,395.326355 
	C550.877136,385.283447 546.720276,375.248352 542.634460,365.360382 
	C535.543152,371.450806 532.756470,378.818604 533.891724,387.898743 
	C534.466003,392.491760 533.885925,397.219452 534.040100,401.879242 
	C534.104309,403.820404 534.408386,405.870422 535.133057,407.656006 
	C560.309692,469.694336 585.549683,531.706909 611.007935,594.457336 
M377.567261,154.127075 
	C375.735443,154.126923 373.903595,154.118057 372.071838,154.128204 
	C365.451691,154.164886 363.810913,155.763153 363.771515,162.314240 
	C363.739502,167.642990 363.720734,172.972595 363.780914,178.300888 
	C363.845428,184.013885 365.597961,185.856171 371.173676,185.861710 
	C403.147308,185.893555 435.121460,185.951309 467.093994,185.760559 
	C470.241760,185.741776 473.715698,184.678696 476.454315,183.092270 
	C482.633057,179.513046 485.032379,172.149445 482.949432,165.285690 
	C480.887787,158.492035 474.836517,154.161423 466.976074,154.148773 
	C437.500397,154.101334 408.024628,154.128174 377.567261,154.127075 
M470.500000,110.079163 
	C485.251953,110.079163 500.003906,110.079163 515.131531,110.079163 
	C515.131531,97.179085 515.152100,84.741028 515.123230,72.303085 
	C515.107605,65.577568 513.259094,63.696022 506.545532,63.683670 
	C487.081818,63.647846 467.617981,63.642731 448.154266,63.675797 
	C441.309448,63.687424 439.356354,65.695740 439.330414,72.699219 
	C439.289124,83.844940 439.317261,94.990990 439.348602,106.136810 
	C439.352112,107.389824 439.566101,108.642242 439.699615,110.079163 
	C449.884949,110.079163 459.692474,110.079163 470.500000,110.079163 
M493.501953,311.921753 
	C488.093018,311.921753 482.684113,311.921753 477.133881,311.921753 
	C477.133881,323.001343 477.132111,333.308594 477.136292,343.615845 
	C477.136749,344.780731 477.128540,345.948059 477.195312,347.110168 
	C478.018555,361.437744 488.877441,372.994354 502.539825,374.099213 
	C517.703247,375.325470 530.575378,366.251740 533.418823,351.747559 
	C534.365479,346.918640 534.000427,341.813354 534.052246,336.832520 
	C534.138062,328.581604 534.075623,320.329132 534.075623,311.921753 
	C520.440002,311.921753 507.470734,311.921753 493.501953,311.921753 
M666.656494,229.500076 
	C666.656494,246.253845 666.656494,263.007629 666.656494,280.048920 
	C672.836487,280.048920 678.756958,280.048920 685.085938,280.048920 
	C685.085938,234.023956 685.085938,188.142929 685.085938,141.974304 
	C679.089111,141.974304 673.173645,141.974304 666.659729,141.974304 
	C666.659729,170.919006 666.659729,199.709457 666.656494,229.500076 
M652.025330,97.524338 
	C661.951782,96.836952 666.477905,92.104301 666.526245,82.334473 
	C666.541870,79.170830 666.636963,76.000580 666.477112,72.844421 
	C666.078918,64.982727 660.936890,59.813137 653.066284,59.706036 
	C641.079041,59.542927 629.087097,59.555527 617.099060,59.677841 
	C609.052917,59.759930 603.756470,65.020454 603.340393,73.087326 
	C603.186218,76.076782 603.292664,79.080917 603.316101,82.078079 
	C603.396301,92.319496 608.462036,97.463493 618.645386,97.511024 
	C629.468872,97.561554 640.292847,97.511086 652.025330,97.524338 
M375.223450,596.085571 
	C377.435883,597.436707 379.510895,599.519470 381.893036,599.966736 
	C385.427734,600.630554 389.195007,599.927063 392.835663,600.189331 
	C397.030640,600.491577 399.227081,598.534607 400.685364,594.828918 
	C404.694519,584.641235 408.890778,574.527222 413.002686,564.379822 
	C417.328491,553.704590 421.642303,543.024475 425.836121,532.656128 
	C418.357727,532.656128 411.221344,532.790283 404.094238,532.591187 
	C401.173370,532.509644 399.739410,533.409302 398.627502,536.217041 
	C393.559540,549.014465 388.147339,561.674988 382.998352,574.441040 
	C380.218201,581.333984 377.718536,588.340027 375.223450,596.085571 
M465.547791,435.066772 
	C466.557404,432.606232 467.449677,430.089508 468.596252,427.694489 
	C474.850555,414.630585 478.597107,401.223694 477.416534,386.392426 
	C476.496552,374.835358 477.233276,374.776703 468.938904,365.446411 
	C459.872070,387.496613 450.858704,409.416809 442.154053,430.586151 
	C448.599701,436.213959 454.554199,441.412903 460.734497,446.809021 
	C462.154907,443.304932 463.683990,439.532776 465.547791,435.066772 
M590.324951,88.081917 
	C592.093750,87.942665 593.862488,87.803421 595.699829,87.658775 
	C595.699829,81.255035 595.699829,75.348785 595.699829,69.429344 
	C572.471558,69.429344 549.478577,69.429344 526.427246,69.429344 
	C526.427246,75.720360 526.427246,81.645645 526.427246,88.083099 
	C547.555054,88.083099 568.459595,88.083099 590.324951,88.081917 
M646.423706,191.997665 
	C640.650024,191.997665 634.876343,191.997665 628.887329,191.997665 
	C628.887329,204.796829 628.887329,217.174927 628.887329,229.695099 
	C637.273010,229.695099 645.462524,229.695099 653.627197,229.695099 
	C653.627197,217.004517 653.627197,204.633072 653.627197,191.997650 
	C651.343811,191.997650 649.372559,191.997650 646.423706,191.997665 
z"/>
<path fill="#010101" opacity="1.000000" stroke="none" 
	d="
M23.642059,561.641479 
	C43.376244,491.652802 62.968681,422.045746 82.558815,352.437988 
	C87.376892,335.318390 92.053001,318.157471 97.027641,301.083496 
	C110.173363,255.964706 154.898697,228.434052 201.212952,236.562302 
	C220.552841,239.956497 239.987198,242.812851 259.380341,245.902908 
	C278.607300,248.966522 297.836456,252.016510 317.891052,255.203796 
	C301.459015,278.791840 296.391266,304.768555 299.990845,332.853119 
	C292.477356,331.444489 285.480408,330.108398 278.473511,328.826508 
	C272.490631,327.731964 270.443726,328.965302 268.648651,334.968567 
	C265.699524,344.831238 262.857758,354.726074 260.562958,362.580261 
	C248.606827,351.396301 236.030640,339.732422 223.581741,327.934235 
	C219.110886,323.697083 214.993576,319.089294 210.627518,314.738373 
	C207.264023,311.386536 203.694351,311.101715 200.990250,313.771881 
	C198.233978,316.493591 198.411667,320.016357 201.721161,323.428497 
	C212.624252,334.669891 223.591644,345.848938 234.525467,357.060577 
	C235.652740,358.216492 236.720474,359.430450 238.098083,360.923370 
	C212.586868,374.786163 193.211243,393.460388 186.851242,423.628113 
	C178.203171,414.895660 170.011871,406.651062 161.855148,398.372437 
	C159.309921,395.789246 156.093857,394.631104 153.501129,397.213806 
	C151.875000,398.833618 151.333771,402.078278 151.340485,404.591125 
	C151.344254,405.992798 153.366852,407.486877 154.646927,408.772797 
	C177.681305,431.912445 200.696701,455.071564 223.858643,478.083099 
	C226.421951,480.629700 227.084000,482.690308 226.065857,486.264313 
	C216.911438,518.398987 207.999741,550.602783 199.017639,582.786560 
	C196.711884,591.048401 192.936279,593.923096 184.301010,593.923950 
	C133.968964,593.928894 83.636909,593.931274 33.304855,593.922363 
	C21.751991,593.920288 16.543053,587.075562 19.603504,575.957275 
	C20.883463,571.307312 22.199707,566.667297 23.642059,561.641479 
z"/>
<path fill="#010101" opacity="1.000000" stroke="none" 
	d="
M616.074707,157.000137 
	C616.074158,198.479477 616.077820,239.458878 616.070496,280.438263 
	C616.068237,293.010376 609.932617,299.211945 597.479980,299.213837 
	C533.845459,299.223450 470.210938,299.228271 406.576416,299.220154 
	C395.707550,299.218750 389.031036,292.685089 389.015289,281.954651 
	C388.976410,255.468033 388.997070,228.981323 389.005951,202.494644 
	C389.006378,201.204681 389.122772,199.914749 389.205109,198.212097 
	C391.290619,198.212097 393.082947,198.212067 394.875275,198.212112 
	C419.196381,198.212891 443.517731,198.285446 467.838440,198.187439 
	C482.375488,198.128876 494.408112,187.447357 495.959595,173.532761 
	C497.575531,159.040131 488.475952,145.855591 474.350006,142.491867 
	C471.796417,141.883804 469.069214,141.825821 466.421509,141.819839 
	C442.433685,141.765579 418.445770,141.779358 394.457855,141.773315 
	C392.820679,141.772903 391.183472,141.773254 389.614319,141.773254 
	C387.922852,131.875275 394.494690,123.435616 404.038910,122.815498 
	C405.200409,122.740028 406.370056,122.782883 407.535950,122.782845 
	C470.670868,122.780807 533.805786,122.778587 596.940674,122.780334 
	C610.071655,122.780701 616.054626,128.799133 616.072144,142.008316 
	C616.078552,146.838943 616.074158,151.669556 616.074707,157.000137 
M585.368286,250.181244 
	C576.677307,241.511414 565.202698,240.134674 556.037598,246.662109 
	C547.361084,252.841553 544.318359,264.117676 548.743958,273.692047 
	C554.208923,285.515320 568.210266,290.139313 579.466614,283.838379 
	C591.337769,277.193329 594.098816,262.868134 585.368286,250.181244 
M442.755432,274.047333 
	C442.256195,274.047333 441.756561,274.033997 441.257782,274.049286 
	C436.266296,274.202271 433.241119,276.502380 433.140289,280.215393 
	C433.032501,284.187134 436.136414,286.654938 441.449188,286.689056 
	C448.604584,286.735046 455.760834,286.745850 462.916046,286.690094 
	C467.995239,286.650543 470.898132,284.349579 470.957825,280.498260 
	C471.018707,276.570892 468.119598,274.109711 463.169403,274.063293 
	C456.679962,274.002502 450.189484,274.047882 442.755432,274.047333 
M508.416565,274.049103 
	C502.270081,274.052948 496.119598,273.924438 489.978668,274.111176 
	C486.396790,274.220093 484.037567,276.209442 483.802734,279.966919 
	C483.568054,283.721283 485.660980,286.381744 489.187012,286.511383 
	C498.139465,286.840546 507.121429,286.790588 516.074829,286.451447 
	C519.420837,286.324677 521.351379,283.746094 521.292358,280.257507 
	C521.233154,276.762024 519.168335,274.695404 515.852356,274.165009 
	C513.744141,273.827789 511.543610,274.067871 508.416565,274.049103 
z"/>
<path fill="#010101" opacity="1.000000" stroke="none" 
	d="
M267.330444,390.671326 
	C281.761017,405.467896 295.831085,420.125519 310.242920,434.439056 
	C312.300262,436.482391 316.005524,437.836212 318.960114,437.857666 
	C351.440247,438.093750 383.922729,437.986511 416.404602,438.004913 
	C438.665924,438.017548 455.650208,453.679504 457.579071,475.912842 
	C459.423584,497.174500 445.027344,516.126526 423.580475,519.421326 
	C415.439301,520.671936 406.975739,519.821777 398.659210,519.934326 
	C395.693481,519.974487 392.728027,520.070740 389.762390,520.072021 
	C365.109406,520.082458 340.456085,520.000549 315.803497,520.098816 
	C294.051056,520.185486 275.593262,512.574158 260.270508,497.131073 
	C240.680252,477.386993 220.947220,457.784119 201.450043,437.949066 
	C199.860901,436.332397 198.789642,433.365601 198.881927,431.082947 
	C199.279755,421.242706 202.713470,412.261810 207.864563,403.926758 
	C217.377823,388.533325 231.238495,378.289917 246.423111,370.846497 
	C253.569687,377.619293 260.324493,384.020813 267.330444,390.671326 
z"/>
<path fill="#020202" opacity="1.000000" stroke="none" 
	d="
M268.398438,102.664810 
	C253.005402,101.448448 238.085526,99.678246 223.129303,99.282669 
	C204.253113,98.783409 193.456528,106.041557 188.297882,124.298943 
	C184.167450,138.917297 182.414215,154.237503 180.058655,169.316925 
	C178.390503,179.995789 177.661697,190.818375 176.162964,201.527756 
	C175.177551,208.568985 172.431732,210.033691 167.014175,205.510834 
	C160.845413,200.360809 154.675201,194.591812 150.416290,187.879532 
	C129.103409,154.289398 123.789467,118.338875 137.541870,80.549049 
	C149.753326,46.993504 174.808075,28.251476 209.309494,22.166616 
	C239.437286,16.853117 268.518768,20.616604 296.190521,34.518600 
	C321.022827,46.994072 345.987244,47.535114 371.007629,32.899860 
	C372.750000,42.127224 371.664520,50.901943 369.467743,59.521557 
	C362.943787,85.120293 346.088440,100.560867 319.686584,102.726540 
	C302.856262,104.107079 285.806732,102.815056 268.398438,102.664810 
z"/>
<path fill="#010101" opacity="1.000000" stroke="none" 
	d="
M273.259521,217.307312 
	C243.139114,230.787643 214.245697,228.779785 187.267090,213.458221 
	C189.247803,196.769989 190.886444,180.965897 193.068680,165.237198 
	C194.687439,153.569870 196.310486,141.822540 199.199112,130.432297 
	C202.853195,116.023819 209.666306,111.115761 224.470810,111.875343 
	C244.734100,112.915001 264.937683,115.109108 285.200165,116.176521 
	C297.590393,116.829231 310.043030,116.297119 322.725006,116.297119 
	C331.689117,148.151245 317.480103,195.742630 273.259521,217.307312 
z"/>
<path fill="#020202" opacity="1.000000" stroke="none" 
	d="
M356.594482,261.325623 
	C363.234955,262.425568 369.447021,263.444946 376.326965,264.573914 
	C376.326965,269.696991 376.303589,274.793427 376.331085,279.889587 
	C376.439362,299.948761 388.345642,311.884888 408.312988,311.913483 
	C426.938843,311.940155 445.564758,311.919189 464.485229,311.919189 
	C465.122009,329.586212 466.939941,347.087189 455.660797,362.750092 
	C431.404266,358.114838 406.619751,353.393433 381.841522,348.639252 
	C360.132477,344.473907 338.439117,340.225891 316.713501,336.149261 
	C314.252838,335.687561 313.013275,335.015137 312.636536,332.287292 
	C309.052856,306.338806 313.367584,282.316650 329.300903,260.911285 
	C331.292389,258.235809 333.320374,257.485657 336.469421,258.068420 
	C343.007050,259.278229 349.597412,260.203094 356.594482,261.325623 
z"/>
<path fill="#010101" opacity="1.000000" stroke="none" 
	d="
M489.922913,484.000000 
	C489.922913,450.403503 489.922913,417.307037 489.922913,383.711304 
	C500.547852,387.747681 510.778931,387.831421 521.496704,383.737305 
	C521.496704,385.970612 521.496765,387.592621 521.496704,389.214600 
	C521.494202,456.833832 521.492981,524.453064 521.487671,592.072266 
	C521.486938,601.366516 520.846436,602.000671 511.598999,602.000732 
	C507.102142,602.000732 502.605316,602.001953 498.108459,601.994507 
	C491.228394,601.983154 489.924927,600.715637 489.923737,593.923279 
	C489.917267,557.448853 489.922028,520.974426 489.922913,484.000000 
z"/>
<path fill="#040404" opacity="1.000000" stroke="none" 
	d="
M610.894287,594.090271 
	C585.549683,531.706909 560.309692,469.694336 535.133057,407.656006 
	C534.408386,405.870422 534.104309,403.820404 534.040100,401.879242 
	C533.885925,397.219452 534.466003,392.491760 533.891724,387.898743 
	C532.756470,378.818604 535.543152,371.450806 542.634460,365.360382 
	C546.720276,375.248352 550.877136,385.283447 555.015137,395.326355 
	C581.533325,459.685547 608.047852,524.046204 634.560120,588.407837 
	C635.129089,589.789062 635.719177,591.166504 636.191895,592.581543 
	C637.659912,596.976074 636.031555,600.069702 631.575867,600.469604 
	C626.777222,600.900146 621.791077,601.454529 617.155151,600.561340 
	C614.801392,600.107788 613.038147,596.589905 610.894287,594.090271 
z"/>
<path fill="#040404" opacity="1.000000" stroke="none" 
	d="
M378.058075,154.127121 
	C408.024628,154.128174 437.500397,154.101334 466.976074,154.148773 
	C474.836517,154.161423 480.887787,158.492035 482.949432,165.285690 
	C485.032379,172.149445 482.633057,179.513046 476.454315,183.092270 
	C473.715698,184.678696 470.241760,185.741776 467.093994,185.760559 
	C435.121460,185.951309 403.147308,185.893555 371.173676,185.861710 
	C365.597961,185.856171 363.845428,184.013885 363.780914,178.300888 
	C363.720734,172.972595 363.739502,167.642990 363.771515,162.314240 
	C363.810913,155.763153 365.451691,154.164886 372.071838,154.128204 
	C373.903595,154.118057 375.735443,154.126923 378.058075,154.127121 
z"/>
<path fill="#020202" opacity="1.000000" stroke="none" 
	d="
M470.000000,110.079163 
	C459.692474,110.079163 449.884949,110.079163 439.699615,110.079163 
	C439.566101,108.642242 439.352112,107.389824 439.348602,106.136810 
	C439.317261,94.990990 439.289124,83.844940 439.330414,72.699219 
	C439.356354,65.695740 441.309448,63.687424 448.154266,63.675797 
	C467.617981,63.642731 487.081818,63.647846 506.545532,63.683670 
	C513.259094,63.696022 515.107605,65.577568 515.123230,72.303085 
	C515.152100,84.741028 515.131531,97.179085 515.131531,110.079163 
	C500.003906,110.079163 485.251953,110.079163 470.000000,110.079163 
z"/>
<path fill="#020202" opacity="1.000000" stroke="none" 
	d="
M494.001709,311.921753 
	C507.470734,311.921753 520.440002,311.921753 534.075623,311.921753 
	C534.075623,320.329132 534.138062,328.581604 534.052246,336.832520 
	C534.000427,341.813354 534.365479,346.918640 533.418823,351.747559 
	C530.575378,366.251740 517.703247,375.325470 502.539825,374.099213 
	C488.877441,372.994354 478.018555,361.437744 477.195312,347.110168 
	C477.128540,345.948059 477.136749,344.780731 477.136292,343.615845 
	C477.132111,333.308594 477.133881,323.001343 477.133881,311.921753 
	C482.684113,311.921753 488.093018,311.921753 494.001709,311.921753 
z"/>
<path fill="#010101" opacity="1.000000" stroke="none" 
	d="
M666.658081,229.000000 
	C666.659729,199.709457 666.659729,170.919006 666.659729,141.974304 
	C673.173645,141.974304 679.089111,141.974304 685.085938,141.974304 
	C685.085938,188.142929 685.085938,234.023956 685.085938,280.048920 
	C678.756958,280.048920 672.836487,280.048920 666.656494,280.048920 
	C666.656494,263.007629 666.656494,246.253845 666.658081,229.000000 
z"/>
<path fill="#050505" opacity="1.000000" stroke="none" 
	d="
M651.570923,97.514526 
	C640.292847,97.511086 629.468872,97.561554 618.645386,97.511024 
	C608.462036,97.463493 603.396301,92.319496 603.316101,82.078079 
	C603.292664,79.080917 603.186218,76.076782 603.340393,73.087326 
	C603.756470,65.020454 609.052917,59.759930 617.099060,59.677841 
	C629.087097,59.555527 641.079041,59.542927 653.066284,59.706036 
	C660.936890,59.813137 666.078918,64.982727 666.477112,72.844421 
	C666.636963,76.000580 666.541870,79.170830 666.526245,82.334473 
	C666.477905,92.104301 661.951782,96.836952 651.570923,97.514526 
z"/>
<path fill="#040404" opacity="1.000000" stroke="none" 
	d="
M375.157898,595.690308 
	C377.718536,588.340027 380.218201,581.333984 382.998352,574.441040 
	C388.147339,561.674988 393.559540,549.014465 398.627502,536.217041 
	C399.739410,533.409302 401.173370,532.509644 404.094238,532.591187 
	C411.221344,532.790283 418.357727,532.656128 425.836121,532.656128 
	C421.642303,543.024475 417.328491,553.704590 413.002686,564.379822 
	C408.890778,574.527222 404.694519,584.641235 400.685364,594.828918 
	C399.227081,598.534607 397.030640,600.491577 392.835663,600.189331 
	C389.195007,599.927063 385.427734,600.630554 381.893036,599.966736 
	C379.510895,599.519470 377.435883,597.436707 375.157898,595.690308 
z"/>
<path fill="#050505" opacity="1.000000" stroke="none" 
	d="
M465.380432,435.413696 
	C463.683990,439.532776 462.154907,443.304932 460.734497,446.809021 
	C454.554199,441.412903 448.599701,436.213959 442.154053,430.586151 
	C450.858704,409.416809 459.872070,387.496613 468.938904,365.446411 
	C477.233276,374.776703 476.496552,374.835358 477.416534,386.392426 
	C478.597107,401.223694 474.850555,414.630585 468.596252,427.694489 
	C467.449677,430.089508 466.557404,432.606232 465.380432,435.413696 
z"/>
<path fill="#040404" opacity="1.000000" stroke="none" 
	d="
M589.844543,88.082504 
	C568.459595,88.083099 547.555054,88.083099 526.427246,88.083099 
	C526.427246,81.645645 526.427246,75.720360 526.427246,69.429344 
	C549.478577,69.429344 572.471558,69.429344 595.699829,69.429344 
	C595.699829,75.348785 595.699829,81.255035 595.699829,87.658775 
	C593.862488,87.803421 592.093750,87.942665 589.844543,88.082504 
z"/>
<path fill="#030303" opacity="1.000000" stroke="none" 
	d="
M646.912476,191.997650 
	C649.372559,191.997650 651.343811,191.997650 653.627197,191.997650 
	C653.627197,204.633072 653.627197,217.004517 653.627197,229.695099 
	C645.462524,229.695099 637.273010,229.695099 628.887329,229.695099 
	C628.887329,217.174927 628.887329,204.796829 628.887329,191.997665 
	C634.876343,191.997665 640.650024,191.997665 646.912476,191.997650 
z"/>
<path fill="#F8F8F8" opacity="1.000000" stroke="none" 
	d="
M585.608887,250.451416 
	C594.098816,262.868134 591.337769,277.193329 579.466614,283.838379 
	C568.210266,290.139313 554.208923,285.515320 548.743958,273.692047 
	C544.318359,264.117676 547.361084,252.841553 556.037598,246.662109 
	C565.202698,240.134674 576.677307,241.511414 585.608887,250.451416 
M564.674133,273.174561 
	C571.142456,275.068451 576.312317,272.790985 577.862000,267.364868 
	C579.357544,262.128326 576.328369,256.600922 571.062805,255.361115 
	C566.513611,254.289993 562.865112,255.961288 560.487122,259.922760 
	C557.806885,264.387909 559.041931,268.659943 564.674133,273.174561 
z"/>
<path fill="#F3F3F3" opacity="1.000000" stroke="none" 
	d="
M443.227448,274.047455 
	C450.189484,274.047882 456.679962,274.002502 463.169403,274.063293 
	C468.119598,274.109711 471.018707,276.570892 470.957825,280.498260 
	C470.898132,284.349579 467.995239,286.650543 462.916046,286.690094 
	C455.760834,286.745850 448.604584,286.735046 441.449188,286.689056 
	C436.136414,286.654938 433.032501,284.187134 433.140289,280.215393 
	C433.241119,276.502380 436.266296,274.202271 441.257782,274.049286 
	C441.756561,274.033997 442.256195,274.047333 443.227448,274.047455 
z"/>
<path fill="#F3F3F3" opacity="1.000000" stroke="none" 
	d="
M508.900513,274.049103 
	C511.543610,274.067871 513.744141,273.827789 515.852356,274.165009 
	C519.168335,274.695404 521.233154,276.762024 521.292358,280.257507 
	C521.351379,283.746094 519.420837,286.324677 516.074829,286.451447 
	C507.121429,286.790588 498.139465,286.840546 489.187012,286.511383 
	C485.660980,286.381744 483.568054,283.721283 483.802734,279.966919 
	C484.037567,276.209442 486.396790,274.220093 489.978668,274.111176 
	C496.119598,273.924438 502.270081,274.052948 508.900513,274.049103 
z"/>
<path fill="#090909" opacity="1.000000" stroke="none" 
	d="
M564.308960,273.030212 
	C559.041931,268.659943 557.806885,264.387909 560.487122,259.922760 
	C562.865112,255.961288 566.513611,254.289993 571.062805,255.361115 
	C576.328369,256.600922 579.357544,262.128326 577.862000,267.364868 
	C576.312317,272.790985 571.142456,275.068451 564.308960,273.030212 
z"/>
</svg>